G75*
G70*
%OFA0B0*%
%FSLAX24Y24*%
%IPPOS*%
%LPD*%
%AMOC8*
5,1,8,0,0,1.08239X$1,22.5*
%
%ADD10R,0.0450X0.0100*%
%ADD11R,0.0100X0.0450*%
%ADD12R,0.1181X0.0354*%
%ADD13R,0.0500X0.0500*%
%ADD14R,0.0315X0.0472*%
%ADD15R,0.0472X0.0315*%
%ADD16R,0.1339X0.0748*%
%ADD17R,0.0748X0.0551*%
%ADD18R,0.0551X0.0709*%
%ADD19R,0.0591X0.0276*%
D10*
X008302Y018366D03*
X008302Y018563D03*
X008302Y018760D03*
X008302Y018957D03*
X008302Y019153D03*
X008302Y019350D03*
X008302Y019547D03*
X008302Y019744D03*
X011058Y019744D03*
X011058Y019547D03*
X011058Y019350D03*
X011058Y019153D03*
X011058Y018957D03*
X011058Y018760D03*
X011058Y018563D03*
X011058Y018366D03*
D11*
X010369Y017677D03*
X010172Y017677D03*
X009975Y017677D03*
X009778Y017677D03*
X009582Y017677D03*
X009385Y017677D03*
X009188Y017677D03*
X008991Y017677D03*
X008991Y020433D03*
X009188Y020433D03*
X009385Y020433D03*
X009582Y020433D03*
X009778Y020433D03*
X009975Y020433D03*
X010172Y020433D03*
X010369Y020433D03*
D12*
X014341Y020433D03*
X014341Y019449D03*
X014341Y018661D03*
X014341Y017677D03*
D13*
X012680Y016455D03*
X012680Y015655D03*
X013780Y023430D03*
X014580Y023430D03*
D14*
X012784Y023430D03*
X012076Y023430D03*
X011284Y023430D03*
X010576Y023430D03*
X012326Y019680D03*
X013034Y019680D03*
X013034Y018555D03*
X012326Y018555D03*
X012659Y017430D03*
X011951Y017430D03*
X008034Y016680D03*
X007326Y016680D03*
X007326Y015555D03*
X008034Y015555D03*
X003659Y016305D03*
X002951Y016305D03*
X002034Y017180D03*
X001326Y017180D03*
X001326Y018555D03*
X002034Y018555D03*
X002951Y018555D03*
X003659Y018555D03*
X003659Y019930D03*
X002951Y019930D03*
X002034Y019930D03*
X001326Y019930D03*
D15*
X007680Y005201D03*
X007680Y005909D03*
X008680Y005909D03*
X008680Y005201D03*
X011055Y010701D03*
X011055Y011409D03*
X011555Y015701D03*
X011555Y016409D03*
X013805Y016201D03*
X013805Y016909D03*
X007430Y019576D03*
X007430Y020284D03*
D16*
X012180Y013823D03*
X012180Y012287D03*
D17*
X018761Y010212D03*
X019115Y015409D03*
D18*
X013603Y013205D03*
X013603Y010842D03*
D19*
X017461Y013165D03*
X017619Y012732D03*
X017776Y012299D03*
X017619Y011866D03*
X017776Y011433D03*
X017619Y011000D03*
X017619Y010567D03*
X017619Y013598D03*
M02*
