G75*
G70*
%OFA0B0*%
%FSLAX24Y24*%
%IPPOS*%
%LPD*%
%AMOC8*
5,1,8,0,0,1.08239X$1,22.5*
%
%ADD10R,0.0510X0.0160*%
%ADD11R,0.0160X0.0510*%
%ADD12C,0.1370*%
%ADD13R,0.1241X0.0414*%
%ADD14R,0.0560X0.0560*%
%ADD15R,0.0375X0.0532*%
%ADD16R,0.0532X0.0375*%
%ADD17C,0.0540*%
%ADD18R,0.1399X0.0808*%
%ADD19OC8,0.0660*%
%ADD20C,0.0560*%
%ADD21R,0.0808X0.0611*%
%ADD22R,0.0611X0.0769*%
%ADD23R,0.0651X0.0336*%
%ADD24C,0.0820*%
D10*
X008302Y018366D03*
X008302Y018563D03*
X008302Y018760D03*
X008302Y018957D03*
X008302Y019153D03*
X008302Y019350D03*
X008302Y019547D03*
X008302Y019744D03*
X011058Y019744D03*
X011058Y019547D03*
X011058Y019350D03*
X011058Y019153D03*
X011058Y018957D03*
X011058Y018760D03*
X011058Y018563D03*
X011058Y018366D03*
D11*
X010369Y017677D03*
X010172Y017677D03*
X009975Y017677D03*
X009778Y017677D03*
X009582Y017677D03*
X009385Y017677D03*
X009188Y017677D03*
X008991Y017677D03*
X008991Y020433D03*
X009188Y020433D03*
X009385Y020433D03*
X009582Y020433D03*
X009778Y020433D03*
X009975Y020433D03*
X010172Y020433D03*
X010369Y020433D03*
D12*
X015999Y021640D03*
X015999Y016470D03*
D13*
X014341Y017677D03*
X014341Y018661D03*
X014341Y019449D03*
X014341Y020433D03*
D14*
X014580Y023430D03*
X013780Y023430D03*
X012680Y016455D03*
X012680Y015655D03*
D15*
X012659Y017430D03*
X011951Y017430D03*
X012326Y018555D03*
X013034Y018555D03*
X013034Y019680D03*
X012326Y019680D03*
X012076Y023430D03*
X011284Y023430D03*
X010576Y023430D03*
X012784Y023430D03*
X008034Y016680D03*
X007326Y016680D03*
X007326Y015555D03*
X008034Y015555D03*
X003659Y016305D03*
X002951Y016305D03*
X002034Y017180D03*
X001326Y017180D03*
X001326Y018555D03*
X002034Y018555D03*
X002951Y018555D03*
X003659Y018555D03*
X003659Y019930D03*
X002951Y019930D03*
X002034Y019930D03*
X001326Y019930D03*
D16*
X007430Y019576D03*
X007430Y020284D03*
X011555Y016409D03*
X011555Y015701D03*
X013805Y016201D03*
X013805Y016909D03*
X011055Y011409D03*
X011055Y010701D03*
X008680Y005909D03*
X008680Y005201D03*
X007680Y005201D03*
X007680Y005909D03*
D17*
X010680Y021805D03*
X012680Y021805D03*
D18*
X012180Y013823D03*
X012180Y012287D03*
D19*
X002180Y002555D03*
X002180Y003555D03*
X003180Y003555D03*
X003180Y002555D03*
X004180Y002555D03*
X004180Y003555D03*
X005180Y003555D03*
X005180Y002555D03*
X006180Y002555D03*
X006180Y003555D03*
X007180Y003555D03*
X007180Y002555D03*
X008180Y002555D03*
X008180Y003555D03*
X009180Y003555D03*
X009180Y002555D03*
X008680Y022235D03*
X008680Y023235D03*
X007680Y023235D03*
X007680Y022235D03*
X006680Y022235D03*
X006680Y023235D03*
X005680Y023235D03*
X005680Y022235D03*
X004680Y022235D03*
X004680Y023235D03*
X003680Y023235D03*
X003680Y022235D03*
X002680Y022235D03*
X002680Y023235D03*
D20*
X001349Y014973D03*
X001349Y014186D03*
X001349Y013399D03*
X001349Y012611D03*
X001349Y011824D03*
X001349Y011036D03*
X001349Y010249D03*
X001349Y009461D03*
X001349Y008674D03*
X001349Y007887D03*
X010011Y007887D03*
X010011Y008674D03*
X010011Y009461D03*
X010011Y010249D03*
X010011Y011036D03*
X010011Y011824D03*
X010011Y012611D03*
X010011Y013399D03*
X010011Y014186D03*
X010011Y014973D03*
D21*
X018761Y010212D03*
X019115Y015409D03*
D22*
X013603Y013205D03*
X013603Y010842D03*
D23*
X017461Y013165D03*
X017619Y012732D03*
X017776Y012299D03*
X017619Y011866D03*
X017776Y011433D03*
X017619Y011000D03*
X017619Y010567D03*
X017619Y013598D03*
D24*
X008180Y001555D03*
X007180Y001555D03*
X006180Y001555D03*
X005180Y001555D03*
X004180Y001555D03*
X003180Y001555D03*
M02*
