%
M48
M72
T01C0.0157
T02C0.0276
T03C0.0320
T04C0.0394
T05C0.0400
T06C0.0910
%
T01
X5737Y11305
X5237Y12555
X6237Y13555
X5737Y14055
X10362Y12055
X12737Y12055
X12737Y14805
X12737Y17055
X12237Y20055
X11737Y20055
X11237Y20305
X10237Y21555
X10362Y22680
X13987Y20680
X17487Y21180
X14487Y6555
X13237Y5805
X14674Y4868
X15237Y4868
X15987Y5680
X18237Y4305
X18737Y1555
T02
X20318Y7887
X20318Y8674
X20318Y9461
X20318Y10249
X20318Y11036
X20318Y11824
X20318Y12611
X20318Y13399
X20318Y14186
X20318Y14973
X11656Y14973
X11656Y14186
X11656Y13399
X11656Y12611
X11656Y11824
X11656Y11036
X11656Y10249
X11656Y9461
X11656Y8674
X11656Y7887
T03
X10737Y16805
X8737Y16805
T04
X12737Y1555
X13737Y1555
X14737Y1555
X15737Y1555
X16737Y1555
X17737Y1555
T05
X17737Y2555
X17737Y3555
X16737Y3555
X16737Y2555
X15737Y2555
X15737Y3555
X14737Y3555
X14737Y2555
X13737Y2555
X13737Y3555
X12737Y3555
X12737Y2555
X11737Y2555
X11737Y3555
X18737Y3555
X18737Y2555
X18237Y22235
X18237Y23235
X17237Y23235
X17237Y22235
X16237Y22235
X16237Y23235
X15237Y23235
X15237Y22235
X14237Y22235
X14237Y23235
X13237Y23235
X13237Y22235
X12237Y22235
X12237Y23235
T06
X5668Y22390
X5668Y17220
M30
