G75*
G70*
%OFA0B0*%
%FSLAX24Y24*%
%IPPOS*%
%LPD*%
%AMOC8*
5,1,8,0,0,1.08239X$1,22.5*
%
%ADD10C,0.0050*%
%ADD11C,0.0060*%
%ADD12C,0.0100*%
%ADD13C,0.0080*%
D10*
X003026Y010043D02*
X008221Y010043D01*
X008221Y011930D01*
X008699Y012518D02*
X008880Y012518D01*
X008789Y012518D02*
X008789Y012788D01*
X008699Y012698D01*
X008994Y012743D02*
X009039Y012788D01*
X009129Y012788D01*
X009174Y012743D01*
X008994Y012563D01*
X009039Y012518D01*
X009129Y012518D01*
X009174Y012563D01*
X009174Y012743D01*
X009289Y012788D02*
X009289Y012518D01*
X009289Y012608D02*
X009424Y012698D01*
X009289Y012608D02*
X009424Y012518D01*
X009699Y012518D02*
X009880Y012518D01*
X009789Y012518D02*
X009789Y012788D01*
X009699Y012698D01*
X009994Y012743D02*
X010039Y012788D01*
X010129Y012788D01*
X010174Y012743D01*
X009994Y012563D01*
X010039Y012518D01*
X010129Y012518D01*
X010174Y012563D01*
X010174Y012743D01*
X010289Y012743D02*
X010334Y012788D01*
X010424Y012788D01*
X010469Y012743D01*
X010289Y012563D01*
X010334Y012518D01*
X010424Y012518D01*
X010469Y012563D01*
X010469Y012743D01*
X010583Y012698D02*
X010718Y012698D01*
X010763Y012653D01*
X010763Y012518D01*
X010878Y012518D02*
X010878Y012788D01*
X011058Y012788D01*
X010968Y012653D02*
X010878Y012653D01*
X010583Y012698D02*
X010583Y012518D01*
X010289Y012563D02*
X010289Y012743D01*
X009994Y012743D02*
X009994Y012563D01*
X008994Y012563D02*
X008994Y012743D01*
X008221Y012887D02*
X008221Y014305D01*
X008637Y014368D02*
X008682Y014413D01*
X008772Y014413D01*
X008817Y014368D01*
X008817Y014323D01*
X008637Y014143D01*
X008817Y014143D01*
X008932Y014143D02*
X009112Y014323D01*
X009112Y014368D01*
X009067Y014413D01*
X008977Y014413D01*
X008932Y014368D01*
X008932Y014143D02*
X009112Y014143D01*
X009226Y014143D02*
X009361Y014143D01*
X009406Y014188D01*
X009406Y014278D01*
X009361Y014323D01*
X009226Y014323D01*
X009226Y014052D01*
X009521Y014143D02*
X009521Y014413D01*
X009701Y014413D01*
X009611Y014278D02*
X009521Y014278D01*
X009887Y014368D02*
X009932Y014413D01*
X010022Y014413D01*
X010067Y014368D01*
X010067Y014323D01*
X009887Y014143D01*
X010067Y014143D01*
X010182Y014143D02*
X010362Y014323D01*
X010362Y014368D01*
X010317Y014413D01*
X010227Y014413D01*
X010182Y014368D01*
X010182Y014143D02*
X010362Y014143D01*
X010476Y014143D02*
X010611Y014143D01*
X010656Y014188D01*
X010656Y014278D01*
X010611Y014323D01*
X010476Y014323D01*
X010476Y014052D01*
X010771Y014143D02*
X010771Y014413D01*
X010951Y014413D01*
X010861Y014278D02*
X010771Y014278D01*
X010540Y016080D02*
X010360Y016080D01*
X010540Y016260D01*
X010360Y016260D01*
X010246Y016215D02*
X010065Y016215D01*
X010065Y016080D02*
X010065Y016350D01*
X009951Y016350D02*
X009951Y016080D01*
X009771Y016080D02*
X009771Y016350D01*
X009861Y016260D01*
X009951Y016350D01*
X010246Y016350D02*
X010246Y016080D01*
X009362Y016080D02*
X009182Y016080D01*
X009362Y016260D01*
X009362Y016305D01*
X009317Y016350D01*
X009227Y016350D01*
X009182Y016305D01*
X008977Y016350D02*
X008977Y016080D01*
X008887Y016080D02*
X009067Y016080D01*
X008887Y016260D02*
X008977Y016350D01*
X008221Y015555D02*
X008221Y015231D01*
X008221Y015555D02*
X003364Y015555D01*
X002906Y015042D02*
X002906Y011192D01*
X002595Y011145D02*
X002595Y011280D01*
X002324Y011280D01*
X002324Y011145D01*
X002369Y011100D01*
X002550Y011100D01*
X002595Y011145D01*
X002410Y010792D02*
X002369Y010797D01*
X002328Y010806D01*
X002289Y010818D01*
X002250Y010834D01*
X002214Y010853D01*
X002179Y010875D01*
X002146Y010900D01*
X002115Y010927D01*
X002087Y010958D01*
X002062Y010991D01*
X002039Y011025D01*
X002020Y011062D01*
X002004Y011100D01*
X001992Y011139D01*
X001983Y011180D01*
X001977Y011221D01*
X001975Y011262D01*
X001977Y011303D01*
X001977Y014925D01*
X001623Y014925D02*
X001625Y014966D01*
X001630Y015007D01*
X001639Y015047D01*
X001651Y015086D01*
X001667Y015124D01*
X001686Y015161D01*
X001708Y015196D01*
X001733Y015228D01*
X001761Y015259D01*
X001792Y015287D01*
X001824Y015312D01*
X001859Y015334D01*
X001896Y015353D01*
X001934Y015369D01*
X001973Y015381D01*
X002013Y015390D01*
X002054Y015395D01*
X002095Y015397D01*
X002449Y015397D02*
X002408Y015395D01*
X002367Y015390D01*
X002327Y015381D01*
X002288Y015369D01*
X002250Y015353D01*
X002213Y015334D01*
X002178Y015312D01*
X002146Y015287D01*
X002115Y015259D01*
X002087Y015228D01*
X002062Y015196D01*
X002040Y015161D01*
X002021Y015124D01*
X002005Y015086D01*
X001993Y015047D01*
X001984Y015007D01*
X001979Y014966D01*
X001977Y014925D01*
X002324Y014718D02*
X002595Y014718D01*
X002505Y014627D01*
X002595Y014537D01*
X002324Y014537D01*
X002324Y014423D02*
X002324Y014333D01*
X002324Y014378D02*
X002595Y014378D01*
X002595Y014423D02*
X002595Y014333D01*
X002550Y014226D02*
X002369Y014226D01*
X002324Y014181D01*
X002324Y014091D01*
X002369Y014046D01*
X002324Y013932D02*
X002595Y013932D01*
X002595Y013797D01*
X002550Y013752D01*
X002459Y013752D01*
X002414Y013797D01*
X002414Y013932D01*
X002414Y013842D02*
X002324Y013752D01*
X002369Y013637D02*
X002324Y013592D01*
X002324Y013502D01*
X002369Y013457D01*
X002550Y013457D01*
X002595Y013502D01*
X002595Y013592D01*
X002550Y013637D01*
X002369Y013637D01*
X002550Y014046D02*
X002595Y014091D01*
X002595Y014181D01*
X002550Y014226D01*
X001623Y014925D02*
X001623Y011303D01*
X001621Y011262D01*
X001623Y011221D01*
X001629Y011180D01*
X001638Y011139D01*
X001650Y011100D01*
X001666Y011062D01*
X001685Y011025D01*
X001708Y010991D01*
X001733Y010958D01*
X001761Y010927D01*
X001792Y010900D01*
X001825Y010875D01*
X001860Y010853D01*
X001896Y010834D01*
X001935Y010818D01*
X001974Y010806D01*
X002015Y010797D01*
X002056Y010792D01*
X002276Y010562D02*
X002325Y010564D01*
X002375Y010570D01*
X002423Y010579D01*
X002471Y010593D01*
X002517Y010610D01*
X002562Y010631D01*
X002605Y010655D01*
X002646Y010682D01*
X002685Y010713D01*
X002721Y010747D01*
X002755Y010783D01*
X002786Y010822D01*
X002813Y010863D01*
X002837Y010906D01*
X002858Y010951D01*
X002875Y010997D01*
X002889Y011045D01*
X002898Y011093D01*
X002904Y011143D01*
X002906Y011192D01*
X002595Y011439D02*
X002595Y011575D01*
X002324Y011575D01*
X002414Y011575D02*
X002414Y011439D01*
X002459Y011394D01*
X002550Y011394D01*
X002595Y011439D01*
X002414Y011484D02*
X002324Y011394D01*
X002324Y011689D02*
X002505Y011689D01*
X002595Y011779D01*
X002505Y011869D01*
X002324Y011869D01*
X002369Y011984D02*
X002324Y012029D01*
X002324Y012119D01*
X002369Y012164D01*
X002550Y012164D01*
X002595Y012119D01*
X002595Y012029D01*
X002550Y011984D01*
X002459Y011869D02*
X002459Y011689D01*
X002369Y012573D02*
X002550Y012573D01*
X002595Y012618D01*
X002595Y012753D01*
X002324Y012753D01*
X002324Y012618D01*
X002369Y012573D01*
X002369Y012868D02*
X002324Y012913D01*
X002324Y013003D01*
X002369Y013048D01*
X002459Y013003D02*
X002459Y012913D01*
X002414Y012868D01*
X002369Y012868D01*
X002459Y013003D02*
X002505Y013048D01*
X002550Y013048D01*
X002595Y013003D01*
X002595Y012913D01*
X002550Y012868D01*
X000560Y010792D02*
X000519Y010797D01*
X000478Y010806D01*
X000439Y010818D01*
X000400Y010834D01*
X000364Y010853D01*
X000329Y010875D01*
X000296Y010900D01*
X000265Y010927D01*
X000237Y010958D01*
X000212Y010991D01*
X000189Y011025D01*
X000170Y011062D01*
X000154Y011100D01*
X000142Y011139D01*
X000133Y011180D01*
X000127Y011221D01*
X000125Y011262D01*
X000127Y011303D01*
X000127Y014925D01*
X000129Y014966D01*
X000134Y015007D01*
X000143Y015047D01*
X000155Y015086D01*
X000171Y015124D01*
X000190Y015161D01*
X000212Y015196D01*
X000237Y015228D01*
X000265Y015259D01*
X000296Y015287D01*
X000328Y015312D01*
X000363Y015334D01*
X000400Y015353D01*
X000438Y015369D01*
X000477Y015381D01*
X000517Y015390D01*
X000558Y015395D01*
X000599Y015397D01*
X004574Y016080D02*
X004574Y016350D01*
X004755Y016350D01*
X004664Y016215D02*
X004574Y016215D01*
X004869Y016215D02*
X004914Y016260D01*
X005004Y016260D01*
X005049Y016215D01*
X005049Y016170D01*
X004869Y016170D01*
X004869Y016125D02*
X004869Y016215D01*
X004869Y016125D02*
X004914Y016080D01*
X005004Y016080D01*
X005164Y016080D02*
X005164Y016260D01*
X005164Y016170D02*
X005254Y016260D01*
X005299Y016260D01*
X005409Y016260D02*
X005409Y016080D01*
X005409Y016170D02*
X005499Y016260D01*
X005544Y016260D01*
X005655Y016260D02*
X005700Y016260D01*
X005700Y016080D01*
X005655Y016080D02*
X005745Y016080D01*
X005896Y016125D02*
X005896Y016305D01*
X005851Y016260D02*
X005941Y016260D01*
X006048Y016215D02*
X006093Y016260D01*
X006183Y016260D01*
X006228Y016215D01*
X006228Y016170D01*
X006048Y016170D01*
X006048Y016125D02*
X006048Y016215D01*
X006048Y016125D02*
X006093Y016080D01*
X006183Y016080D01*
X005941Y016080D02*
X005896Y016125D01*
X005700Y016350D02*
X005700Y016395D01*
X008449Y018750D02*
X008494Y018705D01*
X008584Y018705D01*
X008630Y018750D01*
X008630Y018795D01*
X008584Y018840D01*
X008539Y018840D01*
X008584Y018840D02*
X008630Y018885D01*
X008630Y018930D01*
X008584Y018975D01*
X008494Y018975D01*
X008449Y018930D01*
X008744Y018930D02*
X008789Y018975D01*
X008879Y018975D01*
X008924Y018930D01*
X008924Y018885D01*
X008879Y018840D01*
X008924Y018795D01*
X008924Y018750D01*
X008879Y018705D01*
X008789Y018705D01*
X008744Y018750D01*
X008834Y018840D02*
X008879Y018840D01*
X009039Y018795D02*
X009174Y018795D01*
X009219Y018840D01*
X009219Y018930D01*
X009174Y018975D01*
X009039Y018975D01*
X009039Y018705D01*
X009129Y018795D02*
X009219Y018705D01*
X009602Y018350D02*
X009512Y018260D01*
X009602Y018350D02*
X009602Y018080D01*
X009512Y018080D02*
X009692Y018080D01*
X009807Y018125D02*
X009807Y018305D01*
X009852Y018350D01*
X009942Y018350D01*
X009987Y018305D01*
X009807Y018125D01*
X009852Y018080D01*
X009942Y018080D01*
X009987Y018125D01*
X009987Y018305D01*
X010101Y018350D02*
X010101Y018080D01*
X010101Y018170D02*
X010236Y018260D01*
X010101Y018170D02*
X010236Y018080D01*
X009219Y019705D02*
X009129Y019795D01*
X009174Y019795D02*
X009039Y019795D01*
X009039Y019705D02*
X009039Y019975D01*
X009174Y019975D01*
X009219Y019930D01*
X009219Y019840D01*
X009174Y019795D01*
X008924Y019795D02*
X008924Y019750D01*
X008879Y019705D01*
X008789Y019705D01*
X008744Y019750D01*
X008630Y019750D02*
X008584Y019705D01*
X008494Y019705D01*
X008449Y019750D01*
X008539Y019840D02*
X008584Y019840D01*
X008630Y019795D01*
X008630Y019750D01*
X008584Y019840D02*
X008630Y019885D01*
X008630Y019930D01*
X008584Y019975D01*
X008494Y019975D01*
X008449Y019930D01*
X008744Y019930D02*
X008789Y019975D01*
X008879Y019975D01*
X008924Y019930D01*
X008924Y019885D01*
X008879Y019840D01*
X008924Y019795D01*
X008879Y019840D02*
X008834Y019840D01*
X008726Y020643D02*
X008726Y020823D01*
X008816Y020823D02*
X008861Y020823D01*
X008816Y020823D02*
X008726Y020733D01*
X008612Y020733D02*
X008432Y020733D01*
X008432Y020778D02*
X008477Y020823D01*
X008567Y020823D01*
X008612Y020778D01*
X008612Y020733D01*
X008567Y020643D02*
X008477Y020643D01*
X008432Y020688D01*
X008432Y020778D01*
X008317Y020913D02*
X008137Y020913D01*
X008137Y020643D01*
X008137Y020778D02*
X008227Y020778D01*
X008972Y020823D02*
X008972Y020643D01*
X008972Y020733D02*
X009062Y020823D01*
X009107Y020823D01*
X009217Y020823D02*
X009262Y020823D01*
X009262Y020643D01*
X009217Y020643D02*
X009307Y020643D01*
X009459Y020688D02*
X009504Y020643D01*
X009459Y020688D02*
X009459Y020868D01*
X009414Y020823D02*
X009504Y020823D01*
X009610Y020778D02*
X009655Y020823D01*
X009745Y020823D01*
X009790Y020778D01*
X009790Y020733D01*
X009610Y020733D01*
X009610Y020688D02*
X009610Y020778D01*
X009610Y020688D02*
X009655Y020643D01*
X009745Y020643D01*
X009262Y020913D02*
X009262Y020958D01*
X008690Y023080D02*
X008690Y023350D01*
X008871Y023350D01*
X008781Y023215D02*
X008690Y023215D01*
X008576Y023215D02*
X008576Y023080D01*
X008576Y023215D02*
X008531Y023260D01*
X008396Y023260D01*
X008396Y023080D01*
X008281Y023125D02*
X008236Y023080D01*
X008146Y023080D01*
X008101Y023125D01*
X008281Y023305D01*
X008281Y023125D01*
X008101Y023125D02*
X008101Y023305D01*
X008146Y023350D01*
X008236Y023350D01*
X008281Y023305D01*
X007987Y023305D02*
X007807Y023125D01*
X007852Y023080D01*
X007942Y023080D01*
X007987Y023125D01*
X007987Y023305D01*
X007942Y023350D01*
X007852Y023350D01*
X007807Y023305D01*
X007807Y023125D01*
X007692Y023080D02*
X007512Y023080D01*
X007602Y023080D02*
X007602Y023350D01*
X007512Y023260D01*
X009699Y023563D02*
X009744Y023518D01*
X009834Y023518D01*
X009880Y023563D01*
X009880Y023653D01*
X009834Y023698D01*
X009789Y023698D01*
X009699Y023653D01*
X009699Y023788D01*
X009880Y023788D01*
X009994Y023743D02*
X009994Y023563D01*
X010174Y023743D01*
X010174Y023563D01*
X010129Y023518D01*
X010039Y023518D01*
X009994Y023563D01*
X009994Y023743D02*
X010039Y023788D01*
X010129Y023788D01*
X010174Y023743D01*
X010289Y023743D02*
X010289Y023563D01*
X010469Y023743D01*
X010469Y023563D01*
X010424Y023518D01*
X010334Y023518D01*
X010289Y023563D01*
X010289Y023743D02*
X010334Y023788D01*
X010424Y023788D01*
X010469Y023743D01*
X010583Y023698D02*
X010628Y023698D01*
X010673Y023653D01*
X010718Y023698D01*
X010763Y023653D01*
X010763Y023518D01*
X010673Y023518D02*
X010673Y023653D01*
X010583Y023698D02*
X010583Y023518D01*
X010878Y023518D02*
X010878Y023698D01*
X010968Y023788D01*
X011058Y023698D01*
X011058Y023518D01*
X011058Y023653D02*
X010878Y023653D01*
X012762Y021350D02*
X012852Y021260D01*
X012942Y021350D01*
X012942Y021080D01*
X013057Y021080D02*
X013057Y021260D01*
X013147Y021350D01*
X013237Y021260D01*
X013237Y021080D01*
X013351Y021080D02*
X013531Y021350D01*
X013646Y021305D02*
X013691Y021350D01*
X013781Y021350D01*
X013826Y021305D01*
X013826Y021260D01*
X013781Y021215D01*
X013826Y021170D01*
X013826Y021125D01*
X013781Y021080D01*
X013691Y021080D01*
X013646Y021125D01*
X013531Y021080D02*
X013351Y021350D01*
X013237Y021215D02*
X013057Y021215D01*
X012762Y021080D02*
X012762Y021350D01*
X013736Y021215D02*
X013781Y021215D01*
X013940Y021215D02*
X014121Y021215D01*
X014076Y021080D02*
X014076Y021350D01*
X013940Y021215D01*
X014235Y021305D02*
X014280Y021350D01*
X014370Y021350D01*
X014415Y021305D01*
X014415Y021260D01*
X014235Y021080D01*
X014415Y021080D01*
X014530Y021080D02*
X014710Y021080D01*
X014620Y021080D02*
X014620Y021350D01*
X014530Y021260D01*
X015387Y020698D02*
X015477Y020788D01*
X015477Y020518D01*
X015387Y020518D02*
X015567Y020518D01*
X015682Y020563D02*
X015682Y020743D01*
X015727Y020788D01*
X015817Y020788D01*
X015862Y020743D01*
X015682Y020563D01*
X015727Y020518D01*
X015817Y020518D01*
X015862Y020563D01*
X015862Y020743D01*
X015976Y020788D02*
X015976Y020518D01*
X015976Y020608D02*
X016111Y020698D01*
X015976Y020608D02*
X016111Y020518D01*
X015976Y019725D02*
X015976Y019455D01*
X015976Y019545D02*
X016111Y019635D01*
X015976Y019545D02*
X016111Y019455D01*
X015862Y019500D02*
X015817Y019455D01*
X015727Y019455D01*
X015682Y019500D01*
X015862Y019680D01*
X015862Y019500D01*
X015862Y019680D02*
X015817Y019725D01*
X015727Y019725D01*
X015682Y019680D01*
X015682Y019500D01*
X015567Y019455D02*
X015387Y019455D01*
X015477Y019455D02*
X015477Y019725D01*
X015387Y019635D01*
X014746Y019038D02*
X014565Y019038D01*
X014565Y018768D01*
X014451Y018768D02*
X014451Y018903D01*
X014406Y018948D01*
X014271Y018948D01*
X014271Y018768D01*
X014156Y018813D02*
X014111Y018768D01*
X014021Y018768D01*
X013976Y018813D01*
X014156Y018993D01*
X014156Y018813D01*
X014156Y018993D02*
X014111Y019038D01*
X014021Y019038D01*
X013976Y018993D01*
X013976Y018813D01*
X013862Y018813D02*
X013862Y018993D01*
X013682Y018813D01*
X013727Y018768D01*
X013817Y018768D01*
X013862Y018813D01*
X013862Y018993D02*
X013817Y019038D01*
X013727Y019038D01*
X013682Y018993D01*
X013682Y018813D01*
X013567Y018768D02*
X013387Y018768D01*
X013477Y018768D02*
X013477Y019038D01*
X013387Y018948D01*
X014565Y018903D02*
X014656Y018903D01*
X018387Y018135D02*
X018477Y018225D01*
X018477Y017955D01*
X018387Y017955D02*
X018567Y017955D01*
X018682Y017955D02*
X018682Y018225D01*
X018817Y018135D02*
X018682Y018045D01*
X018817Y017955D01*
X019324Y017965D02*
X019505Y017965D01*
X019505Y018010D02*
X019505Y017830D01*
X019619Y017830D02*
X019754Y017830D01*
X019799Y017875D01*
X019754Y017920D01*
X019664Y017920D01*
X019619Y017965D01*
X019664Y018010D01*
X019799Y018010D01*
X019914Y017965D02*
X019959Y018010D01*
X020094Y018010D01*
X020049Y017920D02*
X019959Y017920D01*
X019914Y017965D01*
X019914Y017830D02*
X020049Y017830D01*
X020094Y017875D01*
X020049Y017920D01*
X020208Y017875D02*
X020253Y017830D01*
X020343Y017830D01*
X020388Y017875D01*
X020388Y017965D01*
X020343Y018010D01*
X020253Y018010D01*
X020208Y017965D01*
X020208Y017875D01*
X020503Y017875D02*
X020548Y017830D01*
X020683Y017830D01*
X020683Y018010D02*
X020548Y018010D01*
X020503Y017965D01*
X020503Y017875D01*
X019505Y018010D02*
X019414Y018100D01*
X019324Y018010D01*
X019324Y017830D01*
X019449Y019143D02*
X019449Y019413D01*
X019584Y019413D01*
X019630Y019368D01*
X019630Y019278D01*
X019584Y019233D01*
X019449Y019233D01*
X019539Y019233D02*
X019630Y019143D01*
X019744Y019188D02*
X019789Y019143D01*
X019879Y019143D01*
X019924Y019188D01*
X019924Y019233D01*
X019879Y019278D01*
X019789Y019278D01*
X019744Y019323D01*
X019744Y019368D01*
X019789Y019413D01*
X019879Y019413D01*
X019924Y019368D01*
X020039Y019368D02*
X020039Y019323D01*
X020084Y019278D01*
X020174Y019278D01*
X020219Y019233D01*
X020219Y019188D01*
X020174Y019143D01*
X020084Y019143D01*
X020039Y019188D01*
X020039Y019368D02*
X020084Y019413D01*
X020174Y019413D01*
X020219Y019368D01*
X020333Y019413D02*
X020423Y019413D01*
X020378Y019413D02*
X020378Y019143D01*
X020333Y019143D02*
X020423Y019143D01*
X020406Y020455D02*
X020316Y020455D01*
X020271Y020500D01*
X020271Y020590D01*
X020316Y020635D01*
X020406Y020635D01*
X020451Y020590D01*
X020451Y020545D01*
X020271Y020545D01*
X020156Y020500D02*
X020156Y020635D01*
X020156Y020500D02*
X020111Y020455D01*
X020066Y020500D01*
X020021Y020455D01*
X019976Y020500D01*
X019976Y020635D01*
X019862Y020590D02*
X019817Y020635D01*
X019727Y020635D01*
X019682Y020590D01*
X019682Y020500D01*
X019727Y020455D01*
X019817Y020455D01*
X019862Y020500D01*
X019862Y020590D01*
X019567Y020590D02*
X019567Y020680D01*
X019522Y020725D01*
X019387Y020725D01*
X019387Y020455D01*
X019387Y020545D02*
X019522Y020545D01*
X019567Y020590D01*
X018817Y020580D02*
X018682Y020670D01*
X018817Y020760D01*
X018682Y020850D02*
X018682Y020580D01*
X018567Y020580D02*
X018387Y020580D01*
X018477Y020580D02*
X018477Y020850D01*
X018387Y020760D01*
X018539Y019600D02*
X018539Y019330D01*
X018449Y019330D02*
X018630Y019330D01*
X018744Y019330D02*
X018744Y019600D01*
X018879Y019510D02*
X018744Y019420D01*
X018879Y019330D01*
X018539Y019600D02*
X018449Y019510D01*
X020565Y020455D02*
X020565Y020635D01*
X020565Y020545D02*
X020656Y020635D01*
X020701Y020635D01*
X019093Y012620D02*
X019045Y012620D01*
X019093Y012620D02*
X019093Y012330D01*
X019045Y012330D02*
X019142Y012330D01*
X019254Y012378D02*
X019254Y012475D01*
X019302Y012523D01*
X019399Y012523D01*
X019447Y012475D01*
X019447Y012427D01*
X019254Y012427D01*
X019254Y012378D02*
X019302Y012330D01*
X019399Y012330D01*
X019567Y012330D02*
X019567Y012523D01*
X019567Y012427D02*
X019664Y012523D01*
X019712Y012523D01*
X018933Y012330D02*
X018836Y012330D01*
X018885Y012330D02*
X018885Y012620D01*
X018836Y012620D01*
X018717Y012475D02*
X018668Y012523D01*
X018572Y012523D01*
X018523Y012475D01*
X018523Y012378D01*
X018572Y012330D01*
X018668Y012330D01*
X018717Y012378D01*
X018717Y012475D01*
X018407Y012523D02*
X018359Y012523D01*
X018262Y012427D01*
X018262Y012523D02*
X018262Y012330D01*
X018150Y012330D02*
X018102Y012378D01*
X018102Y012572D01*
X018054Y012523D02*
X018150Y012523D01*
X017934Y012475D02*
X017934Y012330D01*
X017934Y012475D02*
X017886Y012523D01*
X017741Y012523D01*
X017741Y012330D01*
X017621Y012378D02*
X017621Y012475D01*
X017573Y012523D01*
X017476Y012523D01*
X017427Y012475D01*
X017427Y012378D01*
X017476Y012330D01*
X017573Y012330D01*
X017621Y012378D01*
X017308Y012378D02*
X017260Y012330D01*
X017163Y012330D01*
X017114Y012378D01*
X017114Y012572D01*
X017163Y012620D01*
X017260Y012620D01*
X017308Y012572D01*
X016689Y012523D02*
X016593Y012523D01*
X016641Y012572D02*
X016641Y012378D01*
X016689Y012330D01*
X016473Y012378D02*
X016425Y012427D01*
X016328Y012427D01*
X016280Y012475D01*
X016328Y012523D01*
X016473Y012523D01*
X016473Y012378D02*
X016425Y012330D01*
X016280Y012330D01*
X016160Y012378D02*
X016160Y012475D01*
X016112Y012523D01*
X016015Y012523D01*
X015967Y012475D01*
X015967Y012378D01*
X016015Y012330D01*
X016112Y012330D01*
X016160Y012378D01*
X015847Y012330D02*
X015847Y012620D01*
X015847Y012475D02*
X015653Y012475D01*
X015653Y012330D02*
X015653Y012620D01*
X015221Y012572D02*
X015221Y012523D01*
X015172Y012475D01*
X015027Y012475D01*
X014908Y012427D02*
X014908Y012378D01*
X014859Y012330D01*
X014763Y012330D01*
X014714Y012378D01*
X014763Y012475D02*
X014714Y012523D01*
X014714Y012572D01*
X014763Y012620D01*
X014859Y012620D01*
X014908Y012572D01*
X014859Y012475D02*
X014908Y012427D01*
X014859Y012475D02*
X014763Y012475D01*
X014595Y012378D02*
X014595Y012620D01*
X014401Y012620D02*
X014401Y012378D01*
X014450Y012330D01*
X014546Y012330D01*
X014595Y012378D01*
X015027Y012330D02*
X015172Y012330D01*
X015221Y012378D01*
X015221Y012427D01*
X015172Y012475D01*
X015221Y012572D02*
X015172Y012620D01*
X015027Y012620D01*
X015027Y012330D01*
X015039Y011725D02*
X015129Y011725D01*
X015084Y011725D02*
X015084Y011455D01*
X015039Y011455D02*
X015129Y011455D01*
X015235Y011500D02*
X015235Y011680D01*
X015280Y011725D01*
X015370Y011725D01*
X015415Y011680D01*
X015415Y011500D01*
X015370Y011455D01*
X015280Y011455D01*
X015235Y011500D01*
X015303Y011100D02*
X015258Y011055D01*
X015258Y011010D01*
X015303Y010965D01*
X015393Y010965D01*
X015438Y010920D01*
X015438Y010875D01*
X015393Y010830D01*
X015303Y010830D01*
X015258Y010875D01*
X015143Y010875D02*
X015143Y011055D01*
X015098Y011100D01*
X015008Y011100D01*
X014963Y011055D01*
X014963Y010875D01*
X015008Y010830D01*
X015098Y010830D01*
X015143Y010875D01*
X015303Y011100D02*
X015393Y011100D01*
X015438Y011055D01*
X015552Y011100D02*
X015642Y011100D01*
X015597Y011100D02*
X015597Y010830D01*
X015552Y010830D02*
X015642Y010830D01*
X015749Y010740D02*
X015839Y010830D01*
X015794Y010830D01*
X015794Y010875D01*
X015839Y010875D01*
X015839Y010830D01*
X016240Y010875D02*
X016285Y010830D01*
X016375Y010830D01*
X016420Y010875D01*
X016420Y010920D01*
X016375Y010965D01*
X016285Y010965D01*
X016240Y011010D01*
X016240Y011055D01*
X016285Y011100D01*
X016375Y011100D01*
X016420Y011055D01*
X016534Y011055D02*
X016579Y011100D01*
X016669Y011100D01*
X016714Y011055D01*
X016829Y011100D02*
X016829Y010830D01*
X016829Y010920D02*
X017009Y011100D01*
X016874Y010965D02*
X017009Y010830D01*
X017124Y010740D02*
X017214Y010830D01*
X017169Y010830D01*
X017169Y010875D01*
X017214Y010875D01*
X017214Y010830D01*
X017615Y010875D02*
X017660Y010830D01*
X017750Y010830D01*
X017795Y010875D01*
X017795Y010920D01*
X017750Y010965D01*
X017660Y010965D01*
X017615Y011010D01*
X017615Y011055D01*
X017660Y011100D01*
X017750Y011100D01*
X017795Y011055D01*
X017909Y010965D02*
X017954Y011010D01*
X018090Y011010D01*
X018090Y011100D02*
X018090Y010830D01*
X017954Y010830D01*
X017909Y010875D01*
X017909Y010965D01*
X018179Y011200D02*
X017590Y011200D01*
X017641Y011455D02*
X017822Y011635D01*
X017822Y011680D01*
X017777Y011725D01*
X017687Y011725D01*
X017641Y011680D01*
X017641Y011455D02*
X017822Y011455D01*
X017936Y011365D02*
X018026Y011455D01*
X017981Y011455D01*
X017981Y011500D01*
X018026Y011500D01*
X018026Y011455D01*
X018427Y011500D02*
X018472Y011455D01*
X018562Y011455D01*
X018607Y011500D01*
X018607Y011545D01*
X018562Y011590D01*
X018517Y011590D01*
X018562Y011590D02*
X018607Y011635D01*
X018607Y011680D01*
X018562Y011725D01*
X018472Y011725D01*
X018427Y011680D01*
X018767Y011500D02*
X018767Y011455D01*
X018812Y011455D01*
X018812Y011500D01*
X018767Y011500D01*
X018812Y011455D02*
X018722Y011365D01*
X018670Y011200D02*
X019554Y011200D01*
X019579Y011100D02*
X019624Y011100D01*
X019669Y011055D01*
X019669Y011010D01*
X019714Y010965D01*
X019669Y010920D01*
X019669Y010875D01*
X019624Y010830D01*
X019579Y010830D01*
X019465Y010875D02*
X019420Y010830D01*
X019284Y010830D01*
X019284Y011100D01*
X019420Y011100D01*
X019465Y011055D01*
X019465Y011010D01*
X019420Y010965D01*
X019284Y010965D01*
X019170Y010920D02*
X019170Y010875D01*
X019125Y010830D01*
X019035Y010830D01*
X018990Y010875D01*
X019035Y010965D02*
X019125Y010965D01*
X019170Y010920D01*
X019170Y011055D02*
X019125Y011100D01*
X019035Y011100D01*
X018990Y011055D01*
X018990Y011010D01*
X019035Y010965D01*
X018875Y010875D02*
X018875Y011100D01*
X018695Y011100D02*
X018695Y010875D01*
X018740Y010830D01*
X018830Y010830D01*
X018875Y010875D01*
X019420Y010965D02*
X019465Y010920D01*
X019465Y010875D01*
X019508Y011455D02*
X019553Y011455D01*
X019598Y011500D01*
X019598Y011545D01*
X019643Y011590D01*
X019598Y011635D01*
X019598Y011680D01*
X019553Y011725D01*
X019508Y011725D01*
X019348Y011725D02*
X019348Y011455D01*
X019393Y011590D02*
X019213Y011590D01*
X019348Y011725D01*
X018294Y010875D02*
X018249Y010875D01*
X018249Y010830D01*
X018294Y010830D01*
X018294Y010875D01*
X018294Y010830D02*
X018204Y010740D01*
X017240Y011455D02*
X017195Y011455D01*
X017195Y011500D01*
X017240Y011500D01*
X017240Y011455D01*
X017150Y011365D01*
X017036Y011455D02*
X016856Y011455D01*
X016946Y011455D02*
X016946Y011725D01*
X016856Y011635D01*
X016455Y011500D02*
X016410Y011500D01*
X016410Y011455D01*
X016455Y011455D01*
X016455Y011500D01*
X016455Y011455D02*
X016365Y011365D01*
X016250Y011500D02*
X016205Y011455D01*
X016115Y011455D01*
X016070Y011500D01*
X016250Y011680D01*
X016205Y011725D01*
X016115Y011725D01*
X016070Y011680D01*
X016070Y011500D01*
X015960Y011455D02*
X015915Y011455D01*
X015870Y011500D01*
X015870Y011545D01*
X015824Y011590D01*
X015870Y011635D01*
X015870Y011680D01*
X015915Y011725D01*
X015960Y011725D01*
X016250Y011680D02*
X016250Y011500D01*
X016534Y011055D02*
X016534Y010875D01*
X016579Y010830D01*
X016669Y010830D01*
X016714Y010875D01*
X016759Y010215D02*
X016716Y010172D01*
X016759Y010215D02*
X016846Y010215D01*
X016890Y010172D01*
X016890Y010128D01*
X016716Y009955D01*
X016890Y009955D01*
X016604Y009955D02*
X016431Y009955D01*
X016517Y009955D02*
X016517Y010215D01*
X016431Y010128D01*
X016319Y010172D02*
X016145Y009998D01*
X016189Y009955D01*
X016275Y009955D01*
X016319Y009998D01*
X016319Y010172D01*
X016275Y010215D01*
X016189Y010215D01*
X016145Y010172D01*
X016145Y009998D01*
X016033Y009955D02*
X015860Y009955D01*
X016033Y010128D01*
X016033Y010172D01*
X015990Y010215D01*
X015903Y010215D01*
X015860Y010172D01*
X015471Y009998D02*
X015427Y009998D01*
X015427Y009955D01*
X015471Y009955D01*
X015471Y009998D01*
X015471Y009955D02*
X015384Y009868D01*
X015272Y009955D02*
X015272Y010085D01*
X015229Y010128D01*
X015099Y010128D01*
X015099Y009955D01*
X014987Y009998D02*
X014987Y010085D01*
X014943Y010128D01*
X014857Y010128D01*
X014813Y010085D01*
X014813Y009998D01*
X014857Y009955D01*
X014943Y009955D01*
X014987Y009998D01*
X014710Y009955D02*
X014666Y009998D01*
X014666Y010172D01*
X014623Y010128D02*
X014710Y010128D01*
X014511Y010128D02*
X014381Y010128D01*
X014337Y010085D01*
X014381Y010042D01*
X014468Y010042D01*
X014511Y009998D01*
X014468Y009955D01*
X014337Y009955D01*
X014225Y010042D02*
X014052Y010042D01*
X014052Y010085D02*
X014095Y010128D01*
X014182Y010128D01*
X014225Y010085D01*
X014225Y010042D01*
X014182Y009955D02*
X014095Y009955D01*
X014052Y009998D01*
X014052Y010085D01*
X013940Y009955D02*
X013940Y010215D01*
X013767Y010215D02*
X013767Y009955D01*
X013853Y010042D01*
X013940Y009955D01*
X013369Y010042D02*
X013196Y010042D01*
X013196Y010085D02*
X013239Y010128D01*
X013326Y010128D01*
X013369Y010085D01*
X013369Y010042D01*
X013326Y009955D02*
X013239Y009955D01*
X013196Y009998D01*
X013196Y010085D01*
X013088Y010128D02*
X012958Y010042D01*
X013088Y009955D01*
X012958Y009955D02*
X012958Y010215D01*
X012846Y010128D02*
X012846Y009955D01*
X012716Y009955D01*
X012672Y009998D01*
X012672Y010128D01*
X012560Y009955D02*
X012387Y009955D01*
X012387Y010215D01*
X012442Y010920D02*
X012262Y010920D01*
X012262Y011010D02*
X012442Y011010D01*
X012851Y010965D02*
X012896Y010920D01*
X012896Y010875D01*
X012941Y010830D01*
X012986Y010830D01*
X013097Y010830D02*
X013097Y011100D01*
X013187Y011010D01*
X013277Y011100D01*
X013277Y010830D01*
X013391Y010830D02*
X013481Y010830D01*
X013436Y010830D02*
X013436Y011100D01*
X013391Y011100D02*
X013481Y011100D01*
X013588Y011055D02*
X013633Y011100D01*
X013723Y011100D01*
X013768Y011055D01*
X013723Y010965D02*
X013768Y010920D01*
X013768Y010875D01*
X013723Y010830D01*
X013633Y010830D01*
X013588Y010875D01*
X013633Y010965D02*
X013723Y010965D01*
X013633Y010965D02*
X013588Y011010D01*
X013588Y011055D01*
X013882Y011055D02*
X013882Y010875D01*
X013927Y010830D01*
X014018Y010830D01*
X014063Y010875D01*
X014063Y011055D01*
X014018Y011100D01*
X013927Y011100D01*
X013882Y011055D01*
X014222Y010875D02*
X014222Y010830D01*
X014267Y010830D01*
X014267Y010875D01*
X014222Y010875D01*
X014267Y010830D02*
X014177Y010740D01*
X014668Y010830D02*
X014668Y011100D01*
X014758Y011010D01*
X014848Y011100D01*
X014848Y010830D01*
X014744Y011455D02*
X014744Y011725D01*
X014879Y011725D01*
X014924Y011680D01*
X014924Y011590D01*
X014879Y011545D01*
X014744Y011545D01*
X014630Y011500D02*
X014630Y011590D01*
X014540Y011590D01*
X014630Y011500D02*
X014585Y011455D01*
X014494Y011455D01*
X014449Y011500D01*
X014449Y011680D01*
X014494Y011725D01*
X014585Y011725D01*
X014630Y011680D01*
X014040Y011680D02*
X013860Y011500D01*
X013860Y011455D01*
X013746Y011455D02*
X013565Y011455D01*
X013656Y011455D02*
X013656Y011725D01*
X013565Y011635D01*
X013451Y011635D02*
X013406Y011590D01*
X013451Y011545D01*
X013451Y011500D01*
X013406Y011455D01*
X013316Y011455D01*
X013271Y011500D01*
X013156Y011455D02*
X012976Y011455D01*
X013156Y011635D01*
X013156Y011680D01*
X013111Y011725D01*
X013021Y011725D01*
X012976Y011680D01*
X012862Y011680D02*
X012862Y011590D01*
X012817Y011545D01*
X012682Y011545D01*
X012772Y011545D02*
X012862Y011455D01*
X012682Y011455D02*
X012682Y011725D01*
X012817Y011725D01*
X012862Y011680D01*
X012567Y011635D02*
X012567Y011455D01*
X012567Y011590D02*
X012387Y011590D01*
X012387Y011635D02*
X012477Y011725D01*
X012567Y011635D01*
X012387Y011635D02*
X012387Y011455D01*
X012896Y011055D02*
X012896Y011010D01*
X012851Y010965D01*
X012896Y011055D02*
X012941Y011100D01*
X012986Y011100D01*
X013361Y011590D02*
X013406Y011590D01*
X013451Y011635D02*
X013451Y011680D01*
X013406Y011725D01*
X013316Y011725D01*
X013271Y011680D01*
X013294Y012233D02*
X013342Y012282D01*
X013342Y012523D01*
X013197Y012523D01*
X013149Y012475D01*
X013149Y012378D01*
X013197Y012330D01*
X013342Y012330D01*
X013294Y012233D02*
X013246Y012233D01*
X013029Y012330D02*
X012884Y012330D01*
X012836Y012378D01*
X012884Y012427D01*
X013029Y012427D01*
X013029Y012475D02*
X013029Y012330D01*
X013029Y012475D02*
X012981Y012523D01*
X012884Y012523D01*
X012720Y012523D02*
X012672Y012523D01*
X012575Y012427D01*
X012575Y012523D02*
X012575Y012330D01*
X012455Y012378D02*
X012455Y012572D01*
X012407Y012620D01*
X012262Y012620D01*
X012262Y012330D01*
X012407Y012330D01*
X012455Y012378D01*
X013462Y012378D02*
X013510Y012330D01*
X013607Y012330D01*
X013655Y012378D01*
X013655Y012475D01*
X013607Y012523D01*
X013510Y012523D01*
X013462Y012475D01*
X013462Y012378D01*
X013775Y012330D02*
X013775Y012523D01*
X013920Y012523D01*
X013969Y012475D01*
X013969Y012330D01*
X014040Y011725D02*
X013860Y011725D01*
X014040Y011725D02*
X014040Y011680D01*
X014395Y007705D02*
X014395Y007455D01*
X014270Y007455D01*
X014228Y007497D01*
X014228Y007580D01*
X014270Y007622D01*
X014395Y007622D01*
X014119Y007580D02*
X014119Y007538D01*
X013952Y007538D01*
X013952Y007497D02*
X013952Y007580D01*
X013994Y007622D01*
X014077Y007622D01*
X014119Y007580D01*
X014077Y007455D02*
X013994Y007455D01*
X013952Y007497D01*
X013843Y007497D02*
X013801Y007538D01*
X013718Y007538D01*
X013676Y007580D01*
X013718Y007622D01*
X013843Y007622D01*
X013843Y007497D02*
X013801Y007455D01*
X013676Y007455D01*
X013567Y007455D02*
X013441Y007455D01*
X013400Y007497D01*
X013441Y007538D01*
X013567Y007538D01*
X013567Y007580D02*
X013567Y007455D01*
X013567Y007580D02*
X013525Y007622D01*
X013441Y007622D01*
X013290Y007580D02*
X013290Y007538D01*
X013124Y007538D01*
X013124Y007497D02*
X013124Y007580D01*
X013165Y007622D01*
X013249Y007622D01*
X013290Y007580D01*
X013249Y007455D02*
X013165Y007455D01*
X013124Y007497D01*
X013023Y007455D02*
X012939Y007455D01*
X012981Y007455D02*
X012981Y007705D01*
X012939Y007705D01*
X012830Y007580D02*
X012830Y007538D01*
X012663Y007538D01*
X012663Y007497D02*
X012663Y007580D01*
X012705Y007622D01*
X012788Y007622D01*
X012830Y007580D01*
X012788Y007455D02*
X012705Y007455D01*
X012663Y007497D01*
X012554Y007455D02*
X012470Y007538D01*
X012512Y007538D02*
X012387Y007538D01*
X012387Y007455D02*
X012387Y007705D01*
X012512Y007705D01*
X012554Y007664D01*
X012554Y007580D01*
X012512Y007538D01*
X012523Y007122D02*
X012564Y007122D01*
X012523Y007122D02*
X012439Y007038D01*
X012439Y006955D02*
X012439Y007122D01*
X012330Y007080D02*
X012330Y006955D01*
X012205Y006955D01*
X012163Y006997D01*
X012205Y007038D01*
X012330Y007038D01*
X012330Y007080D02*
X012288Y007122D01*
X012205Y007122D01*
X012054Y007080D02*
X011887Y007080D01*
X011887Y006955D02*
X011887Y007205D01*
X012054Y007205D02*
X012054Y006955D01*
X012670Y006997D02*
X012670Y007080D01*
X012711Y007122D01*
X012836Y007122D01*
X012836Y007205D02*
X012836Y006955D01*
X012711Y006955D01*
X012670Y006997D01*
X012946Y006997D02*
X012987Y006955D01*
X013029Y006997D01*
X013071Y006955D01*
X013113Y006997D01*
X013113Y007122D01*
X013264Y007122D02*
X013347Y007122D01*
X013389Y007080D01*
X013389Y006955D01*
X013264Y006955D01*
X013222Y006997D01*
X013264Y007038D01*
X013389Y007038D01*
X013498Y007038D02*
X013582Y007122D01*
X013623Y007122D01*
X013728Y007080D02*
X013770Y007122D01*
X013854Y007122D01*
X013895Y007080D01*
X013895Y007038D01*
X013728Y007038D01*
X013728Y006997D02*
X013728Y007080D01*
X013728Y006997D02*
X013770Y006955D01*
X013854Y006955D01*
X013498Y006955D02*
X013498Y007122D01*
X012946Y007122D02*
X012946Y006997D01*
X014281Y006955D02*
X014448Y006955D01*
X014557Y006955D02*
X014641Y006955D01*
X014599Y006955D02*
X014599Y007122D01*
X014557Y007122D01*
X014599Y007205D02*
X014599Y007247D01*
X014741Y007080D02*
X014741Y006997D01*
X014783Y006955D01*
X014908Y006955D01*
X015018Y006997D02*
X015018Y007080D01*
X015059Y007122D01*
X015143Y007122D01*
X015184Y007080D01*
X015184Y007038D01*
X015018Y007038D01*
X015018Y006997D02*
X015059Y006955D01*
X015143Y006955D01*
X015294Y006955D02*
X015294Y007122D01*
X015419Y007122D01*
X015461Y007080D01*
X015461Y006955D01*
X015570Y006955D02*
X015695Y006955D01*
X015737Y006997D01*
X015695Y007038D01*
X015612Y007038D01*
X015570Y007080D01*
X015612Y007122D01*
X015737Y007122D01*
X015846Y007080D02*
X015888Y007122D01*
X015971Y007122D01*
X016013Y007080D01*
X016013Y007038D01*
X015846Y007038D01*
X015846Y006997D02*
X015846Y007080D01*
X015846Y006997D02*
X015888Y006955D01*
X015971Y006955D01*
X016122Y006955D02*
X016122Y006997D01*
X016164Y006997D01*
X016164Y006955D01*
X016122Y006955D01*
X016122Y007080D02*
X016122Y007122D01*
X016164Y007122D01*
X016164Y007080D01*
X016122Y007080D01*
X016537Y007080D02*
X016537Y006997D01*
X016579Y006955D01*
X016662Y006955D01*
X016704Y006997D01*
X016704Y007080D01*
X016662Y007122D01*
X016579Y007122D01*
X016537Y007080D01*
X016813Y007080D02*
X016855Y007122D01*
X016938Y007122D01*
X016980Y007080D01*
X016980Y006955D01*
X017089Y006997D02*
X017131Y006955D01*
X017173Y006997D01*
X017214Y006955D01*
X017256Y006997D01*
X017256Y007122D01*
X017366Y007122D02*
X017366Y006955D01*
X017366Y007038D02*
X017449Y007122D01*
X017491Y007122D01*
X017596Y006997D02*
X017637Y006997D01*
X017637Y006955D01*
X017596Y006955D01*
X017596Y006997D01*
X017734Y006997D02*
X017776Y006955D01*
X017859Y006955D01*
X017901Y006997D01*
X017901Y007080D01*
X017859Y007122D01*
X017776Y007122D01*
X017734Y007080D01*
X017734Y006997D01*
X018010Y007038D02*
X018093Y007122D01*
X018135Y007122D01*
X018240Y007080D02*
X018240Y006997D01*
X018282Y006955D01*
X018407Y006955D01*
X018407Y006913D02*
X018407Y007122D01*
X018282Y007122D01*
X018240Y007080D01*
X018324Y006872D02*
X018365Y006872D01*
X018407Y006913D01*
X018517Y006955D02*
X018683Y007205D01*
X018793Y007080D02*
X018793Y006997D01*
X018834Y006955D01*
X018960Y006955D01*
X019069Y006997D02*
X019069Y007080D01*
X019111Y007122D01*
X019194Y007122D01*
X019236Y007080D01*
X019236Y007038D01*
X019069Y007038D01*
X019069Y006997D02*
X019111Y006955D01*
X019194Y006955D01*
X019345Y006955D02*
X019345Y007122D01*
X019345Y007038D02*
X019429Y007122D01*
X019470Y007122D01*
X019575Y007122D02*
X019701Y007122D01*
X019742Y007080D01*
X019742Y006955D01*
X019852Y006997D02*
X019893Y006955D01*
X019977Y006955D01*
X020018Y006997D01*
X020018Y007080D01*
X019977Y007122D01*
X019893Y007122D01*
X019852Y007080D01*
X019852Y006997D01*
X020128Y006955D02*
X020128Y007205D01*
X020170Y007122D02*
X020128Y007080D01*
X020170Y007122D02*
X020253Y007122D01*
X020295Y007080D01*
X020295Y006955D01*
X020404Y006955D02*
X020488Y006955D01*
X020446Y006955D02*
X020446Y007205D01*
X020404Y007205D01*
X019782Y007455D02*
X019782Y007580D01*
X019740Y007622D01*
X019615Y007622D01*
X019615Y007455D01*
X019506Y007538D02*
X019339Y007538D01*
X019339Y007497D02*
X019339Y007580D01*
X019380Y007622D01*
X019464Y007622D01*
X019506Y007580D01*
X019506Y007538D01*
X019464Y007455D02*
X019380Y007455D01*
X019339Y007497D01*
X019229Y007497D02*
X019188Y007455D01*
X019063Y007455D01*
X019063Y007372D02*
X019063Y007622D01*
X019188Y007622D01*
X019229Y007580D01*
X019229Y007497D01*
X018953Y007497D02*
X018953Y007664D01*
X018911Y007705D01*
X018828Y007705D01*
X018786Y007664D01*
X018786Y007497D01*
X018828Y007455D01*
X018911Y007455D01*
X018953Y007497D01*
X018960Y007122D02*
X018834Y007122D01*
X018793Y007080D01*
X018401Y007455D02*
X018401Y007705D01*
X018234Y007705D02*
X018401Y007455D01*
X018234Y007455D02*
X018234Y007705D01*
X018124Y007664D02*
X018124Y007580D01*
X018083Y007538D01*
X017958Y007538D01*
X017958Y007455D02*
X017958Y007705D01*
X018083Y007705D01*
X018124Y007664D01*
X018041Y007538D02*
X018124Y007455D01*
X017848Y007455D02*
X017681Y007455D01*
X017681Y007705D01*
X017848Y007705D01*
X017765Y007580D02*
X017681Y007580D01*
X017572Y007497D02*
X017530Y007455D01*
X017447Y007455D01*
X017405Y007497D01*
X017405Y007664D01*
X017447Y007705D01*
X017530Y007705D01*
X017572Y007664D01*
X017019Y007580D02*
X017019Y007538D01*
X016853Y007538D01*
X016853Y007497D02*
X016853Y007580D01*
X016894Y007622D01*
X016978Y007622D01*
X017019Y007580D01*
X016978Y007455D02*
X016894Y007455D01*
X016853Y007497D01*
X016743Y007455D02*
X016743Y007580D01*
X016702Y007622D01*
X016618Y007622D01*
X016576Y007580D01*
X016476Y007622D02*
X016392Y007622D01*
X016434Y007664D02*
X016434Y007497D01*
X016476Y007455D01*
X016576Y007455D02*
X016576Y007705D01*
X016813Y007205D02*
X016813Y006955D01*
X017089Y006997D02*
X017089Y007122D01*
X016977Y006475D02*
X016977Y006205D01*
X016887Y006205D02*
X017067Y006205D01*
X017182Y006250D02*
X017182Y006430D01*
X017227Y006475D01*
X017317Y006475D01*
X017362Y006430D01*
X017182Y006250D01*
X017227Y006205D01*
X017317Y006205D01*
X017362Y006250D01*
X017362Y006430D01*
X017476Y006475D02*
X017476Y006205D01*
X017476Y006295D02*
X017611Y006385D01*
X017476Y006295D02*
X017611Y006205D01*
X017887Y006205D02*
X018067Y006205D01*
X017977Y006205D02*
X017977Y006475D01*
X017887Y006385D01*
X018182Y006430D02*
X018227Y006475D01*
X018317Y006475D01*
X018362Y006430D01*
X018182Y006250D01*
X018227Y006205D01*
X018317Y006205D01*
X018362Y006250D01*
X018362Y006430D01*
X018476Y006475D02*
X018476Y006205D01*
X018476Y006295D02*
X018611Y006385D01*
X018476Y006295D02*
X018611Y006205D01*
X018182Y006250D02*
X018182Y006430D01*
X018010Y006955D02*
X018010Y007122D01*
X016977Y006475D02*
X016887Y006385D01*
X015886Y007455D02*
X015886Y007622D01*
X015969Y007622D02*
X016011Y007622D01*
X015969Y007622D02*
X015886Y007538D01*
X015776Y007538D02*
X015610Y007538D01*
X015610Y007497D02*
X015610Y007580D01*
X015651Y007622D01*
X015735Y007622D01*
X015776Y007580D01*
X015776Y007538D01*
X015735Y007455D02*
X015651Y007455D01*
X015610Y007497D01*
X015500Y007455D02*
X015500Y007705D01*
X015500Y007622D02*
X015375Y007622D01*
X015333Y007580D01*
X015333Y007497D01*
X015375Y007455D01*
X015500Y007455D01*
X015224Y007455D02*
X015224Y007580D01*
X015182Y007622D01*
X015057Y007622D01*
X015057Y007455D01*
X014948Y007455D02*
X014948Y007622D01*
X014948Y007455D02*
X014823Y007455D01*
X014781Y007497D01*
X014781Y007622D01*
X014783Y007122D02*
X014741Y007080D01*
X014783Y007122D02*
X014908Y007122D01*
X014281Y007205D02*
X014281Y006955D01*
X019575Y006955D02*
X019575Y007122D01*
X017942Y000975D02*
X017852Y000975D01*
X017807Y000930D01*
X017807Y000750D01*
X017852Y000705D01*
X017942Y000705D01*
X017987Y000750D01*
X017987Y000930D02*
X017942Y000975D01*
X017692Y000975D02*
X017692Y000705D01*
X017512Y000975D01*
X017512Y000705D01*
X017156Y000750D02*
X017156Y000930D01*
X017111Y000975D01*
X016976Y000975D01*
X016976Y000705D01*
X017111Y000705D01*
X017156Y000750D01*
X016862Y000705D02*
X016682Y000975D01*
X016567Y000930D02*
X016567Y000840D01*
X016522Y000795D01*
X016387Y000795D01*
X016477Y000795D02*
X016567Y000705D01*
X016682Y000705D02*
X016862Y000975D01*
X016567Y000930D02*
X016522Y000975D01*
X016387Y000975D01*
X016387Y000705D01*
X016031Y000750D02*
X015986Y000705D01*
X015851Y000705D01*
X015851Y000975D01*
X015986Y000975D01*
X016031Y000930D01*
X016031Y000750D01*
X015737Y000705D02*
X015557Y000975D01*
X015442Y000975D02*
X015262Y000975D01*
X015352Y000975D02*
X015352Y000705D01*
X015557Y000705D02*
X015737Y000975D01*
X014987Y000975D02*
X014987Y000795D01*
X014897Y000705D01*
X014807Y000795D01*
X014807Y000975D01*
X014692Y000975D02*
X014512Y000975D01*
X014512Y000840D01*
X014602Y000885D01*
X014647Y000885D01*
X014692Y000840D01*
X014692Y000750D01*
X014647Y000705D01*
X014557Y000705D01*
X014512Y000750D01*
X014156Y000795D02*
X014156Y000975D01*
X013976Y000975D02*
X013976Y000795D01*
X014066Y000705D01*
X014156Y000795D01*
X013862Y000705D02*
X013682Y000705D01*
X013862Y000885D01*
X013862Y000930D01*
X013817Y000975D01*
X013727Y000975D01*
X013682Y000930D01*
X013477Y000975D02*
X013477Y000705D01*
X013387Y000705D02*
X013567Y000705D01*
X013387Y000885D02*
X013477Y000975D01*
X013156Y000930D02*
X013111Y000975D01*
X012976Y000975D01*
X012976Y000705D01*
X013111Y000705D01*
X013156Y000750D01*
X013156Y000930D01*
X012862Y000975D02*
X012862Y000705D01*
X012682Y000975D01*
X012682Y000705D01*
X012567Y000750D02*
X012567Y000840D01*
X012477Y000840D01*
X012567Y000750D02*
X012522Y000705D01*
X012432Y000705D01*
X012387Y000750D01*
X012387Y000930D01*
X012432Y000975D01*
X012522Y000975D01*
X012567Y000930D01*
X005115Y023080D02*
X005070Y023125D01*
X005070Y023305D01*
X005025Y023260D02*
X005115Y023260D01*
X004915Y023260D02*
X004870Y023260D01*
X004780Y023170D01*
X004780Y023080D02*
X004780Y023260D01*
X004665Y023215D02*
X004665Y023125D01*
X004620Y023080D01*
X004530Y023080D01*
X004485Y023125D01*
X004485Y023215D01*
X004530Y023260D01*
X004620Y023260D01*
X004665Y023215D01*
X004371Y023215D02*
X004326Y023170D01*
X004191Y023170D01*
X004191Y023080D02*
X004191Y023350D01*
X004326Y023350D01*
X004371Y023305D01*
X004371Y023215D01*
X003790Y023260D02*
X003699Y023260D01*
X003744Y023305D02*
X003744Y023125D01*
X003790Y023080D01*
X003585Y023125D02*
X003540Y023170D01*
X003450Y023170D01*
X003405Y023215D01*
X003450Y023260D01*
X003585Y023260D01*
X003585Y023125D02*
X003540Y023080D01*
X003405Y023080D01*
X003290Y023125D02*
X003290Y023215D01*
X003245Y023260D01*
X003155Y023260D01*
X003110Y023215D01*
X003110Y023125D01*
X003155Y023080D01*
X003245Y023080D01*
X003290Y023125D01*
X002996Y023080D02*
X002996Y023350D01*
X002996Y023215D02*
X002815Y023215D01*
X002815Y023080D02*
X002815Y023350D01*
X002406Y023305D02*
X002406Y023260D01*
X002361Y023215D01*
X002226Y023215D01*
X002112Y023170D02*
X002112Y023125D01*
X002067Y023080D01*
X001977Y023080D01*
X001932Y023125D01*
X001977Y023215D02*
X001932Y023260D01*
X001932Y023305D01*
X001977Y023350D01*
X002067Y023350D01*
X002112Y023305D01*
X002067Y023215D02*
X002112Y023170D01*
X002067Y023215D02*
X001977Y023215D01*
X001817Y023125D02*
X001817Y023350D01*
X001637Y023350D02*
X001637Y023125D01*
X001682Y023080D01*
X001772Y023080D01*
X001817Y023125D01*
X002226Y023080D02*
X002361Y023080D01*
X002406Y023125D01*
X002406Y023170D01*
X002361Y023215D01*
X002406Y023305D02*
X002361Y023350D01*
X002226Y023350D01*
X002226Y023080D01*
D11*
X003657Y016666D02*
X003817Y016666D01*
X003817Y016194D02*
X003657Y016194D01*
X008876Y015173D02*
X008876Y014937D01*
X009348Y014937D02*
X009348Y015173D01*
X010126Y015173D02*
X010126Y014937D01*
X010598Y014937D02*
X010598Y015173D01*
X010598Y013548D02*
X010598Y013312D01*
X010126Y013312D02*
X010126Y013548D01*
X009348Y013548D02*
X009348Y013312D01*
X008876Y013312D02*
X008876Y013548D01*
X012517Y013005D02*
X012574Y013062D01*
X012744Y013062D01*
X012687Y012948D02*
X012574Y012948D01*
X012517Y013005D01*
X012517Y012835D02*
X012687Y012835D01*
X012744Y012892D01*
X012687Y012948D01*
X012885Y012835D02*
X012885Y013062D01*
X012942Y013062D01*
X012999Y013005D01*
X013055Y013062D01*
X013112Y013005D01*
X013112Y012835D01*
X012999Y012835D02*
X012999Y013005D01*
X013254Y012892D02*
X013310Y012948D01*
X013480Y012948D01*
X013480Y013005D02*
X013480Y012835D01*
X013310Y012835D01*
X013254Y012892D01*
X013310Y013062D02*
X013424Y013062D01*
X013480Y013005D01*
X013622Y012948D02*
X013735Y013062D01*
X013792Y013062D01*
X013929Y013062D02*
X014042Y013062D01*
X013985Y013119D02*
X013985Y012892D01*
X014042Y012835D01*
X014174Y012892D02*
X014174Y013005D01*
X014231Y013062D01*
X014344Y013062D01*
X014401Y013005D01*
X014401Y012948D01*
X014174Y012948D01*
X014174Y012892D02*
X014231Y012835D01*
X014344Y012835D01*
X014543Y012835D02*
X014543Y013062D01*
X014713Y013062D01*
X014769Y013005D01*
X014769Y012835D01*
X014911Y012892D02*
X014911Y013005D01*
X014968Y013062D01*
X015081Y013062D01*
X015138Y013005D01*
X015138Y012948D01*
X014911Y012948D01*
X014911Y012892D02*
X014968Y012835D01*
X015081Y012835D01*
X015279Y012835D02*
X015279Y013062D01*
X015279Y012948D02*
X015393Y013062D01*
X015449Y013062D01*
X015586Y013005D02*
X015586Y012892D01*
X015643Y012835D01*
X015813Y012835D01*
X015813Y012778D02*
X015813Y013062D01*
X015643Y013062D01*
X015586Y013005D01*
X015700Y012722D02*
X015756Y012722D01*
X015813Y012778D01*
X015954Y012892D02*
X016011Y012835D01*
X016181Y012835D01*
X016181Y012778D02*
X016125Y012722D01*
X016068Y012722D01*
X016181Y012778D02*
X016181Y013062D01*
X016323Y013005D02*
X016323Y012892D01*
X016380Y012835D01*
X016550Y012835D01*
X016550Y012778D02*
X016550Y013062D01*
X016380Y013062D01*
X016323Y013005D01*
X016436Y012722D02*
X016493Y012722D01*
X016550Y012778D01*
X016691Y012835D02*
X016691Y013062D01*
X016805Y013062D02*
X016861Y013062D01*
X016805Y013062D02*
X016691Y012948D01*
X016998Y012892D02*
X017055Y012835D01*
X017168Y012835D01*
X017225Y012892D01*
X017225Y013005D01*
X017168Y013062D01*
X017055Y013062D01*
X016998Y013005D01*
X016998Y012892D01*
X017366Y012892D02*
X017423Y012835D01*
X017593Y012835D01*
X017593Y013062D01*
X017735Y013062D02*
X017905Y013062D01*
X017962Y013005D01*
X017962Y012892D01*
X017905Y012835D01*
X017735Y012835D01*
X017735Y012722D02*
X017735Y013062D01*
X017366Y013062D02*
X017366Y012892D01*
X018103Y012835D02*
X018273Y012835D01*
X018330Y012892D01*
X018273Y012948D01*
X018160Y012948D01*
X018103Y013005D01*
X018160Y013062D01*
X018330Y013062D01*
X018471Y012892D02*
X018528Y012892D01*
X018528Y012835D01*
X018471Y012835D01*
X018471Y012892D01*
X018655Y012892D02*
X018712Y012835D01*
X018882Y012835D01*
X019024Y012892D02*
X019080Y012835D01*
X019194Y012835D01*
X019251Y012892D01*
X019251Y013005D01*
X019194Y013062D01*
X019080Y013062D01*
X019024Y013005D01*
X019024Y012892D01*
X018882Y013062D02*
X018712Y013062D01*
X018655Y013005D01*
X018655Y012892D01*
X019392Y012835D02*
X019392Y013062D01*
X019449Y013062D01*
X019506Y013005D01*
X019562Y013062D01*
X019619Y013005D01*
X019619Y012835D01*
X019506Y012835D02*
X019506Y013005D01*
X015954Y013062D02*
X015954Y012892D01*
X013622Y012835D02*
X013622Y013062D01*
X015697Y008685D02*
X015827Y008595D01*
X015947Y008645D01*
X015977Y008805D01*
X016107Y008805D01*
X016137Y008645D01*
X016257Y008595D01*
X016397Y008685D01*
X016487Y008595D01*
X016397Y008465D01*
X016447Y008345D01*
X016597Y008315D01*
X016597Y008185D01*
X016457Y008155D01*
X016397Y008025D01*
X016487Y007895D01*
X016397Y007805D01*
X016277Y007885D01*
X016217Y007855D01*
X016127Y008085D01*
X015967Y008085D02*
X015867Y007855D01*
X015817Y007885D01*
X015697Y007805D01*
X015607Y007895D01*
X015687Y008025D01*
X015637Y008155D01*
X015487Y008185D01*
X015487Y008315D01*
X015637Y008335D01*
X015697Y008465D01*
X015607Y008595D01*
X015697Y008685D01*
X015967Y008085D02*
X015945Y008098D01*
X015925Y008114D01*
X015907Y008133D01*
X015892Y008155D01*
X015881Y008178D01*
X015873Y008203D01*
X015869Y008228D01*
X015868Y008254D01*
X015871Y008280D01*
X015878Y008305D01*
X015889Y008328D01*
X015902Y008350D01*
X015919Y008370D01*
X015938Y008387D01*
X015960Y008402D01*
X015984Y008412D01*
X016008Y008420D01*
X016034Y008424D01*
X016060Y008424D01*
X016086Y008420D01*
X016110Y008412D01*
X016134Y008402D01*
X016156Y008387D01*
X016175Y008370D01*
X016192Y008350D01*
X016205Y008328D01*
X016216Y008305D01*
X016223Y008280D01*
X016226Y008254D01*
X016225Y008228D01*
X016221Y008203D01*
X016213Y008178D01*
X016202Y008155D01*
X016187Y008133D01*
X016169Y008114D01*
X016149Y008098D01*
X016127Y008085D01*
X017001Y005673D02*
X017001Y005437D01*
X017473Y005437D02*
X017473Y005673D01*
X018001Y005673D02*
X018001Y005437D01*
X018473Y005437D02*
X018473Y005673D01*
X018487Y004055D02*
X018987Y004055D01*
X019237Y003805D01*
X019237Y002305D01*
X018987Y002055D01*
X018487Y002055D01*
X018237Y002305D01*
X017987Y002055D01*
X017487Y002055D01*
X017237Y001805D01*
X016987Y002055D01*
X016487Y002055D01*
X016237Y001805D01*
X015987Y002055D01*
X015487Y002055D01*
X015237Y001805D01*
X014987Y002055D01*
X014487Y002055D01*
X014237Y001805D01*
X013987Y002055D01*
X013487Y002055D01*
X013237Y001805D01*
X012987Y002055D01*
X012487Y002055D01*
X012237Y001805D01*
X012237Y001305D01*
X012487Y001055D01*
X012987Y001055D01*
X013237Y001305D01*
X013487Y001055D01*
X013987Y001055D01*
X014237Y001305D01*
X014487Y001055D01*
X014987Y001055D01*
X015237Y001305D01*
X015487Y001055D01*
X015987Y001055D01*
X016237Y001305D01*
X016487Y001055D01*
X016987Y001055D01*
X017237Y001305D01*
X017487Y001055D01*
X017987Y001055D01*
X018237Y001305D01*
X018237Y001805D01*
X017987Y002055D01*
X017487Y002055D01*
X017237Y002305D01*
X016987Y002055D01*
X016487Y002055D01*
X016237Y002305D01*
X015987Y002055D01*
X015487Y002055D01*
X015237Y002305D01*
X014987Y002055D01*
X014487Y002055D01*
X014237Y002305D01*
X013987Y002055D01*
X013487Y002055D01*
X013237Y002305D01*
X012987Y002055D01*
X012487Y002055D01*
X012237Y002305D01*
X011987Y002055D01*
X011487Y002055D01*
X011237Y002305D01*
X011237Y003805D01*
X011487Y004055D01*
X011987Y004055D01*
X012237Y003805D01*
X012487Y004055D01*
X012987Y004055D01*
X013237Y003805D01*
X013487Y004055D01*
X013987Y004055D01*
X014237Y003805D01*
X014487Y004055D01*
X014987Y004055D01*
X015237Y003805D01*
X015487Y004055D01*
X015987Y004055D01*
X016237Y003805D01*
X016487Y004055D01*
X016987Y004055D01*
X017237Y003805D01*
X017487Y004055D01*
X017987Y004055D01*
X018237Y003805D01*
X018487Y004055D01*
X008980Y018069D02*
X008744Y018069D01*
X008744Y018541D02*
X008980Y018541D01*
X008980Y019069D02*
X008744Y019069D01*
X008744Y019541D02*
X008980Y019541D01*
X008980Y020069D02*
X008744Y020069D01*
X008744Y020541D02*
X008980Y020541D01*
X008942Y021069D02*
X008782Y021069D01*
X008782Y021541D02*
X008942Y021541D01*
X008598Y022312D02*
X008598Y022548D01*
X008126Y022548D02*
X008126Y022312D01*
X011737Y021985D02*
X011987Y021735D01*
X012487Y021735D01*
X012737Y021985D01*
X012987Y021735D01*
X013487Y021735D01*
X013737Y021985D01*
X013987Y021735D01*
X014487Y021735D01*
X014737Y021985D01*
X014987Y021735D01*
X015487Y021735D01*
X015737Y021985D01*
X015987Y021735D01*
X016487Y021735D01*
X016737Y021985D01*
X016987Y021735D01*
X017487Y021735D01*
X017737Y021985D01*
X017987Y021735D01*
X018487Y021735D01*
X018737Y021985D01*
X018737Y023485D01*
X018487Y023735D01*
X017987Y023735D01*
X017737Y023485D01*
X017487Y023735D01*
X016987Y023735D01*
X016737Y023485D01*
X016487Y023735D01*
X015987Y023735D01*
X015737Y023485D01*
X015487Y023735D01*
X014987Y023735D01*
X014737Y023485D01*
X014487Y023735D01*
X013987Y023735D01*
X013737Y023485D01*
X013487Y023735D01*
X012987Y023735D01*
X012737Y023485D01*
X012487Y023735D01*
X011987Y023735D01*
X011737Y023485D01*
X011737Y021985D01*
X013751Y019798D02*
X013751Y019562D01*
X014223Y019562D02*
X014223Y019798D01*
X015619Y019819D02*
X015855Y019819D01*
X015855Y020291D02*
X015619Y020291D01*
X015619Y020944D02*
X015855Y020944D01*
X015855Y021416D02*
X015619Y021416D01*
X018494Y021416D02*
X018730Y021416D01*
X018730Y020944D02*
X018494Y020944D01*
X018494Y020166D02*
X018730Y020166D01*
X018730Y019694D02*
X018494Y019694D01*
X018494Y018791D02*
X018730Y018791D01*
X018730Y018319D02*
X018494Y018319D01*
D12*
X012721Y018821D02*
X012721Y020789D01*
X010753Y020789D01*
X010753Y018821D01*
X012721Y018821D01*
X012130Y019214D02*
X012132Y019241D01*
X012138Y019268D01*
X012147Y019294D01*
X012160Y019318D01*
X012176Y019341D01*
X012195Y019360D01*
X012217Y019377D01*
X012241Y019391D01*
X012266Y019401D01*
X012293Y019408D01*
X012320Y019411D01*
X012348Y019410D01*
X012375Y019405D01*
X012401Y019397D01*
X012425Y019385D01*
X012448Y019369D01*
X012469Y019351D01*
X012486Y019330D01*
X012501Y019306D01*
X012512Y019281D01*
X012520Y019255D01*
X012524Y019228D01*
X012524Y019200D01*
X012520Y019173D01*
X012512Y019147D01*
X012501Y019122D01*
X012486Y019098D01*
X012469Y019077D01*
X012448Y019059D01*
X012426Y019043D01*
X012401Y019031D01*
X012375Y019023D01*
X012348Y019018D01*
X012320Y019017D01*
X012293Y019020D01*
X012266Y019027D01*
X012241Y019037D01*
X012217Y019051D01*
X012195Y019068D01*
X012176Y019087D01*
X012160Y019110D01*
X012147Y019134D01*
X012138Y019160D01*
X012132Y019187D01*
X012130Y019214D01*
D13*
X011087Y017705D02*
X008387Y017705D01*
X008328Y017703D01*
X008270Y017697D01*
X008211Y017688D01*
X008154Y017674D01*
X008098Y017657D01*
X008043Y017636D01*
X007989Y017612D01*
X007937Y017584D01*
X007887Y017553D01*
X007839Y017519D01*
X007794Y017482D01*
X007751Y017441D01*
X007710Y017398D01*
X007673Y017353D01*
X007639Y017305D01*
X007608Y017255D01*
X007580Y017203D01*
X007556Y017149D01*
X007535Y017094D01*
X007518Y017038D01*
X007504Y016981D01*
X007495Y016922D01*
X007489Y016864D01*
X007487Y016805D01*
X007489Y016746D01*
X007495Y016688D01*
X007504Y016629D01*
X007518Y016572D01*
X007535Y016516D01*
X007556Y016461D01*
X007580Y016407D01*
X007608Y016355D01*
X007639Y016305D01*
X007673Y016257D01*
X007710Y016212D01*
X007751Y016169D01*
X007794Y016128D01*
X007839Y016091D01*
X007887Y016057D01*
X007937Y016026D01*
X007989Y015998D01*
X008043Y015974D01*
X008098Y015953D01*
X008154Y015936D01*
X008211Y015922D01*
X008270Y015913D01*
X008328Y015907D01*
X008387Y015905D01*
X011087Y015905D01*
X011223Y015075D02*
X013651Y017503D01*
X018323Y017503D01*
X020751Y015075D01*
X020751Y004617D01*
X011223Y004617D01*
X011223Y015075D01*
X011087Y015905D02*
X011146Y015907D01*
X011204Y015913D01*
X011263Y015922D01*
X011320Y015936D01*
X011376Y015953D01*
X011431Y015974D01*
X011485Y015998D01*
X011537Y016026D01*
X011587Y016057D01*
X011635Y016091D01*
X011680Y016128D01*
X011723Y016169D01*
X011764Y016212D01*
X011801Y016257D01*
X011835Y016305D01*
X011866Y016355D01*
X011894Y016407D01*
X011918Y016461D01*
X011939Y016516D01*
X011956Y016572D01*
X011970Y016629D01*
X011979Y016688D01*
X011985Y016746D01*
X011987Y016805D01*
X011985Y016864D01*
X011979Y016922D01*
X011970Y016981D01*
X011956Y017038D01*
X011939Y017094D01*
X011918Y017149D01*
X011894Y017203D01*
X011866Y017255D01*
X011835Y017305D01*
X011801Y017353D01*
X011764Y017398D01*
X011723Y017441D01*
X011680Y017482D01*
X011635Y017519D01*
X011587Y017553D01*
X011537Y017584D01*
X011485Y017612D01*
X011431Y017636D01*
X011376Y017657D01*
X011320Y017674D01*
X011263Y017688D01*
X011204Y017697D01*
X011146Y017703D01*
X011087Y017705D01*
X007187Y018105D02*
X007187Y017205D01*
X006487Y017205D01*
X004687Y017205D02*
X001587Y017205D01*
X001587Y022405D01*
X004687Y022405D01*
X006487Y022405D02*
X007187Y022405D01*
X007187Y021505D01*
X019357Y021534D02*
X019357Y020826D01*
X019790Y020826D01*
X019869Y020944D02*
X020105Y021180D01*
X019869Y021416D01*
X019869Y020944D01*
X020105Y020904D02*
X020105Y021180D01*
X020105Y021456D01*
X020184Y021534D02*
X020617Y021534D01*
X020617Y020826D01*
X020184Y020826D01*
X020184Y020284D02*
X020617Y020284D01*
X020617Y019576D01*
X020184Y019576D01*
X020105Y019654D02*
X020105Y019930D01*
X019869Y019694D01*
X019869Y020166D01*
X020105Y019930D01*
X020105Y020206D01*
X019774Y020284D02*
X019357Y020284D01*
X019357Y019576D01*
X019790Y019576D01*
X019774Y018909D02*
X019357Y018909D01*
X019357Y018201D01*
X019790Y018201D01*
X019869Y018319D02*
X020105Y018555D01*
X019869Y018791D01*
X019869Y018319D01*
X020105Y018279D02*
X020105Y018555D01*
X020105Y018831D01*
X020184Y018909D02*
X020617Y018909D01*
X020617Y018201D01*
X020184Y018201D01*
X019774Y021534D02*
X019357Y021534D01*
M02*
