G75*
G70*
%OFA0B0*%
%FSLAX24Y24*%
%IPPOS*%
%LPD*%
%AMOC8*
5,1,8,0,0,1.08239X$1,22.5*
%
%ADD10R,0.0510X0.0160*%
%ADD11R,0.0160X0.0510*%
%ADD12C,0.1370*%
%ADD13R,0.1241X0.0414*%
%ADD14R,0.0560X0.0560*%
%ADD15R,0.0532X0.0375*%
%ADD16R,0.0375X0.0532*%
%ADD17C,0.0540*%
%ADD18R,0.0808X0.1399*%
%ADD19OC8,0.0660*%
%ADD20C,0.0560*%
%ADD21R,0.0808X0.0611*%
%ADD22R,0.0611X0.0769*%
%ADD23R,0.0651X0.0336*%
%ADD24C,0.0820*%
D10*
X010359Y019116D03*
X010359Y019313D03*
X010359Y019510D03*
X010359Y019707D03*
X010359Y019903D03*
X010359Y020100D03*
X010359Y020297D03*
X010359Y020494D03*
X013115Y020494D03*
X013115Y020297D03*
X013115Y020100D03*
X013115Y019903D03*
X013115Y019707D03*
X013115Y019510D03*
X013115Y019313D03*
X013115Y019116D03*
D11*
X012426Y018427D03*
X012229Y018427D03*
X012032Y018427D03*
X011835Y018427D03*
X011638Y018427D03*
X011442Y018427D03*
X011245Y018427D03*
X011048Y018427D03*
X011048Y021183D03*
X011245Y021183D03*
X011442Y021183D03*
X011638Y021183D03*
X011835Y021183D03*
X012032Y021183D03*
X012229Y021183D03*
X012426Y021183D03*
D12*
X005668Y022390D03*
X005668Y017220D03*
D13*
X007326Y018427D03*
X007326Y019411D03*
X007326Y020199D03*
X007326Y021183D03*
D14*
X008462Y021305D03*
X009262Y021305D03*
X004137Y016430D03*
X003337Y016430D03*
D15*
X008362Y022076D03*
X008362Y022784D03*
X013987Y020034D03*
X013987Y019326D03*
X010362Y015409D03*
X010362Y014701D03*
X010362Y013784D03*
X010362Y013076D03*
X009112Y013076D03*
X009112Y013784D03*
X009112Y014701D03*
X009112Y015409D03*
X017237Y005909D03*
X017237Y005201D03*
X018237Y005201D03*
X018237Y005909D03*
D16*
X009216Y018305D03*
X008508Y018305D03*
X008508Y019305D03*
X009216Y019305D03*
X009216Y020305D03*
X008508Y020305D03*
X015383Y020055D03*
X016091Y020055D03*
X016091Y021180D03*
X015383Y021180D03*
X018258Y021180D03*
X018966Y021180D03*
X019633Y021180D03*
X020341Y021180D03*
X020341Y019930D03*
X019633Y019930D03*
X018966Y019930D03*
X018258Y019930D03*
X018258Y018555D03*
X018966Y018555D03*
X019633Y018555D03*
X020341Y018555D03*
D17*
X010737Y016805D03*
X008737Y016805D03*
D18*
X009594Y022680D03*
X011130Y022680D03*
D19*
X012237Y022235D03*
X012237Y023235D03*
X013237Y023235D03*
X014237Y023235D03*
X014237Y022235D03*
X013237Y022235D03*
X015237Y022235D03*
X016237Y022235D03*
X016237Y023235D03*
X015237Y023235D03*
X017237Y023235D03*
X017237Y022235D03*
X018237Y022235D03*
X018237Y023235D03*
X018737Y003555D03*
X018737Y002555D03*
X017737Y002555D03*
X017737Y003555D03*
X016737Y003555D03*
X016737Y002555D03*
X015737Y002555D03*
X015737Y003555D03*
X014737Y003555D03*
X014737Y002555D03*
X013737Y002555D03*
X013737Y003555D03*
X012737Y003555D03*
X012737Y002555D03*
X011737Y002555D03*
X011737Y003555D03*
D20*
X011656Y007887D03*
X011656Y008674D03*
X011656Y009461D03*
X011656Y010249D03*
X011656Y011036D03*
X011656Y011824D03*
X011656Y012611D03*
X011656Y013399D03*
X011656Y014186D03*
X011656Y014973D03*
X020318Y014973D03*
X020318Y014186D03*
X020318Y013399D03*
X020318Y012611D03*
X020318Y011824D03*
X020318Y011036D03*
X020318Y010249D03*
X020318Y009461D03*
X020318Y008674D03*
X020318Y007887D03*
D21*
X002552Y010201D03*
X002906Y015398D03*
D22*
X008064Y014768D03*
X008064Y012405D03*
D23*
X004205Y012445D03*
X004048Y012878D03*
X003890Y013311D03*
X004048Y013744D03*
X003890Y014177D03*
X004048Y014610D03*
X004048Y015043D03*
X004048Y012012D03*
D24*
X012737Y001555D03*
X013737Y001555D03*
X014737Y001555D03*
X015737Y001555D03*
X016737Y001555D03*
X017737Y001555D03*
M02*
