G75*
G70*
%OFA0B0*%
%FSLAX24Y24*%
%IPPOS*%
%LPD*%
%AMOC8*
5,1,8,0,0,1.08239X$1,22.5*
%
%ADD10C,0.1310*%
%ADD11C,0.0480*%
%ADD12OC8,0.0600*%
%ADD13C,0.0500*%
%ADD14C,0.0760*%
%ADD15C,0.0160*%
%ADD16C,0.0357*%
%ADD17C,0.0080*%
%ADD18C,0.0100*%
%ADD19C,0.0120*%
D10*
X005668Y017220D03*
X005668Y022390D03*
D11*
X008737Y016805D03*
X010737Y016805D03*
D12*
X012237Y022235D03*
X012237Y023235D03*
X013237Y023235D03*
X014237Y023235D03*
X014237Y022235D03*
X013237Y022235D03*
X015237Y022235D03*
X016237Y022235D03*
X016237Y023235D03*
X015237Y023235D03*
X017237Y023235D03*
X017237Y022235D03*
X018237Y022235D03*
X018237Y023235D03*
X018737Y003555D03*
X018737Y002555D03*
X017737Y002555D03*
X017737Y003555D03*
X016737Y003555D03*
X016737Y002555D03*
X015737Y002555D03*
X015737Y003555D03*
X014737Y003555D03*
X014737Y002555D03*
X013737Y002555D03*
X013737Y003555D03*
X012737Y003555D03*
X012737Y002555D03*
X011737Y002555D03*
X011737Y003555D03*
D13*
X011656Y007887D03*
X011656Y008674D03*
X011656Y009461D03*
X011656Y010249D03*
X011656Y011036D03*
X011656Y011824D03*
X011656Y012611D03*
X011656Y013399D03*
X011656Y014186D03*
X011656Y014973D03*
X020318Y014973D03*
X020318Y014186D03*
X020318Y013399D03*
X020318Y012611D03*
X020318Y011824D03*
X020318Y011036D03*
X020318Y010249D03*
X020318Y009461D03*
X020318Y008674D03*
X020318Y007887D03*
D14*
X017737Y001555D03*
X016737Y001555D03*
X015737Y001555D03*
X014737Y001555D03*
X013737Y001555D03*
X012737Y001555D03*
D15*
X002374Y009844D02*
X002160Y009913D01*
X001978Y010046D01*
X001845Y010228D01*
X001776Y010442D01*
X001767Y010555D01*
X001767Y023055D01*
X001776Y023168D01*
X001845Y023382D01*
X001978Y023564D01*
X002160Y023697D01*
X002374Y023766D01*
X002487Y023775D01*
X019987Y023775D01*
X020100Y023766D01*
X020314Y023697D01*
X020496Y023564D01*
X020628Y023382D01*
X020698Y023168D01*
X020707Y023055D01*
X020707Y015157D01*
X020682Y015217D01*
X020561Y015338D01*
X020403Y015403D01*
X020232Y015403D01*
X020074Y015338D01*
X019953Y015217D01*
X019888Y015059D01*
X019888Y014888D01*
X019953Y014730D01*
X020074Y014609D01*
X020144Y014580D01*
X020074Y014550D01*
X019953Y014429D01*
X019888Y014271D01*
X019888Y014100D01*
X019953Y013942D01*
X020074Y013821D01*
X020144Y013792D01*
X020074Y013763D01*
X019953Y013642D01*
X019888Y013484D01*
X019888Y013313D01*
X019953Y013155D01*
X020074Y013034D01*
X020144Y013005D01*
X020074Y012976D01*
X019953Y012855D01*
X019888Y012697D01*
X019888Y012526D01*
X019953Y012368D01*
X020074Y012247D01*
X020144Y012217D01*
X020074Y012188D01*
X019953Y012067D01*
X019888Y011909D01*
X019888Y011738D01*
X019953Y011580D01*
X020074Y011459D01*
X020144Y011430D01*
X020074Y011401D01*
X019953Y011280D01*
X019888Y011122D01*
X019888Y010951D01*
X019953Y010793D01*
X020074Y010672D01*
X020144Y010643D01*
X020074Y010613D01*
X019953Y010492D01*
X019888Y010334D01*
X019888Y010163D01*
X019953Y010005D01*
X020074Y009884D01*
X020144Y009855D01*
X020074Y009826D01*
X019953Y009705D01*
X019888Y009547D01*
X019888Y009376D01*
X019953Y009218D01*
X020074Y009097D01*
X020144Y009068D01*
X020074Y009039D01*
X019953Y008918D01*
X019888Y008760D01*
X019888Y008589D01*
X019953Y008431D01*
X020074Y008310D01*
X020144Y008280D01*
X020074Y008251D01*
X019953Y008130D01*
X019888Y007972D01*
X019888Y007801D01*
X019953Y007643D01*
X020074Y007522D01*
X020232Y007457D01*
X020403Y007457D01*
X020561Y007522D01*
X020682Y007643D01*
X020707Y007703D01*
X020707Y001555D01*
X020698Y001442D01*
X020628Y001228D01*
X020496Y001046D01*
X020314Y000913D01*
X020100Y000844D01*
X019987Y000835D01*
X018856Y000835D01*
X019248Y001227D01*
X019315Y001294D01*
X019352Y001382D01*
X019352Y002228D01*
X019315Y002316D01*
X019248Y002383D01*
X019248Y002383D01*
X019217Y002414D01*
X019217Y002754D01*
X018936Y003035D01*
X018538Y003035D01*
X018257Y002754D01*
X018257Y002356D01*
X018328Y002285D01*
X018146Y002285D01*
X018217Y002356D01*
X018217Y002754D01*
X017936Y003035D01*
X017542Y003035D01*
X017582Y003075D01*
X017936Y003075D01*
X018217Y003356D01*
X018217Y003754D01*
X017997Y003974D01*
X017997Y004038D01*
X018034Y004001D01*
X018166Y003946D01*
X018308Y003946D01*
X018440Y004001D01*
X018477Y004038D01*
X018477Y003974D01*
X018257Y003754D01*
X018257Y003356D01*
X018538Y003075D01*
X018936Y003075D01*
X019217Y003356D01*
X019217Y003754D01*
X018997Y003974D01*
X018997Y019982D01*
X018957Y020077D01*
X017846Y021189D01*
X017846Y021251D01*
X017791Y021383D01*
X017690Y021484D01*
X017558Y021539D01*
X017416Y021539D01*
X017284Y021484D01*
X017183Y021383D01*
X017128Y021251D01*
X017128Y021109D01*
X017183Y020977D01*
X017284Y020876D01*
X017416Y020821D01*
X017478Y020821D01*
X018477Y019822D01*
X018477Y008405D01*
X018457Y008452D01*
X012503Y014406D01*
X012408Y014446D01*
X012004Y014446D01*
X011900Y014550D01*
X011829Y014580D01*
X011900Y014609D01*
X012021Y014730D01*
X012086Y014888D01*
X012086Y015059D01*
X012021Y015217D01*
X011900Y015338D01*
X011742Y015403D01*
X011571Y015403D01*
X011413Y015338D01*
X011292Y015217D01*
X011226Y015059D01*
X011226Y014888D01*
X011292Y014730D01*
X011413Y014609D01*
X011483Y014580D01*
X011413Y014550D01*
X011292Y014429D01*
X011226Y014271D01*
X011226Y014100D01*
X011292Y013942D01*
X011413Y013821D01*
X011483Y013792D01*
X011413Y013763D01*
X011292Y013642D01*
X011226Y013484D01*
X011226Y013313D01*
X011292Y013155D01*
X011413Y013034D01*
X011483Y013005D01*
X011413Y012976D01*
X011292Y012855D01*
X011226Y012697D01*
X011226Y012526D01*
X011292Y012368D01*
X011413Y012247D01*
X011483Y012217D01*
X011413Y012188D01*
X011292Y012067D01*
X011226Y011909D01*
X011226Y011738D01*
X011292Y011580D01*
X011413Y011459D01*
X011483Y011430D01*
X011413Y011401D01*
X011292Y011280D01*
X011226Y011122D01*
X011226Y010951D01*
X011292Y010793D01*
X011413Y010672D01*
X011483Y010643D01*
X011413Y010613D01*
X011292Y010492D01*
X011226Y010334D01*
X011226Y010163D01*
X011292Y010005D01*
X011413Y009884D01*
X011483Y009855D01*
X011413Y009826D01*
X011292Y009705D01*
X011247Y009597D01*
X011247Y010107D01*
X011207Y010202D01*
X011134Y010275D01*
X007634Y013775D01*
X007539Y013815D01*
X006865Y013815D01*
X009457Y016408D01*
X009497Y016503D01*
X009497Y016947D01*
X012246Y019696D01*
X012308Y019696D01*
X012440Y019751D01*
X012477Y019788D01*
X012477Y017302D01*
X012433Y017258D01*
X012378Y017126D01*
X012378Y016984D01*
X012433Y016852D01*
X012477Y016808D01*
X012477Y015052D01*
X012433Y015008D01*
X012378Y014876D01*
X012378Y014734D01*
X012433Y014602D01*
X012534Y014501D01*
X012666Y014446D01*
X012808Y014446D01*
X012940Y014501D01*
X013041Y014602D01*
X013096Y014734D01*
X013096Y014876D01*
X013041Y015008D01*
X012997Y015052D01*
X012997Y016808D01*
X013041Y016852D01*
X013096Y016984D01*
X013096Y017126D01*
X013041Y017258D01*
X012997Y017302D01*
X012997Y020357D01*
X012957Y020452D01*
X012884Y020525D01*
X011634Y021775D01*
X011539Y021815D01*
X010484Y021815D01*
X010440Y021859D01*
X010308Y021914D01*
X010166Y021914D01*
X010034Y021859D01*
X009997Y021822D01*
X009997Y021947D01*
X010371Y022321D01*
X010433Y022321D01*
X010565Y022376D01*
X010666Y022477D01*
X010721Y022609D01*
X010721Y022751D01*
X010666Y022883D01*
X010565Y022984D01*
X010433Y023039D01*
X010291Y023039D01*
X010159Y022984D01*
X010058Y022883D01*
X010003Y022751D01*
X010003Y022689D01*
X009516Y022202D01*
X009477Y022107D01*
X009477Y019413D01*
X004516Y014452D01*
X004477Y014357D01*
X004477Y012253D01*
X004516Y012158D01*
X004590Y012085D01*
X005378Y011296D01*
X005378Y011234D01*
X005433Y011102D01*
X005534Y011001D01*
X005666Y010946D01*
X005808Y010946D01*
X005940Y011001D01*
X006041Y011102D01*
X006096Y011234D01*
X006096Y011376D01*
X006041Y011508D01*
X005940Y011609D01*
X005808Y011664D01*
X005746Y011664D01*
X005213Y012196D01*
X005308Y012196D01*
X005440Y012251D01*
X005484Y012295D01*
X007379Y012295D01*
X010257Y009417D01*
X010257Y009329D01*
X010153Y009471D01*
X009825Y009710D01*
X009440Y009835D01*
X002487Y009835D01*
X002374Y009844D01*
X002181Y009907D02*
X009768Y009907D01*
X009707Y009748D02*
X009926Y009748D01*
X009825Y009710D02*
X009825Y009710D01*
X009991Y009590D02*
X010085Y009590D01*
X010153Y009471D02*
X010153Y009471D01*
X010153Y009471D01*
X010183Y009431D02*
X010243Y009431D01*
X010487Y009555D02*
X007487Y012555D01*
X005237Y012555D01*
X005473Y012284D02*
X007390Y012284D01*
X007549Y012126D02*
X005284Y012126D01*
X005443Y011967D02*
X007707Y011967D01*
X007866Y011809D02*
X005601Y011809D01*
X005841Y011650D02*
X008024Y011650D01*
X008183Y011492D02*
X006048Y011492D01*
X006096Y011333D02*
X008341Y011333D01*
X008500Y011175D02*
X006071Y011175D01*
X005955Y011016D02*
X008658Y011016D01*
X008817Y010858D02*
X001767Y010858D01*
X001767Y011016D02*
X005519Y011016D01*
X005403Y011175D02*
X001767Y011175D01*
X001767Y011333D02*
X005341Y011333D01*
X005183Y011492D02*
X001767Y011492D01*
X001767Y011650D02*
X005024Y011650D01*
X004866Y011809D02*
X001767Y011809D01*
X001767Y011967D02*
X004707Y011967D01*
X004549Y012126D02*
X001767Y012126D01*
X001767Y012284D02*
X004477Y012284D01*
X004477Y012443D02*
X001767Y012443D01*
X001767Y012601D02*
X004477Y012601D01*
X004477Y012760D02*
X001767Y012760D01*
X001767Y012918D02*
X004477Y012918D01*
X004477Y013077D02*
X001767Y013077D01*
X001767Y013235D02*
X004477Y013235D01*
X004477Y013394D02*
X001767Y013394D01*
X001767Y013552D02*
X004477Y013552D01*
X004477Y013711D02*
X001767Y013711D01*
X001767Y013869D02*
X004477Y013869D01*
X004477Y014028D02*
X001767Y014028D01*
X001767Y014186D02*
X004477Y014186D01*
X004477Y014345D02*
X001767Y014345D01*
X001767Y014503D02*
X004567Y014503D01*
X004726Y014662D02*
X001767Y014662D01*
X001767Y014820D02*
X004884Y014820D01*
X005043Y014979D02*
X001767Y014979D01*
X001767Y015137D02*
X005201Y015137D01*
X005360Y015296D02*
X001767Y015296D01*
X001767Y015454D02*
X005518Y015454D01*
X005677Y015613D02*
X001767Y015613D01*
X001767Y015771D02*
X005835Y015771D01*
X005994Y015930D02*
X001767Y015930D01*
X001767Y016088D02*
X006152Y016088D01*
X006311Y016247D02*
X001767Y016247D01*
X001767Y016405D02*
X005454Y016405D01*
X005502Y016385D02*
X005834Y016385D01*
X006141Y016512D01*
X006376Y016747D01*
X006503Y017054D01*
X006503Y017386D01*
X006376Y017693D01*
X006141Y017928D01*
X005834Y018055D01*
X005502Y018055D01*
X005195Y017928D01*
X004960Y017693D01*
X004833Y017386D01*
X004833Y017054D01*
X004960Y016747D01*
X005195Y016512D01*
X005502Y016385D01*
X005882Y016405D02*
X006469Y016405D01*
X006628Y016564D02*
X006192Y016564D01*
X006351Y016722D02*
X006786Y016722D01*
X006945Y016881D02*
X006431Y016881D01*
X006497Y017039D02*
X007103Y017039D01*
X007262Y017198D02*
X006503Y017198D01*
X006503Y017356D02*
X007420Y017356D01*
X007579Y017515D02*
X006450Y017515D01*
X006384Y017673D02*
X007737Y017673D01*
X007896Y017832D02*
X006237Y017832D01*
X005991Y017990D02*
X008054Y017990D01*
X008213Y018149D02*
X001767Y018149D01*
X001767Y018307D02*
X008371Y018307D01*
X008530Y018466D02*
X001767Y018466D01*
X001767Y018624D02*
X008688Y018624D01*
X008847Y018783D02*
X001767Y018783D01*
X001767Y018941D02*
X009005Y018941D01*
X009164Y019100D02*
X001767Y019100D01*
X001767Y019258D02*
X009322Y019258D01*
X009477Y019417D02*
X001767Y019417D01*
X001767Y019575D02*
X009477Y019575D01*
X009477Y019734D02*
X001767Y019734D01*
X001767Y019892D02*
X009477Y019892D01*
X009477Y020051D02*
X001767Y020051D01*
X001767Y020209D02*
X009477Y020209D01*
X009477Y020368D02*
X001767Y020368D01*
X001767Y020526D02*
X009477Y020526D01*
X009477Y020685D02*
X001767Y020685D01*
X001767Y020843D02*
X009477Y020843D01*
X009477Y021002D02*
X001767Y021002D01*
X001767Y021160D02*
X009477Y021160D01*
X009477Y021319D02*
X001767Y021319D01*
X001767Y021477D02*
X009477Y021477D01*
X009477Y021636D02*
X006028Y021636D01*
X006141Y021682D02*
X006376Y021917D01*
X006503Y022224D01*
X006503Y022556D01*
X006376Y022863D01*
X006141Y023098D01*
X005834Y023225D01*
X005502Y023225D01*
X005195Y023098D01*
X004960Y022863D01*
X004833Y022556D01*
X004833Y022224D01*
X004960Y021917D01*
X005195Y021682D01*
X005502Y021555D01*
X005834Y021555D01*
X006141Y021682D01*
X006253Y021794D02*
X009477Y021794D01*
X009477Y021953D02*
X006391Y021953D01*
X006456Y022111D02*
X009479Y022111D01*
X009584Y022270D02*
X006503Y022270D01*
X006503Y022428D02*
X009742Y022428D01*
X009901Y022587D02*
X006490Y022587D01*
X006425Y022745D02*
X010003Y022745D01*
X010078Y022904D02*
X006335Y022904D01*
X006177Y023062D02*
X011777Y023062D01*
X011777Y023044D02*
X012046Y022775D01*
X012217Y022775D01*
X012217Y023215D01*
X012257Y023215D01*
X012257Y023255D01*
X012697Y023255D01*
X012697Y023426D01*
X012427Y023695D01*
X012257Y023695D01*
X012257Y023255D01*
X012217Y023255D01*
X012217Y023695D01*
X012046Y023695D01*
X011777Y023426D01*
X011777Y023255D01*
X012217Y023255D01*
X012217Y023215D01*
X011777Y023215D01*
X011777Y023044D01*
X011918Y022904D02*
X010646Y022904D01*
X010721Y022745D02*
X020707Y022745D01*
X020707Y022587D02*
X018536Y022587D01*
X018427Y022695D02*
X018257Y022695D01*
X018257Y022255D01*
X018697Y022255D01*
X018697Y022426D01*
X018427Y022695D01*
X018427Y022775D02*
X018697Y023044D01*
X018697Y023215D01*
X018257Y023215D01*
X018257Y023255D01*
X018697Y023255D01*
X018697Y023426D01*
X018427Y023695D01*
X018257Y023695D01*
X018257Y023255D01*
X018217Y023255D01*
X018217Y023695D01*
X018046Y023695D01*
X017777Y023426D01*
X017777Y023255D01*
X018217Y023255D01*
X018217Y023215D01*
X018257Y023215D01*
X018257Y022775D01*
X018427Y022775D01*
X018556Y022904D02*
X020707Y022904D01*
X020706Y023062D02*
X018697Y023062D01*
X018697Y023379D02*
X020629Y023379D01*
X020681Y023221D02*
X018257Y023221D01*
X018217Y023221D02*
X017717Y023221D01*
X017777Y023215D02*
X017777Y023044D01*
X018046Y022775D01*
X018217Y022775D01*
X018217Y023215D01*
X017777Y023215D01*
X017777Y023062D02*
X017717Y023062D01*
X017717Y023036D02*
X017436Y022755D01*
X017038Y022755D01*
X016757Y023036D01*
X016757Y023434D01*
X017038Y023715D01*
X017436Y023715D01*
X017717Y023434D01*
X017717Y023036D01*
X017584Y022904D02*
X017918Y022904D01*
X018046Y022695D02*
X017777Y022426D01*
X017777Y022255D01*
X018217Y022255D01*
X018217Y022695D01*
X018046Y022695D01*
X017938Y022587D02*
X017564Y022587D01*
X017436Y022715D02*
X017717Y022434D01*
X017717Y022036D01*
X017436Y021755D01*
X017038Y021755D01*
X016757Y022036D01*
X016757Y022434D01*
X017038Y022715D01*
X017436Y022715D01*
X017717Y022428D02*
X017779Y022428D01*
X017777Y022270D02*
X017717Y022270D01*
X017777Y022215D02*
X017777Y022044D01*
X018046Y021775D01*
X018217Y021775D01*
X018217Y022215D01*
X018257Y022215D01*
X018257Y022255D01*
X018217Y022255D01*
X018217Y022215D01*
X017777Y022215D01*
X017777Y022111D02*
X017717Y022111D01*
X017633Y021953D02*
X017869Y021953D01*
X018027Y021794D02*
X017475Y021794D01*
X017277Y021477D02*
X011933Y021477D01*
X012091Y021319D02*
X017156Y021319D01*
X017128Y021160D02*
X012250Y021160D01*
X012408Y021002D02*
X017172Y021002D01*
X017363Y020843D02*
X012567Y020843D01*
X012725Y020685D02*
X017615Y020685D01*
X017773Y020526D02*
X012884Y020526D01*
X012992Y020368D02*
X017932Y020368D01*
X018090Y020209D02*
X012997Y020209D01*
X012997Y020051D02*
X018249Y020051D01*
X018407Y019892D02*
X012997Y019892D01*
X012997Y019734D02*
X018477Y019734D01*
X018477Y019575D02*
X012997Y019575D01*
X012997Y019417D02*
X018477Y019417D01*
X018477Y019258D02*
X012997Y019258D01*
X012997Y019100D02*
X018477Y019100D01*
X018477Y018941D02*
X012997Y018941D01*
X012997Y018783D02*
X018477Y018783D01*
X018477Y018624D02*
X012997Y018624D01*
X012997Y018466D02*
X018477Y018466D01*
X018477Y018307D02*
X012997Y018307D01*
X012997Y018149D02*
X018477Y018149D01*
X018477Y017990D02*
X012997Y017990D01*
X012997Y017832D02*
X018477Y017832D01*
X018477Y017673D02*
X012997Y017673D01*
X012997Y017515D02*
X018477Y017515D01*
X018477Y017356D02*
X012997Y017356D01*
X013066Y017198D02*
X018477Y017198D01*
X018477Y017039D02*
X013096Y017039D01*
X013053Y016881D02*
X018477Y016881D01*
X018477Y016722D02*
X012997Y016722D01*
X012997Y016564D02*
X018477Y016564D01*
X018477Y016405D02*
X012997Y016405D01*
X012997Y016247D02*
X018477Y016247D01*
X018477Y016088D02*
X012997Y016088D01*
X012997Y015930D02*
X018477Y015930D01*
X018477Y015771D02*
X012997Y015771D01*
X012997Y015613D02*
X018477Y015613D01*
X018477Y015454D02*
X012997Y015454D01*
X012997Y015296D02*
X018477Y015296D01*
X018477Y015137D02*
X012997Y015137D01*
X013053Y014979D02*
X018477Y014979D01*
X018477Y014820D02*
X013096Y014820D01*
X013066Y014662D02*
X018477Y014662D01*
X018477Y014503D02*
X012942Y014503D01*
X012724Y014186D02*
X018477Y014186D01*
X018477Y014028D02*
X012882Y014028D01*
X013041Y013869D02*
X018477Y013869D01*
X018477Y013711D02*
X013199Y013711D01*
X013358Y013552D02*
X018477Y013552D01*
X018477Y013394D02*
X013516Y013394D01*
X013675Y013235D02*
X018477Y013235D01*
X018477Y013077D02*
X013833Y013077D01*
X013992Y012918D02*
X018477Y012918D01*
X018477Y012760D02*
X014150Y012760D01*
X014309Y012601D02*
X018477Y012601D01*
X018477Y012443D02*
X014467Y012443D01*
X014626Y012284D02*
X018477Y012284D01*
X018477Y012126D02*
X014784Y012126D01*
X014943Y011967D02*
X018477Y011967D01*
X018477Y011809D02*
X015101Y011809D01*
X015260Y011650D02*
X018477Y011650D01*
X018477Y011492D02*
X015418Y011492D01*
X015577Y011333D02*
X018477Y011333D01*
X018477Y011175D02*
X015735Y011175D01*
X015894Y011016D02*
X018477Y011016D01*
X018477Y010858D02*
X016052Y010858D01*
X016211Y010699D02*
X018477Y010699D01*
X018477Y010541D02*
X016369Y010541D01*
X016528Y010382D02*
X018477Y010382D01*
X018477Y010224D02*
X016686Y010224D01*
X016845Y010065D02*
X018477Y010065D01*
X018477Y009907D02*
X017003Y009907D01*
X017162Y009748D02*
X018477Y009748D01*
X018477Y009590D02*
X017320Y009590D01*
X017479Y009431D02*
X018477Y009431D01*
X018477Y009273D02*
X017637Y009273D01*
X017796Y009114D02*
X018477Y009114D01*
X018477Y008956D02*
X017954Y008956D01*
X018113Y008797D02*
X018477Y008797D01*
X018477Y008639D02*
X018271Y008639D01*
X018430Y008480D02*
X018477Y008480D01*
X018237Y008305D02*
X012356Y014186D01*
X011656Y014186D01*
X011365Y014503D02*
X007553Y014503D01*
X007711Y014662D02*
X011360Y014662D01*
X011254Y014820D02*
X007870Y014820D01*
X008028Y014979D02*
X011226Y014979D01*
X011259Y015137D02*
X008187Y015137D01*
X008345Y015296D02*
X011370Y015296D01*
X011942Y015296D02*
X012477Y015296D01*
X012477Y015454D02*
X008504Y015454D01*
X008662Y015613D02*
X012477Y015613D01*
X012477Y015771D02*
X008821Y015771D01*
X008979Y015930D02*
X012477Y015930D01*
X012477Y016088D02*
X009138Y016088D01*
X009296Y016247D02*
X012477Y016247D01*
X012477Y016405D02*
X010869Y016405D01*
X010820Y016385D02*
X010975Y016449D01*
X011093Y016567D01*
X011157Y016721D01*
X011157Y016889D01*
X011093Y017043D01*
X010975Y017161D01*
X010820Y017225D01*
X010653Y017225D01*
X010499Y017161D01*
X010381Y017043D01*
X010317Y016889D01*
X010317Y016721D01*
X010381Y016567D01*
X010499Y016449D01*
X010653Y016385D01*
X010820Y016385D01*
X010605Y016405D02*
X009455Y016405D01*
X009497Y016564D02*
X010384Y016564D01*
X010317Y016722D02*
X009497Y016722D01*
X009497Y016881D02*
X010317Y016881D01*
X010379Y017039D02*
X009589Y017039D01*
X009747Y017198D02*
X010587Y017198D01*
X010887Y017198D02*
X012408Y017198D01*
X012378Y017039D02*
X011095Y017039D01*
X011157Y016881D02*
X012421Y016881D01*
X012477Y016722D02*
X011157Y016722D01*
X011089Y016564D02*
X012477Y016564D01*
X012737Y017055D02*
X012737Y014805D01*
X012408Y014662D02*
X011952Y014662D01*
X011947Y014503D02*
X012532Y014503D01*
X012565Y014345D02*
X018477Y014345D01*
X018997Y014345D02*
X019918Y014345D01*
X019888Y014186D02*
X018997Y014186D01*
X018997Y014028D02*
X019918Y014028D01*
X020026Y013869D02*
X018997Y013869D01*
X018997Y013711D02*
X020021Y013711D01*
X019916Y013552D02*
X018997Y013552D01*
X018997Y013394D02*
X019888Y013394D01*
X019920Y013235D02*
X018997Y013235D01*
X018997Y013077D02*
X020031Y013077D01*
X020016Y012918D02*
X018997Y012918D01*
X018997Y012760D02*
X019914Y012760D01*
X019888Y012601D02*
X018997Y012601D01*
X018997Y012443D02*
X019922Y012443D01*
X020037Y012284D02*
X018997Y012284D01*
X018997Y012126D02*
X020011Y012126D01*
X019912Y011967D02*
X018997Y011967D01*
X018997Y011809D02*
X019888Y011809D01*
X019924Y011650D02*
X018997Y011650D01*
X018997Y011492D02*
X020042Y011492D01*
X020006Y011333D02*
X018997Y011333D01*
X018997Y011175D02*
X019909Y011175D01*
X019888Y011016D02*
X018997Y011016D01*
X018997Y010858D02*
X019926Y010858D01*
X020047Y010699D02*
X018997Y010699D01*
X018997Y010541D02*
X020001Y010541D01*
X019907Y010382D02*
X018997Y010382D01*
X018997Y010224D02*
X019888Y010224D01*
X019928Y010065D02*
X018997Y010065D01*
X018997Y009907D02*
X020052Y009907D01*
X019996Y009748D02*
X018997Y009748D01*
X018997Y009590D02*
X019905Y009590D01*
X019888Y009431D02*
X018997Y009431D01*
X018997Y009273D02*
X019930Y009273D01*
X020057Y009114D02*
X018997Y009114D01*
X018997Y008956D02*
X019991Y008956D01*
X019903Y008797D02*
X018997Y008797D01*
X018997Y008639D02*
X019888Y008639D01*
X019933Y008480D02*
X018997Y008480D01*
X018997Y008322D02*
X020062Y008322D01*
X019986Y008163D02*
X018997Y008163D01*
X018997Y008005D02*
X019901Y008005D01*
X019888Y007846D02*
X018997Y007846D01*
X018997Y007688D02*
X019935Y007688D01*
X020067Y007529D02*
X018997Y007529D01*
X018997Y007371D02*
X020707Y007371D01*
X020707Y007529D02*
X020568Y007529D01*
X020701Y007688D02*
X020707Y007688D01*
X020707Y007212D02*
X018997Y007212D01*
X018997Y007054D02*
X020707Y007054D01*
X020707Y006895D02*
X018997Y006895D01*
X018997Y006737D02*
X020707Y006737D01*
X020707Y006578D02*
X018997Y006578D01*
X018997Y006420D02*
X020707Y006420D01*
X020707Y006261D02*
X018997Y006261D01*
X018997Y006103D02*
X020707Y006103D01*
X020707Y005944D02*
X018997Y005944D01*
X018997Y005786D02*
X020707Y005786D01*
X020707Y005627D02*
X018997Y005627D01*
X018997Y005469D02*
X020707Y005469D01*
X020707Y005310D02*
X018997Y005310D01*
X018997Y005152D02*
X020707Y005152D01*
X020707Y004993D02*
X018997Y004993D01*
X018997Y004835D02*
X020707Y004835D01*
X020707Y004676D02*
X018997Y004676D01*
X018997Y004518D02*
X020707Y004518D01*
X020707Y004359D02*
X018997Y004359D01*
X018997Y004201D02*
X020707Y004201D01*
X020707Y004042D02*
X018997Y004042D01*
X019087Y003884D02*
X020707Y003884D01*
X020707Y003725D02*
X019217Y003725D01*
X019217Y003567D02*
X020707Y003567D01*
X020707Y003408D02*
X019217Y003408D01*
X019110Y003250D02*
X020707Y003250D01*
X020707Y003091D02*
X018952Y003091D01*
X019038Y002933D02*
X020707Y002933D01*
X020707Y002774D02*
X019197Y002774D01*
X019217Y002616D02*
X020707Y002616D01*
X020707Y002457D02*
X019217Y002457D01*
X019323Y002299D02*
X020707Y002299D01*
X020707Y002140D02*
X019352Y002140D01*
X019352Y001982D02*
X020707Y001982D01*
X020707Y001823D02*
X019352Y001823D01*
X019352Y001665D02*
X020707Y001665D01*
X020703Y001506D02*
X019352Y001506D01*
X019337Y001348D02*
X020667Y001348D01*
X020600Y001189D02*
X019210Y001189D01*
X019052Y001031D02*
X020475Y001031D01*
X020186Y000872D02*
X018893Y000872D01*
X018315Y002299D02*
X018159Y002299D01*
X018217Y002457D02*
X018257Y002457D01*
X018257Y002616D02*
X018217Y002616D01*
X018197Y002774D02*
X018277Y002774D01*
X018436Y002933D02*
X018038Y002933D01*
X017952Y003091D02*
X018522Y003091D01*
X018364Y003250D02*
X018110Y003250D01*
X018217Y003408D02*
X018257Y003408D01*
X018257Y003567D02*
X018217Y003567D01*
X018217Y003725D02*
X018257Y003725D01*
X018387Y003884D02*
X018087Y003884D01*
X018237Y004305D02*
X018237Y008305D01*
X017737Y008055D02*
X012393Y013399D01*
X011656Y013399D01*
X011360Y013711D02*
X007699Y013711D01*
X007858Y013552D02*
X011254Y013552D01*
X011226Y013394D02*
X008016Y013394D01*
X008175Y013235D02*
X011258Y013235D01*
X011370Y013077D02*
X008333Y013077D01*
X008492Y012918D02*
X011355Y012918D01*
X011252Y012760D02*
X008650Y012760D01*
X008809Y012601D02*
X011226Y012601D01*
X011261Y012443D02*
X008967Y012443D01*
X009126Y012284D02*
X011375Y012284D01*
X011350Y012126D02*
X009284Y012126D01*
X009443Y011967D02*
X011250Y011967D01*
X011226Y011809D02*
X009601Y011809D01*
X009760Y011650D02*
X011263Y011650D01*
X011380Y011492D02*
X009918Y011492D01*
X010077Y011333D02*
X011345Y011333D01*
X011248Y011175D02*
X010235Y011175D01*
X010394Y011016D02*
X011226Y011016D01*
X011265Y010858D02*
X010552Y010858D01*
X010711Y010699D02*
X011385Y010699D01*
X011340Y010541D02*
X010869Y010541D01*
X011028Y010382D02*
X011246Y010382D01*
X011226Y010224D02*
X011186Y010224D01*
X011247Y010065D02*
X011267Y010065D01*
X011247Y009907D02*
X011390Y009907D01*
X011335Y009748D02*
X011247Y009748D01*
X010987Y010055D02*
X010987Y007805D01*
X011737Y007055D01*
X012487Y007055D01*
X014674Y004868D01*
X014316Y004859D02*
X014316Y004796D01*
X014370Y004664D01*
X014471Y004563D01*
X014603Y004509D01*
X014746Y004509D01*
X014878Y004563D01*
X014956Y004641D01*
X015034Y004563D01*
X015166Y004509D01*
X015308Y004509D01*
X015440Y004563D01*
X015541Y004664D01*
X015596Y004796D01*
X015596Y004939D01*
X015541Y005071D01*
X015440Y005172D01*
X015308Y005226D01*
X015246Y005226D01*
X012997Y007475D01*
X012997Y011808D01*
X013041Y011852D01*
X013096Y011984D01*
X013096Y012126D01*
X013041Y012258D01*
X012940Y012359D01*
X012808Y012414D01*
X012666Y012414D01*
X012534Y012359D01*
X012433Y012258D01*
X012378Y012126D01*
X012378Y011984D01*
X012433Y011852D01*
X012477Y011808D01*
X012477Y007316D01*
X012477Y007315D01*
X011845Y007315D01*
X011683Y007477D01*
X011688Y007477D01*
X011752Y007487D01*
X011814Y007507D01*
X011871Y007536D01*
X011923Y007574D01*
X011969Y007620D01*
X012007Y007672D01*
X012036Y007729D01*
X012056Y007791D01*
X012066Y007854D01*
X012066Y007887D01*
X012066Y007919D01*
X012056Y007983D01*
X012036Y008044D01*
X012007Y008102D01*
X011969Y008154D01*
X011923Y008199D01*
X011871Y008237D01*
X011814Y008267D01*
X011804Y008270D01*
X011900Y008310D01*
X012021Y008431D01*
X012086Y008589D01*
X012086Y008760D01*
X012021Y008918D01*
X011900Y009039D01*
X011829Y009068D01*
X011900Y009097D01*
X012021Y009218D01*
X012086Y009376D01*
X012086Y009547D01*
X012021Y009705D01*
X011900Y009826D01*
X011829Y009855D01*
X011900Y009884D01*
X012021Y010005D01*
X012086Y010163D01*
X012086Y010334D01*
X012021Y010492D01*
X011900Y010613D01*
X011829Y010643D01*
X011900Y010672D01*
X012021Y010793D01*
X012086Y010951D01*
X012086Y011122D01*
X012021Y011280D01*
X011900Y011401D01*
X011829Y011430D01*
X011900Y011459D01*
X012021Y011580D01*
X012086Y011738D01*
X012086Y011909D01*
X012021Y012067D01*
X011900Y012188D01*
X011829Y012217D01*
X011900Y012247D01*
X012021Y012368D01*
X012086Y012526D01*
X012086Y012697D01*
X012021Y012855D01*
X011900Y012976D01*
X011829Y013005D01*
X011900Y013034D01*
X012004Y013139D01*
X012286Y013139D01*
X017477Y007947D01*
X017477Y003974D01*
X017257Y003754D01*
X017257Y003400D01*
X017142Y003285D01*
X017117Y003285D01*
X017197Y003364D01*
X017197Y003535D01*
X016757Y003535D01*
X016757Y003575D01*
X017197Y003575D01*
X017197Y003746D01*
X016927Y004015D01*
X016757Y004015D01*
X016757Y003575D01*
X016717Y003575D01*
X016717Y004015D01*
X016546Y004015D01*
X016277Y003746D01*
X016277Y003575D01*
X016717Y003575D01*
X016717Y003535D01*
X016277Y003535D01*
X016277Y003364D01*
X016374Y003267D01*
X016257Y003150D01*
X016039Y002932D01*
X015936Y003035D01*
X015538Y003035D01*
X015257Y002754D01*
X015257Y002356D01*
X015535Y002078D01*
X015420Y002030D01*
X015262Y001872D01*
X015237Y001811D01*
X015212Y001872D01*
X015054Y002030D01*
X014938Y002078D01*
X015217Y002356D01*
X015217Y002754D01*
X014936Y003035D01*
X014538Y003035D01*
X014435Y002932D01*
X014217Y003150D01*
X014100Y003267D01*
X014197Y003364D01*
X014197Y003535D01*
X013757Y003535D01*
X013757Y003575D01*
X014197Y003575D01*
X014197Y003727D01*
X014257Y003667D01*
X014257Y003356D01*
X014538Y003075D01*
X014936Y003075D01*
X015217Y003356D01*
X015217Y003754D01*
X014936Y004035D01*
X014625Y004035D01*
X013213Y005446D01*
X013308Y005446D01*
X013440Y005501D01*
X013541Y005602D01*
X013550Y005624D01*
X014316Y004859D01*
X014316Y004835D02*
X013825Y004835D01*
X013667Y004993D02*
X014181Y004993D01*
X014023Y005152D02*
X013508Y005152D01*
X013350Y005310D02*
X013864Y005310D01*
X013706Y005469D02*
X013362Y005469D01*
X012931Y004993D02*
X010517Y004993D01*
X010517Y004835D02*
X013090Y004835D01*
X013248Y004676D02*
X010517Y004676D01*
X010517Y004518D02*
X013407Y004518D01*
X013565Y004359D02*
X010517Y004359D01*
X010517Y004201D02*
X013724Y004201D01*
X013717Y004015D02*
X013546Y004015D01*
X013277Y003746D01*
X013277Y003575D01*
X013717Y003575D01*
X013717Y004015D01*
X013757Y004015D02*
X013757Y003575D01*
X013717Y003575D01*
X013717Y003535D01*
X013277Y003535D01*
X013277Y003364D01*
X013356Y003285D01*
X013117Y003285D01*
X013197Y003364D01*
X013197Y003535D01*
X012757Y003535D01*
X012757Y003575D01*
X013197Y003575D01*
X013197Y003746D01*
X012927Y004015D01*
X012757Y004015D01*
X012757Y003575D01*
X012717Y003575D01*
X012717Y004015D01*
X012546Y004015D01*
X012277Y003746D01*
X012277Y003575D01*
X012717Y003575D01*
X012717Y003535D01*
X012277Y003535D01*
X012277Y003364D01*
X012356Y003285D01*
X012332Y003285D01*
X012217Y003400D01*
X012217Y003754D01*
X011936Y004035D01*
X011538Y004035D01*
X011257Y003754D01*
X011257Y003356D01*
X011538Y003075D01*
X011892Y003075D01*
X011932Y003035D01*
X011538Y003035D01*
X011257Y002754D01*
X011257Y002356D01*
X011538Y002075D01*
X011936Y002075D01*
X012217Y002356D01*
X012217Y002754D01*
X012146Y002825D01*
X012328Y002825D01*
X012257Y002754D01*
X012257Y002356D01*
X012538Y002075D01*
X012590Y002075D01*
X012530Y002055D01*
X012454Y002017D01*
X012385Y001967D01*
X012325Y001907D01*
X012275Y001838D01*
X012236Y001762D01*
X012210Y001681D01*
X012197Y001597D01*
X012197Y001573D01*
X012718Y001573D01*
X012718Y001537D01*
X012197Y001537D01*
X012197Y001513D01*
X012210Y001429D01*
X012236Y001348D01*
X012275Y001272D01*
X012325Y001203D01*
X012385Y001143D01*
X012454Y001093D01*
X012530Y001055D01*
X012610Y001028D01*
X012694Y001015D01*
X012718Y001015D01*
X012718Y001537D01*
X012755Y001537D01*
X012755Y001015D01*
X012779Y001015D01*
X012863Y001028D01*
X012944Y001055D01*
X013020Y001093D01*
X013089Y001143D01*
X013149Y001203D01*
X013199Y001272D01*
X013226Y001325D01*
X013262Y001238D01*
X013420Y001080D01*
X013625Y000995D01*
X013848Y000995D01*
X013925Y001027D01*
X014117Y000835D01*
X011237Y000835D01*
X011124Y000844D01*
X010910Y000913D01*
X010728Y001046D01*
X010595Y001228D01*
X010526Y001442D01*
X010517Y001555D01*
X010517Y006950D01*
X010986Y006480D01*
X011016Y006408D01*
X011090Y006335D01*
X011185Y006295D01*
X011629Y006295D01*
X013909Y004015D01*
X013757Y004015D01*
X013882Y004042D02*
X010517Y004042D01*
X010517Y003884D02*
X011387Y003884D01*
X011257Y003725D02*
X010517Y003725D01*
X010517Y003567D02*
X011257Y003567D01*
X011257Y003408D02*
X010517Y003408D01*
X010517Y003250D02*
X011364Y003250D01*
X011522Y003091D02*
X010517Y003091D01*
X010517Y002933D02*
X011436Y002933D01*
X011277Y002774D02*
X010517Y002774D01*
X010517Y002616D02*
X011257Y002616D01*
X011257Y002457D02*
X010517Y002457D01*
X010517Y002299D02*
X011315Y002299D01*
X011473Y002140D02*
X010517Y002140D01*
X010517Y001982D02*
X012405Y001982D01*
X012473Y002140D02*
X012001Y002140D01*
X012159Y002299D02*
X012315Y002299D01*
X012257Y002457D02*
X012217Y002457D01*
X012217Y002616D02*
X012257Y002616D01*
X012277Y002774D02*
X012197Y002774D01*
X012217Y003408D02*
X012277Y003408D01*
X012217Y003567D02*
X012717Y003567D01*
X012757Y003567D02*
X013717Y003567D01*
X013757Y003567D02*
X014257Y003567D01*
X014257Y003408D02*
X014197Y003408D01*
X014118Y003250D02*
X014364Y003250D01*
X014276Y003091D02*
X014522Y003091D01*
X014436Y002933D02*
X014435Y002933D01*
X014952Y003091D02*
X015522Y003091D01*
X015538Y003075D02*
X015936Y003075D01*
X016217Y003356D01*
X016217Y003754D01*
X015936Y004035D01*
X015538Y004035D01*
X015257Y003754D01*
X015257Y003356D01*
X015538Y003075D01*
X015436Y002933D02*
X015038Y002933D01*
X015197Y002774D02*
X015277Y002774D01*
X015257Y002616D02*
X015217Y002616D01*
X015217Y002457D02*
X015257Y002457D01*
X015315Y002299D02*
X015159Y002299D01*
X015001Y002140D02*
X015473Y002140D01*
X015371Y001982D02*
X015102Y001982D01*
X015232Y001823D02*
X015242Y001823D01*
X016038Y002933D02*
X016039Y002933D01*
X015952Y003091D02*
X016198Y003091D01*
X016110Y003250D02*
X016356Y003250D01*
X016277Y003408D02*
X016217Y003408D01*
X016217Y003567D02*
X016717Y003567D01*
X016757Y003567D02*
X017257Y003567D01*
X017257Y003725D02*
X017197Y003725D01*
X017059Y003884D02*
X017387Y003884D01*
X017477Y004042D02*
X014618Y004042D01*
X014459Y004201D02*
X017477Y004201D01*
X017477Y004359D02*
X014301Y004359D01*
X014142Y004518D02*
X014582Y004518D01*
X014767Y004518D02*
X015144Y004518D01*
X015329Y004518D02*
X017477Y004518D01*
X017477Y004676D02*
X015546Y004676D01*
X015596Y004835D02*
X017477Y004835D01*
X017477Y004993D02*
X015573Y004993D01*
X015460Y005152D02*
X017477Y005152D01*
X017477Y005310D02*
X015162Y005310D01*
X015004Y005469D02*
X015691Y005469D01*
X015683Y005477D02*
X015784Y005376D01*
X015916Y005321D01*
X016058Y005321D01*
X016190Y005376D01*
X016291Y005477D01*
X016346Y005609D01*
X016346Y005751D01*
X016291Y005883D01*
X016190Y005984D01*
X016058Y006039D01*
X015996Y006039D01*
X015259Y006775D01*
X015164Y006815D01*
X014734Y006815D01*
X014690Y006859D01*
X014558Y006914D01*
X014416Y006914D01*
X014284Y006859D01*
X014183Y006758D01*
X014128Y006626D01*
X014128Y006484D01*
X014183Y006352D01*
X014284Y006251D01*
X014416Y006196D01*
X014558Y006196D01*
X014690Y006251D01*
X014734Y006295D01*
X015004Y006295D01*
X015628Y005671D01*
X015628Y005609D01*
X015683Y005477D01*
X015628Y005627D02*
X014845Y005627D01*
X014687Y005786D02*
X015514Y005786D01*
X015355Y005944D02*
X014528Y005944D01*
X014370Y006103D02*
X015197Y006103D01*
X015038Y006261D02*
X014700Y006261D01*
X014487Y006555D02*
X015112Y006555D01*
X015987Y005680D01*
X016230Y005944D02*
X017477Y005944D01*
X017477Y005786D02*
X016331Y005786D01*
X016346Y005627D02*
X017477Y005627D01*
X017477Y005469D02*
X016283Y005469D01*
X015932Y006103D02*
X017477Y006103D01*
X017477Y006261D02*
X015774Y006261D01*
X015615Y006420D02*
X017477Y006420D01*
X017477Y006578D02*
X015457Y006578D01*
X015298Y006737D02*
X017477Y006737D01*
X017477Y006895D02*
X014603Y006895D01*
X014370Y006895D02*
X013577Y006895D01*
X013419Y007054D02*
X017477Y007054D01*
X017477Y007212D02*
X013260Y007212D01*
X013102Y007371D02*
X017477Y007371D01*
X017477Y007529D02*
X012997Y007529D01*
X012997Y007688D02*
X017477Y007688D01*
X017477Y007846D02*
X012997Y007846D01*
X012997Y008005D02*
X017420Y008005D01*
X017261Y008163D02*
X012997Y008163D01*
X012997Y008322D02*
X017103Y008322D01*
X016944Y008480D02*
X012997Y008480D01*
X012997Y008639D02*
X016786Y008639D01*
X016627Y008797D02*
X012997Y008797D01*
X012997Y008956D02*
X016469Y008956D01*
X016310Y009114D02*
X012997Y009114D01*
X012997Y009273D02*
X016152Y009273D01*
X015993Y009431D02*
X012997Y009431D01*
X012997Y009590D02*
X015835Y009590D01*
X015676Y009748D02*
X012997Y009748D01*
X012997Y009907D02*
X015518Y009907D01*
X015359Y010065D02*
X012997Y010065D01*
X012997Y010224D02*
X015201Y010224D01*
X015042Y010382D02*
X012997Y010382D01*
X012997Y010541D02*
X014884Y010541D01*
X014725Y010699D02*
X012997Y010699D01*
X012997Y010858D02*
X014567Y010858D01*
X014408Y011016D02*
X012997Y011016D01*
X012997Y011175D02*
X014250Y011175D01*
X014091Y011333D02*
X012997Y011333D01*
X012997Y011492D02*
X013933Y011492D01*
X013774Y011650D02*
X012997Y011650D01*
X012998Y011809D02*
X013616Y011809D01*
X013457Y011967D02*
X013089Y011967D01*
X013096Y012126D02*
X013299Y012126D01*
X013140Y012284D02*
X013015Y012284D01*
X012982Y012443D02*
X012052Y012443D01*
X012086Y012601D02*
X012823Y012601D01*
X012665Y012760D02*
X012060Y012760D01*
X011957Y012918D02*
X012506Y012918D01*
X012348Y013077D02*
X011942Y013077D01*
X011365Y013869D02*
X006919Y013869D01*
X007077Y014028D02*
X011256Y014028D01*
X011226Y014186D02*
X007236Y014186D01*
X007394Y014345D02*
X011256Y014345D01*
X012058Y014820D02*
X012378Y014820D01*
X012420Y014979D02*
X012086Y014979D01*
X012054Y015137D02*
X012477Y015137D01*
X012737Y017055D02*
X012737Y020305D01*
X011487Y021555D01*
X010237Y021555D01*
X010002Y021953D02*
X011841Y021953D01*
X011757Y022036D02*
X012038Y021755D01*
X012436Y021755D01*
X012717Y022036D01*
X012717Y022434D01*
X012436Y022715D01*
X012038Y022715D01*
X011757Y022434D01*
X011757Y022036D01*
X011757Y022111D02*
X010161Y022111D01*
X010319Y022270D02*
X011757Y022270D01*
X011757Y022428D02*
X010617Y022428D01*
X010711Y022587D02*
X011910Y022587D01*
X012257Y022775D02*
X012427Y022775D01*
X012697Y023044D01*
X012697Y023215D01*
X012257Y023215D01*
X012257Y022775D01*
X012257Y022904D02*
X012217Y022904D01*
X012217Y023062D02*
X012257Y023062D01*
X012257Y023221D02*
X013217Y023221D01*
X013217Y023215D02*
X012777Y023215D01*
X012777Y023044D01*
X013046Y022775D01*
X013217Y022775D01*
X013217Y023215D01*
X013257Y023215D01*
X013257Y023255D01*
X013697Y023255D01*
X013697Y023426D01*
X013427Y023695D01*
X013257Y023695D01*
X013257Y023255D01*
X013217Y023255D01*
X013217Y023695D01*
X013046Y023695D01*
X012777Y023426D01*
X012777Y023255D01*
X013217Y023255D01*
X013217Y023215D01*
X013257Y023215D02*
X013257Y022775D01*
X013427Y022775D01*
X013697Y023044D01*
X013697Y023215D01*
X013257Y023215D01*
X013257Y023221D02*
X014217Y023221D01*
X014217Y023215D02*
X013777Y023215D01*
X013777Y023044D01*
X014046Y022775D01*
X014217Y022775D01*
X014217Y023215D01*
X014257Y023215D01*
X014257Y023255D01*
X014697Y023255D01*
X014697Y023426D01*
X014427Y023695D01*
X014257Y023695D01*
X014257Y023255D01*
X014217Y023255D01*
X014217Y023695D01*
X014046Y023695D01*
X013777Y023426D01*
X013777Y023255D01*
X014217Y023255D01*
X014217Y023215D01*
X014257Y023215D02*
X014257Y022775D01*
X014427Y022775D01*
X014697Y023044D01*
X014697Y023215D01*
X014257Y023215D01*
X014257Y023221D02*
X015217Y023221D01*
X015217Y023215D02*
X014777Y023215D01*
X014777Y023044D01*
X015046Y022775D01*
X015217Y022775D01*
X015217Y023215D01*
X015257Y023215D01*
X015257Y023255D01*
X015697Y023255D01*
X015697Y023426D01*
X015427Y023695D01*
X015257Y023695D01*
X015257Y023255D01*
X015217Y023255D01*
X015217Y023695D01*
X015046Y023695D01*
X014777Y023426D01*
X014777Y023255D01*
X015217Y023255D01*
X015217Y023215D01*
X015257Y023215D02*
X015257Y022775D01*
X015427Y022775D01*
X015697Y023044D01*
X015697Y023215D01*
X015257Y023215D01*
X015257Y023221D02*
X016217Y023221D01*
X016217Y023215D02*
X015777Y023215D01*
X015777Y023044D01*
X016046Y022775D01*
X016217Y022775D01*
X016217Y023215D01*
X016257Y023215D01*
X016257Y023255D01*
X016697Y023255D01*
X016697Y023426D01*
X016427Y023695D01*
X016257Y023695D01*
X016257Y023255D01*
X016217Y023255D01*
X016217Y023695D01*
X016046Y023695D01*
X015777Y023426D01*
X015777Y023255D01*
X016217Y023255D01*
X016217Y023215D01*
X016257Y023215D02*
X016257Y022775D01*
X016427Y022775D01*
X016697Y023044D01*
X016697Y023215D01*
X016257Y023215D01*
X016257Y023221D02*
X016757Y023221D01*
X016757Y023379D02*
X016697Y023379D01*
X016585Y023538D02*
X016861Y023538D01*
X017019Y023696D02*
X002159Y023696D01*
X001958Y023538D02*
X011889Y023538D01*
X011777Y023379D02*
X001844Y023379D01*
X001793Y023221D02*
X005491Y023221D01*
X005845Y023221D02*
X012217Y023221D01*
X012217Y023379D02*
X012257Y023379D01*
X012257Y023538D02*
X012217Y023538D01*
X012585Y023538D02*
X012889Y023538D01*
X012777Y023379D02*
X012697Y023379D01*
X012697Y023062D02*
X012777Y023062D01*
X012918Y022904D02*
X012556Y022904D01*
X012564Y022587D02*
X012910Y022587D01*
X013038Y022715D02*
X012757Y022434D01*
X012757Y022036D01*
X013038Y021755D01*
X013436Y021755D01*
X013717Y022036D01*
X013717Y022434D01*
X013436Y022715D01*
X013038Y022715D01*
X013217Y022904D02*
X013257Y022904D01*
X013257Y023062D02*
X013217Y023062D01*
X013217Y023379D02*
X013257Y023379D01*
X013257Y023538D02*
X013217Y023538D01*
X013585Y023538D02*
X013889Y023538D01*
X013777Y023379D02*
X013697Y023379D01*
X013697Y023062D02*
X013777Y023062D01*
X013918Y022904D02*
X013556Y022904D01*
X013564Y022587D02*
X013910Y022587D01*
X014038Y022715D02*
X013757Y022434D01*
X013757Y022036D01*
X014038Y021755D01*
X014436Y021755D01*
X014717Y022036D01*
X014717Y022434D01*
X014436Y022715D01*
X014038Y022715D01*
X014217Y022904D02*
X014257Y022904D01*
X014257Y023062D02*
X014217Y023062D01*
X014217Y023379D02*
X014257Y023379D01*
X014257Y023538D02*
X014217Y023538D01*
X014585Y023538D02*
X014889Y023538D01*
X014777Y023379D02*
X014697Y023379D01*
X014697Y023062D02*
X014777Y023062D01*
X014918Y022904D02*
X014556Y022904D01*
X014564Y022587D02*
X014910Y022587D01*
X015038Y022715D02*
X014757Y022434D01*
X014757Y022036D01*
X015038Y021755D01*
X015436Y021755D01*
X015717Y022036D01*
X015717Y022434D01*
X015436Y022715D01*
X015038Y022715D01*
X015217Y022904D02*
X015257Y022904D01*
X015257Y023062D02*
X015217Y023062D01*
X015217Y023379D02*
X015257Y023379D01*
X015257Y023538D02*
X015217Y023538D01*
X015585Y023538D02*
X015889Y023538D01*
X015777Y023379D02*
X015697Y023379D01*
X015697Y023062D02*
X015777Y023062D01*
X015918Y022904D02*
X015556Y022904D01*
X015564Y022587D02*
X015910Y022587D01*
X016038Y022715D02*
X015757Y022434D01*
X015757Y022036D01*
X016038Y021755D01*
X016436Y021755D01*
X016717Y022036D01*
X016717Y022434D01*
X016436Y022715D01*
X016038Y022715D01*
X016217Y022904D02*
X016257Y022904D01*
X016257Y023062D02*
X016217Y023062D01*
X016217Y023379D02*
X016257Y023379D01*
X016257Y023538D02*
X016217Y023538D01*
X016556Y022904D02*
X016890Y022904D01*
X016757Y023062D02*
X016697Y023062D01*
X016564Y022587D02*
X016910Y022587D01*
X016757Y022428D02*
X016717Y022428D01*
X016717Y022270D02*
X016757Y022270D01*
X016757Y022111D02*
X016717Y022111D01*
X016633Y021953D02*
X016841Y021953D01*
X016999Y021794D02*
X016475Y021794D01*
X015999Y021794D02*
X015475Y021794D01*
X015633Y021953D02*
X015841Y021953D01*
X015757Y022111D02*
X015717Y022111D01*
X015717Y022270D02*
X015757Y022270D01*
X015757Y022428D02*
X015717Y022428D01*
X014999Y021794D02*
X014475Y021794D01*
X014633Y021953D02*
X014841Y021953D01*
X014757Y022111D02*
X014717Y022111D01*
X014717Y022270D02*
X014757Y022270D01*
X014757Y022428D02*
X014717Y022428D01*
X013999Y021794D02*
X013475Y021794D01*
X013633Y021953D02*
X013841Y021953D01*
X013757Y022111D02*
X013717Y022111D01*
X013717Y022270D02*
X013757Y022270D01*
X013757Y022428D02*
X013717Y022428D01*
X012999Y021794D02*
X012475Y021794D01*
X012633Y021953D02*
X012841Y021953D01*
X012757Y022111D02*
X012717Y022111D01*
X012717Y022270D02*
X012757Y022270D01*
X012757Y022428D02*
X012717Y022428D01*
X011999Y021794D02*
X011589Y021794D01*
X011774Y021636D02*
X020707Y021636D01*
X020707Y021794D02*
X018446Y021794D01*
X018427Y021775D02*
X018697Y022044D01*
X018697Y022215D01*
X018257Y022215D01*
X018257Y021775D01*
X018427Y021775D01*
X018257Y021794D02*
X018217Y021794D01*
X018217Y021953D02*
X018257Y021953D01*
X018257Y022111D02*
X018217Y022111D01*
X018217Y022270D02*
X018257Y022270D01*
X018257Y022428D02*
X018217Y022428D01*
X018217Y022587D02*
X018257Y022587D01*
X018257Y022904D02*
X018217Y022904D01*
X018217Y023062D02*
X018257Y023062D01*
X018257Y023379D02*
X018217Y023379D01*
X018217Y023538D02*
X018257Y023538D01*
X018585Y023538D02*
X020515Y023538D01*
X020314Y023696D02*
X017455Y023696D01*
X017613Y023538D02*
X017889Y023538D01*
X017777Y023379D02*
X017717Y023379D01*
X018694Y022428D02*
X020707Y022428D01*
X020707Y022270D02*
X018697Y022270D01*
X018697Y022111D02*
X020707Y022111D01*
X020707Y021953D02*
X018605Y021953D01*
X017818Y021319D02*
X020707Y021319D01*
X020707Y021477D02*
X017697Y021477D01*
X017487Y021180D02*
X018737Y019930D01*
X018737Y003555D01*
X017737Y003555D02*
X017737Y008055D01*
X015237Y004868D02*
X012737Y007368D01*
X012737Y012055D01*
X012476Y011809D02*
X012086Y011809D01*
X012062Y011967D02*
X012385Y011967D01*
X012378Y012126D02*
X011962Y012126D01*
X011937Y012284D02*
X012459Y012284D01*
X012477Y011650D02*
X012050Y011650D01*
X011932Y011492D02*
X012477Y011492D01*
X012477Y011333D02*
X011968Y011333D01*
X012064Y011175D02*
X012477Y011175D01*
X012477Y011016D02*
X012086Y011016D01*
X012048Y010858D02*
X012477Y010858D01*
X012477Y010699D02*
X011927Y010699D01*
X011973Y010541D02*
X012477Y010541D01*
X012477Y010382D02*
X012066Y010382D01*
X012086Y010224D02*
X012477Y010224D01*
X012477Y010065D02*
X012045Y010065D01*
X011922Y009907D02*
X012477Y009907D01*
X012477Y009748D02*
X011978Y009748D01*
X012069Y009590D02*
X012477Y009590D01*
X012477Y009431D02*
X012086Y009431D01*
X012043Y009273D02*
X012477Y009273D01*
X012477Y009114D02*
X011917Y009114D01*
X011983Y008956D02*
X012477Y008956D01*
X012477Y008797D02*
X012071Y008797D01*
X012086Y008639D02*
X012477Y008639D01*
X012477Y008480D02*
X012041Y008480D01*
X011912Y008322D02*
X012477Y008322D01*
X012477Y008163D02*
X011960Y008163D01*
X012049Y008005D02*
X012477Y008005D01*
X012477Y007846D02*
X012065Y007846D01*
X012066Y007887D02*
X011656Y007887D01*
X011656Y008244D01*
X011656Y008244D01*
X011656Y007887D01*
X011656Y007887D01*
X011273Y007887D01*
X011273Y007887D01*
X011656Y007887D01*
X011656Y007887D01*
X012066Y007887D01*
X012015Y007688D02*
X012477Y007688D01*
X012477Y007529D02*
X011857Y007529D01*
X011789Y007371D02*
X012477Y007371D01*
X011737Y006555D02*
X011237Y006555D01*
X011012Y006420D02*
X010517Y006420D01*
X010517Y006578D02*
X010889Y006578D01*
X010730Y006737D02*
X010517Y006737D01*
X010517Y006895D02*
X010572Y006895D01*
X010517Y006261D02*
X011663Y006261D01*
X011822Y006103D02*
X010517Y006103D01*
X010517Y005944D02*
X011980Y005944D01*
X012139Y005786D02*
X010517Y005786D01*
X010517Y005627D02*
X012297Y005627D01*
X012456Y005469D02*
X010517Y005469D01*
X010517Y005310D02*
X012614Y005310D01*
X012773Y005152D02*
X010517Y005152D01*
X011737Y006555D02*
X014737Y003555D01*
X015087Y003884D02*
X015387Y003884D01*
X015257Y003725D02*
X015217Y003725D01*
X015217Y003567D02*
X015257Y003567D01*
X015257Y003408D02*
X015217Y003408D01*
X015110Y003250D02*
X015364Y003250D01*
X016087Y003884D02*
X016415Y003884D01*
X016277Y003725D02*
X016217Y003725D01*
X016717Y003725D02*
X016757Y003725D01*
X016757Y003884D02*
X016717Y003884D01*
X017197Y003408D02*
X017257Y003408D01*
X017328Y002825D02*
X017257Y002754D01*
X017257Y002356D01*
X017328Y002285D01*
X017142Y002285D01*
X016935Y002079D01*
X016897Y002095D01*
X016927Y002095D01*
X017197Y002364D01*
X017197Y002535D01*
X016757Y002535D01*
X016757Y002575D01*
X017197Y002575D01*
X017197Y002746D01*
X017117Y002825D01*
X017328Y002825D01*
X017277Y002774D02*
X017168Y002774D01*
X017197Y002616D02*
X017257Y002616D01*
X017257Y002457D02*
X017197Y002457D01*
X017131Y002299D02*
X017315Y002299D01*
X016997Y002140D02*
X016972Y002140D01*
X014365Y004676D02*
X013984Y004676D01*
X013757Y003884D02*
X013717Y003884D01*
X013717Y003725D02*
X013757Y003725D01*
X013415Y003884D02*
X013059Y003884D01*
X013197Y003725D02*
X013277Y003725D01*
X013277Y003408D02*
X013197Y003408D01*
X012757Y003725D02*
X012717Y003725D01*
X012717Y003884D02*
X012757Y003884D01*
X012415Y003884D02*
X012087Y003884D01*
X012217Y003725D02*
X012277Y003725D01*
X012267Y001823D02*
X010517Y001823D01*
X010517Y001665D02*
X012207Y001665D01*
X012198Y001506D02*
X010521Y001506D01*
X010557Y001348D02*
X012237Y001348D01*
X012339Y001189D02*
X010624Y001189D01*
X010749Y001031D02*
X012604Y001031D01*
X012718Y001031D02*
X012755Y001031D01*
X012870Y001031D02*
X013540Y001031D01*
X013311Y001189D02*
X013135Y001189D01*
X012755Y001189D02*
X012718Y001189D01*
X012718Y001348D02*
X012755Y001348D01*
X012755Y001506D02*
X012718Y001506D01*
X014080Y000872D02*
X011038Y000872D01*
X014197Y003725D02*
X014199Y003725D01*
X014211Y006261D02*
X014274Y006261D01*
X014155Y006420D02*
X014053Y006420D01*
X014128Y006578D02*
X013894Y006578D01*
X013736Y006737D02*
X014174Y006737D01*
X011656Y007503D02*
X011656Y007503D01*
X011656Y007887D01*
X011656Y007887D01*
X011656Y007503D01*
X011656Y007529D02*
X011656Y007529D01*
X011656Y007688D02*
X011656Y007688D01*
X011656Y007846D02*
X011656Y007846D01*
X011656Y007887D02*
X011656Y007887D01*
X011656Y008005D02*
X011656Y008005D01*
X011656Y008163D02*
X011656Y008163D01*
X010987Y010055D02*
X007487Y013555D01*
X006237Y013555D01*
X009237Y016555D01*
X009237Y017055D01*
X012237Y020055D01*
X012398Y019734D02*
X012477Y019734D01*
X012477Y019575D02*
X012125Y019575D01*
X011966Y019417D02*
X012477Y019417D01*
X012477Y019258D02*
X011808Y019258D01*
X011649Y019100D02*
X012477Y019100D01*
X012477Y018941D02*
X011491Y018941D01*
X011332Y018783D02*
X012477Y018783D01*
X012477Y018624D02*
X011174Y018624D01*
X011015Y018466D02*
X012477Y018466D01*
X012477Y018307D02*
X010857Y018307D01*
X010698Y018149D02*
X012477Y018149D01*
X012477Y017990D02*
X010540Y017990D01*
X010381Y017832D02*
X012477Y017832D01*
X012477Y017673D02*
X010223Y017673D01*
X010064Y017515D02*
X012477Y017515D01*
X012477Y017356D02*
X009906Y017356D01*
X009737Y019305D02*
X009737Y022055D01*
X010362Y022680D01*
X009737Y019305D02*
X004737Y014305D01*
X004737Y012305D01*
X005737Y011305D01*
X008975Y010699D02*
X001767Y010699D01*
X001768Y010541D02*
X009134Y010541D01*
X009292Y010382D02*
X001795Y010382D01*
X001849Y010224D02*
X009451Y010224D01*
X009609Y010065D02*
X001964Y010065D01*
X001767Y016564D02*
X005144Y016564D01*
X004985Y016722D02*
X001767Y016722D01*
X001767Y016881D02*
X004905Y016881D01*
X004839Y017039D02*
X001767Y017039D01*
X001767Y017198D02*
X004833Y017198D01*
X004833Y017356D02*
X001767Y017356D01*
X001767Y017515D02*
X004886Y017515D01*
X004952Y017673D02*
X001767Y017673D01*
X001767Y017832D02*
X005099Y017832D01*
X005345Y017990D02*
X001767Y017990D01*
X001767Y021636D02*
X005307Y021636D01*
X005083Y021794D02*
X001767Y021794D01*
X001767Y021953D02*
X004945Y021953D01*
X004880Y022111D02*
X001767Y022111D01*
X001767Y022270D02*
X004833Y022270D01*
X004833Y022428D02*
X001767Y022428D01*
X001767Y022587D02*
X004846Y022587D01*
X004911Y022745D02*
X001767Y022745D01*
X001767Y022904D02*
X005001Y022904D01*
X005159Y023062D02*
X001767Y023062D01*
X017875Y021160D02*
X020707Y021160D01*
X020707Y021002D02*
X018033Y021002D01*
X018192Y020843D02*
X020707Y020843D01*
X020707Y020685D02*
X018350Y020685D01*
X018509Y020526D02*
X020707Y020526D01*
X020707Y020368D02*
X018667Y020368D01*
X018826Y020209D02*
X020707Y020209D01*
X020707Y020051D02*
X018968Y020051D01*
X018997Y019892D02*
X020707Y019892D01*
X020707Y019734D02*
X018997Y019734D01*
X018997Y019575D02*
X020707Y019575D01*
X020707Y019417D02*
X018997Y019417D01*
X018997Y019258D02*
X020707Y019258D01*
X020707Y019100D02*
X018997Y019100D01*
X018997Y018941D02*
X020707Y018941D01*
X020707Y018783D02*
X018997Y018783D01*
X018997Y018624D02*
X020707Y018624D01*
X020707Y018466D02*
X018997Y018466D01*
X018997Y018307D02*
X020707Y018307D01*
X020707Y018149D02*
X018997Y018149D01*
X018997Y017990D02*
X020707Y017990D01*
X020707Y017832D02*
X018997Y017832D01*
X018997Y017673D02*
X020707Y017673D01*
X020707Y017515D02*
X018997Y017515D01*
X018997Y017356D02*
X020707Y017356D01*
X020707Y017198D02*
X018997Y017198D01*
X018997Y017039D02*
X020707Y017039D01*
X020707Y016881D02*
X018997Y016881D01*
X018997Y016722D02*
X020707Y016722D01*
X020707Y016564D02*
X018997Y016564D01*
X018997Y016405D02*
X020707Y016405D01*
X020707Y016247D02*
X018997Y016247D01*
X018997Y016088D02*
X020707Y016088D01*
X020707Y015930D02*
X018997Y015930D01*
X018997Y015771D02*
X020707Y015771D01*
X020707Y015613D02*
X018997Y015613D01*
X018997Y015454D02*
X020707Y015454D01*
X020707Y015296D02*
X020603Y015296D01*
X020032Y015296D02*
X018997Y015296D01*
X018997Y015137D02*
X019920Y015137D01*
X019888Y014979D02*
X018997Y014979D01*
X018997Y014820D02*
X019916Y014820D01*
X020021Y014662D02*
X018997Y014662D01*
X018997Y014503D02*
X020027Y014503D01*
D16*
X017487Y021180D03*
X013987Y020680D03*
X012237Y020055D03*
X011737Y020055D03*
X011237Y020305D03*
X010237Y021555D03*
X010362Y022680D03*
X012737Y017055D03*
X012737Y014805D03*
X012737Y012055D03*
X010362Y012055D03*
X006237Y013555D03*
X005737Y014055D03*
X005237Y012555D03*
X005737Y011305D03*
X013237Y005805D03*
X014487Y006555D03*
X014674Y004868D03*
X015237Y004868D03*
X015987Y005680D03*
X018237Y004305D03*
X018737Y001555D03*
D17*
X018237Y002055D02*
X017237Y002055D01*
X013237Y005805D02*
X012237Y006805D01*
X011487Y006805D01*
X010737Y007555D01*
X010737Y009805D01*
X007487Y013055D01*
X005987Y013055D01*
X005737Y013305D01*
X005737Y014055D01*
X005737Y014555D01*
X010987Y019805D01*
X011487Y019805D01*
X011737Y020055D01*
X011237Y020305D02*
X005237Y014305D01*
X005237Y012555D01*
D18*
X010487Y009555D02*
X010487Y007305D01*
X011237Y006555D01*
X011737Y003555D02*
X012237Y003055D01*
X013987Y003055D01*
X014237Y002805D01*
X014237Y002055D01*
X014737Y001555D01*
X015737Y001555D02*
X016237Y002055D01*
X016237Y002805D01*
X016487Y003055D01*
X017237Y003055D01*
X017737Y003555D01*
X018237Y002055D02*
X018737Y001555D01*
X017237Y002055D02*
X016737Y001555D01*
D19*
X018612Y000930D02*
X019112Y001430D01*
X019112Y002180D01*
X018737Y002555D01*
X018612Y000930D02*
X014362Y000930D01*
X013737Y001555D01*
M02*
