%
M48
M72
T01C0.0157
T02C0.0276
T03C0.0320
T04C0.0394
T05C0.0400
T06C0.0910
%
T01
X5680Y4805
X5680Y6930
X6930Y7555
X7805Y8305
X9180Y8305
X9180Y7555
X10930Y6555
X8680Y4305
X9180Y1555
X14930Y10555
X16680Y10555
X16680Y11555
X16680Y12555
X15930Y12555
X15305Y14555
X17180Y14555
X14805Y16930
X13180Y17430
X11930Y20055
X8680Y16305
X9180Y15555
X8305Y14180
X7305Y14930
X6805Y14180
X8430Y17805
X4305Y19305
X10930Y13055
X10930Y12055
X12180Y10805
X12680Y10805
T02
X10011Y11036
X10011Y10249
X10011Y9461
X10011Y8674
X10011Y7887
X10011Y11824
X10011Y12611
X10011Y13399
X10011Y14186
X10011Y14973
X1349Y14973
X1349Y14186
X1349Y13399
X1349Y12611
X1349Y11824
X1349Y11036
X1349Y10249
X1349Y9461
X1349Y8674
X1349Y7887
T03
X10680Y21805
X12680Y21805
T04
X8180Y1555
X7180Y1555
X6180Y1555
X5180Y1555
X4180Y1555
X3180Y1555
T05
X2180Y2555
X2180Y3555
X3180Y3555
X3180Y2555
X4180Y2555
X4180Y3555
X5180Y3555
X5180Y2555
X6180Y2555
X6180Y3555
X7180Y3555
X7180Y2555
X8180Y2555
X8180Y3555
X9180Y3555
X9180Y2555
X8680Y22235
X8680Y23235
X7680Y23235
X7680Y22235
X6680Y22235
X6680Y23235
X5680Y23235
X5680Y22235
X4680Y22235
X4680Y23235
X3680Y23235
X3680Y22235
X2680Y22235
X2680Y23235
T06
X15999Y21640
X15999Y16470
M30
