G75*
G70*
%OFA0B0*%
%FSLAX24Y24*%
%IPPOS*%
%LPD*%
%AMOC8*
5,1,8,0,0,1.08239X$1,22.5*
%
%ADD10C,0.0000*%
%ADD11R,0.0450X0.0100*%
%ADD12R,0.0100X0.0450*%
%ADD13C,0.1310*%
%ADD14R,0.1181X0.0354*%
%ADD15R,0.0500X0.0500*%
%ADD16R,0.0472X0.0315*%
%ADD17R,0.0315X0.0472*%
%ADD18C,0.0480*%
%ADD19R,0.0748X0.1339*%
%ADD20OC8,0.0600*%
%ADD21C,0.0500*%
%ADD22R,0.0748X0.0551*%
%ADD23R,0.0551X0.0709*%
%ADD24R,0.0591X0.0276*%
%ADD25C,0.0760*%
%ADD26C,0.0160*%
%ADD27C,0.0080*%
%ADD28C,0.0357*%
%ADD29C,0.0100*%
%ADD30C,0.0120*%
D10*
X002487Y009555D02*
X009237Y009555D01*
X009297Y009553D01*
X009358Y009548D01*
X009417Y009539D01*
X009476Y009526D01*
X009535Y009510D01*
X009592Y009490D01*
X009647Y009467D01*
X009702Y009440D01*
X009754Y009411D01*
X009805Y009378D01*
X009854Y009342D01*
X009900Y009304D01*
X009944Y009262D01*
X009986Y009218D01*
X010024Y009172D01*
X010060Y009123D01*
X010093Y009072D01*
X010122Y009020D01*
X010149Y008965D01*
X010172Y008910D01*
X010192Y008853D01*
X010208Y008794D01*
X010221Y008735D01*
X010230Y008676D01*
X010235Y008615D01*
X010237Y008555D01*
X010237Y001555D01*
X010239Y001495D01*
X010244Y001434D01*
X010253Y001375D01*
X010266Y001316D01*
X010282Y001257D01*
X010302Y001200D01*
X010325Y001145D01*
X010352Y001090D01*
X010381Y001038D01*
X010414Y000987D01*
X010450Y000938D01*
X010488Y000892D01*
X010530Y000848D01*
X010574Y000806D01*
X010620Y000768D01*
X010669Y000732D01*
X010720Y000699D01*
X010772Y000670D01*
X010827Y000643D01*
X010882Y000620D01*
X010939Y000600D01*
X010998Y000584D01*
X011057Y000571D01*
X011116Y000562D01*
X011177Y000557D01*
X011237Y000555D01*
X019987Y000555D01*
X020047Y000557D01*
X020108Y000562D01*
X020167Y000571D01*
X020226Y000584D01*
X020285Y000600D01*
X020342Y000620D01*
X020397Y000643D01*
X020452Y000670D01*
X020504Y000699D01*
X020555Y000732D01*
X020604Y000768D01*
X020650Y000806D01*
X020694Y000848D01*
X020736Y000892D01*
X020774Y000938D01*
X020810Y000987D01*
X020843Y001038D01*
X020872Y001090D01*
X020899Y001145D01*
X020922Y001200D01*
X020942Y001257D01*
X020958Y001316D01*
X020971Y001375D01*
X020980Y001434D01*
X020985Y001495D01*
X020987Y001555D01*
X020987Y023055D01*
X020985Y023115D01*
X020980Y023176D01*
X020971Y023235D01*
X020958Y023294D01*
X020942Y023353D01*
X020922Y023410D01*
X020899Y023465D01*
X020872Y023520D01*
X020843Y023572D01*
X020810Y023623D01*
X020774Y023672D01*
X020736Y023718D01*
X020694Y023762D01*
X020650Y023804D01*
X020604Y023842D01*
X020555Y023878D01*
X020504Y023911D01*
X020452Y023940D01*
X020397Y023967D01*
X020342Y023990D01*
X020285Y024010D01*
X020226Y024026D01*
X020167Y024039D01*
X020108Y024048D01*
X020047Y024053D01*
X019987Y024055D01*
X002487Y024055D01*
X002427Y024053D01*
X002366Y024048D01*
X002307Y024039D01*
X002248Y024026D01*
X002189Y024010D01*
X002132Y023990D01*
X002077Y023967D01*
X002022Y023940D01*
X001970Y023911D01*
X001919Y023878D01*
X001870Y023842D01*
X001824Y023804D01*
X001780Y023762D01*
X001738Y023718D01*
X001700Y023672D01*
X001664Y023623D01*
X001631Y023572D01*
X001602Y023520D01*
X001575Y023465D01*
X001552Y023410D01*
X001532Y023353D01*
X001516Y023294D01*
X001503Y023235D01*
X001494Y023176D01*
X001489Y023115D01*
X001487Y023055D01*
X001487Y010555D01*
X001489Y010495D01*
X001494Y010434D01*
X001503Y010375D01*
X001516Y010316D01*
X001532Y010257D01*
X001552Y010200D01*
X001575Y010145D01*
X001602Y010090D01*
X001631Y010038D01*
X001664Y009987D01*
X001700Y009938D01*
X001738Y009892D01*
X001780Y009848D01*
X001824Y009806D01*
X001870Y009768D01*
X001919Y009732D01*
X001970Y009699D01*
X002022Y009670D01*
X002077Y009643D01*
X002132Y009620D01*
X002189Y009600D01*
X002248Y009584D01*
X002307Y009571D01*
X002366Y009562D01*
X002427Y009557D01*
X002487Y009555D01*
D11*
X010359Y019116D03*
X010359Y019313D03*
X010359Y019510D03*
X010359Y019707D03*
X010359Y019903D03*
X010359Y020100D03*
X010359Y020297D03*
X010359Y020494D03*
X013115Y020494D03*
X013115Y020297D03*
X013115Y020100D03*
X013115Y019903D03*
X013115Y019707D03*
X013115Y019510D03*
X013115Y019313D03*
X013115Y019116D03*
D12*
X012426Y018427D03*
X012229Y018427D03*
X012032Y018427D03*
X011835Y018427D03*
X011638Y018427D03*
X011442Y018427D03*
X011245Y018427D03*
X011048Y018427D03*
X011048Y021183D03*
X011245Y021183D03*
X011442Y021183D03*
X011638Y021183D03*
X011835Y021183D03*
X012032Y021183D03*
X012229Y021183D03*
X012426Y021183D03*
D13*
X005668Y022390D03*
X005668Y017220D03*
D14*
X007326Y018427D03*
X007326Y019411D03*
X007326Y020199D03*
X007326Y021183D03*
D15*
X008462Y021305D03*
X009262Y021305D03*
X004137Y016430D03*
X003337Y016430D03*
D16*
X008362Y022076D03*
X008362Y022784D03*
X013987Y020034D03*
X013987Y019326D03*
X010362Y015409D03*
X010362Y014701D03*
X010362Y013784D03*
X010362Y013076D03*
X009112Y013076D03*
X009112Y013784D03*
X009112Y014701D03*
X009112Y015409D03*
X017237Y005909D03*
X017237Y005201D03*
X018237Y005201D03*
X018237Y005909D03*
D17*
X009216Y018305D03*
X008508Y018305D03*
X008508Y019305D03*
X009216Y019305D03*
X009216Y020305D03*
X008508Y020305D03*
X015383Y020055D03*
X016091Y020055D03*
X016091Y021180D03*
X015383Y021180D03*
X018258Y021180D03*
X018966Y021180D03*
X019633Y021180D03*
X020341Y021180D03*
X020341Y019930D03*
X019633Y019930D03*
X018966Y019930D03*
X018258Y019930D03*
X018258Y018555D03*
X018966Y018555D03*
X019633Y018555D03*
X020341Y018555D03*
D18*
X010737Y016805D03*
X008737Y016805D03*
D19*
X009594Y022680D03*
X011130Y022680D03*
D20*
X012237Y022235D03*
X012237Y023235D03*
X013237Y023235D03*
X014237Y023235D03*
X014237Y022235D03*
X013237Y022235D03*
X015237Y022235D03*
X016237Y022235D03*
X016237Y023235D03*
X015237Y023235D03*
X017237Y023235D03*
X017237Y022235D03*
X018237Y022235D03*
X018237Y023235D03*
X018737Y003555D03*
X018737Y002555D03*
X017737Y002555D03*
X017737Y003555D03*
X016737Y003555D03*
X016737Y002555D03*
X015737Y002555D03*
X015737Y003555D03*
X014737Y003555D03*
X014737Y002555D03*
X013737Y002555D03*
X013737Y003555D03*
X012737Y003555D03*
X012737Y002555D03*
X011737Y002555D03*
X011737Y003555D03*
D21*
X011656Y007887D03*
X011656Y008674D03*
X011656Y009461D03*
X011656Y010249D03*
X011656Y011036D03*
X011656Y011824D03*
X011656Y012611D03*
X011656Y013399D03*
X011656Y014186D03*
X011656Y014973D03*
X020318Y014973D03*
X020318Y014186D03*
X020318Y013399D03*
X020318Y012611D03*
X020318Y011824D03*
X020318Y011036D03*
X020318Y010249D03*
X020318Y009461D03*
X020318Y008674D03*
X020318Y007887D03*
D22*
X002906Y015398D03*
X002552Y010201D03*
D23*
X008064Y012405D03*
X008064Y014768D03*
D24*
X004205Y012445D03*
X004048Y012878D03*
X003890Y013311D03*
X004048Y013744D03*
X003890Y014177D03*
X004048Y014610D03*
X004048Y015043D03*
X004048Y012012D03*
D25*
X012737Y001555D03*
X013737Y001555D03*
X014737Y001555D03*
X015737Y001555D03*
X016737Y001555D03*
X017737Y001555D03*
D26*
X017934Y001031D02*
X020475Y001031D01*
X020496Y001046D02*
X020314Y000913D01*
X020100Y000844D01*
X019987Y000835D01*
X011237Y000835D01*
X011124Y000844D01*
X010910Y000913D01*
X010728Y001046D01*
X010595Y001228D01*
X010526Y001442D01*
X010517Y001555D01*
X010517Y006907D01*
X010590Y006835D01*
X011477Y005947D01*
X011477Y003974D01*
X011257Y003754D01*
X011257Y003356D01*
X011538Y003075D01*
X011936Y003075D01*
X012217Y003356D01*
X012217Y003754D01*
X011997Y003974D01*
X011997Y006107D01*
X011957Y006202D01*
X011365Y006795D01*
X013879Y006795D01*
X014128Y006546D01*
X014128Y006484D01*
X014183Y006352D01*
X014284Y006251D01*
X014416Y006196D01*
X014558Y006196D01*
X014690Y006251D01*
X014791Y006352D01*
X014846Y006484D01*
X014846Y006626D01*
X014791Y006758D01*
X014690Y006859D01*
X014558Y006914D01*
X014496Y006914D01*
X014207Y007202D01*
X014207Y007202D01*
X014134Y007275D01*
X014039Y007315D01*
X011345Y007315D01*
X011247Y007413D01*
X011247Y007850D01*
X011256Y007791D01*
X011276Y007729D01*
X011306Y007672D01*
X011343Y007620D01*
X011389Y007574D01*
X011441Y007536D01*
X011499Y007507D01*
X011560Y007487D01*
X011624Y007477D01*
X011656Y007477D01*
X011656Y007887D01*
X011656Y008244D01*
X011656Y008244D01*
X011656Y007887D01*
X011656Y007887D01*
X011247Y007887D01*
X011247Y007887D01*
X011656Y007887D01*
X011656Y007887D01*
X012066Y007887D01*
X012066Y007919D01*
X012056Y007983D01*
X012036Y008044D01*
X012007Y008102D01*
X011969Y008154D01*
X011923Y008199D01*
X011871Y008237D01*
X011814Y008267D01*
X011804Y008270D01*
X011900Y008310D01*
X012021Y008431D01*
X012086Y008589D01*
X012086Y008760D01*
X012021Y008918D01*
X011900Y009039D01*
X011829Y009068D01*
X011900Y009097D01*
X012021Y009218D01*
X012086Y009376D01*
X012086Y009547D01*
X012021Y009705D01*
X011900Y009826D01*
X011829Y009855D01*
X011900Y009884D01*
X012021Y010005D01*
X012086Y010163D01*
X012086Y010334D01*
X012021Y010492D01*
X011900Y010613D01*
X011829Y010643D01*
X011900Y010672D01*
X012021Y010793D01*
X012086Y010951D01*
X012086Y011099D01*
X012457Y011470D01*
X012497Y011565D01*
X012497Y011788D01*
X012534Y011751D01*
X012666Y011696D01*
X012808Y011696D01*
X012940Y011751D01*
X013041Y011852D01*
X013096Y011984D01*
X013096Y012126D01*
X013041Y012258D01*
X012997Y012302D01*
X012997Y014558D01*
X013041Y014602D01*
X013096Y014734D01*
X013096Y014876D01*
X013041Y015008D01*
X012940Y015109D01*
X012808Y015164D01*
X012666Y015164D01*
X012534Y015109D01*
X012497Y015072D01*
X012497Y015197D01*
X016970Y019670D01*
X017920Y019670D01*
X017920Y019619D01*
X018026Y019514D01*
X018490Y019514D01*
X018595Y019619D01*
X018595Y020241D01*
X018490Y020346D01*
X018026Y020346D01*
X017920Y020241D01*
X017920Y020190D01*
X016810Y020190D01*
X016715Y020150D01*
X016429Y019865D01*
X016429Y020366D01*
X016351Y020443D01*
X016351Y020502D01*
X016335Y020540D01*
X016372Y020628D01*
X016372Y020812D01*
X016429Y020869D01*
X016429Y020920D01*
X017240Y020920D01*
X017284Y020876D01*
X017416Y020821D01*
X017558Y020821D01*
X017690Y020876D01*
X017734Y020920D01*
X017920Y020920D01*
X017920Y020869D01*
X018026Y020764D01*
X018490Y020764D01*
X018595Y020869D01*
X018595Y021491D01*
X018490Y021596D01*
X018026Y021596D01*
X017920Y021491D01*
X017920Y021440D01*
X017734Y021440D01*
X017690Y021484D01*
X017558Y021539D01*
X017416Y021539D01*
X017284Y021484D01*
X017240Y021440D01*
X016429Y021440D01*
X016429Y021491D01*
X016323Y021596D01*
X015859Y021596D01*
X015754Y021491D01*
X015754Y020869D01*
X015808Y020815D01*
X015666Y020815D01*
X015720Y020869D01*
X015720Y021491D01*
X015615Y021596D01*
X015151Y021596D01*
X015045Y021491D01*
X015045Y021400D01*
X013328Y021400D01*
X012828Y021900D01*
X012581Y021900D01*
X012717Y022036D01*
X012717Y022434D01*
X012436Y022715D01*
X012038Y022715D01*
X011757Y022434D01*
X011757Y022036D01*
X011894Y021899D01*
X011767Y021771D01*
X011615Y021620D01*
X011615Y021613D01*
X011457Y021771D01*
X011397Y021831D01*
X011578Y021831D01*
X011684Y021936D01*
X011684Y023424D01*
X011578Y023529D01*
X010681Y023529D01*
X010576Y023424D01*
X010576Y022974D01*
X010565Y022984D01*
X010433Y023039D01*
X010291Y023039D01*
X010159Y022984D01*
X010148Y022974D01*
X010148Y023424D01*
X010043Y023529D01*
X009146Y023529D01*
X009040Y023424D01*
X009040Y021936D01*
X009146Y021831D01*
X009354Y021831D01*
X009354Y021737D01*
X009352Y021735D01*
X008937Y021735D01*
X008862Y021660D01*
X008786Y021735D01*
X008746Y021735D01*
X008723Y021789D01*
X008778Y021844D01*
X008778Y022308D01*
X008673Y022413D01*
X008051Y022413D01*
X007946Y022308D01*
X007946Y021844D01*
X008051Y021738D01*
X008108Y021738D01*
X008118Y021715D01*
X008032Y021630D01*
X008032Y021553D01*
X007994Y021538D01*
X007991Y021540D01*
X006661Y021540D01*
X006556Y021435D01*
X006556Y020931D01*
X006587Y020900D01*
X006521Y020900D01*
X006392Y020771D01*
X006146Y020525D01*
X006146Y020525D01*
X006017Y020396D01*
X006017Y018214D01*
X006146Y018085D01*
X006521Y017710D01*
X007953Y017710D01*
X008082Y017839D01*
X008204Y017961D01*
X008276Y017889D01*
X008740Y017889D01*
X008845Y017994D01*
X008845Y018616D01*
X008740Y018721D01*
X008276Y018721D01*
X008170Y018616D01*
X008170Y018525D01*
X008146Y018525D01*
X008077Y018456D01*
X008077Y018625D01*
X008066Y018666D01*
X008045Y018702D01*
X008015Y018732D01*
X007979Y018753D01*
X007938Y018764D01*
X007335Y018764D01*
X007335Y018436D01*
X007318Y018436D01*
X007318Y018764D01*
X006715Y018764D01*
X006674Y018753D01*
X006637Y018732D01*
X006608Y018702D01*
X006587Y018666D01*
X006576Y018625D01*
X006576Y018436D01*
X007318Y018436D01*
X007318Y018418D01*
X006576Y018418D01*
X006576Y018277D01*
X006457Y018396D01*
X006457Y020214D01*
X006556Y020313D01*
X006556Y019947D01*
X006661Y019842D01*
X007991Y019842D01*
X008089Y019939D01*
X008182Y019939D01*
X008213Y019951D01*
X008276Y019889D01*
X008740Y019889D01*
X008845Y019994D01*
X008845Y020585D01*
X008879Y020585D01*
X008879Y019994D01*
X008984Y019889D01*
X009448Y019889D01*
X009554Y019994D01*
X009554Y020052D01*
X009801Y019805D01*
X009554Y019558D01*
X009554Y019616D01*
X009448Y019721D01*
X008984Y019721D01*
X008879Y019616D01*
X008879Y018994D01*
X008984Y018889D01*
X009448Y018889D01*
X009517Y018957D01*
X009517Y018653D01*
X009448Y018721D01*
X008984Y018721D01*
X008879Y018616D01*
X008879Y017994D01*
X008984Y017889D01*
X009448Y017889D01*
X009554Y017994D01*
X009554Y018085D01*
X009641Y018085D01*
X009769Y018214D01*
X009957Y018401D01*
X009957Y018964D01*
X009969Y018976D01*
X010059Y018886D01*
X010139Y018886D01*
X010139Y018518D01*
X008838Y017218D01*
X008820Y017225D01*
X008653Y017225D01*
X008499Y017161D01*
X008381Y017043D01*
X008317Y016889D01*
X008317Y016721D01*
X008381Y016567D01*
X008499Y016449D01*
X008653Y016385D01*
X008789Y016385D01*
X008852Y016322D01*
X008852Y015747D01*
X008801Y015747D01*
X008696Y015641D01*
X008696Y015177D01*
X008801Y015072D01*
X009423Y015072D01*
X009528Y015177D01*
X009528Y015641D01*
X009423Y015747D01*
X009372Y015747D01*
X009372Y016482D01*
X009332Y016577D01*
X009157Y016753D01*
X009157Y016889D01*
X009149Y016906D01*
X010579Y018336D01*
X010579Y018886D01*
X010658Y018886D01*
X010764Y018991D01*
X010764Y019093D01*
X012710Y019093D01*
X012710Y018991D01*
X012815Y018886D01*
X013414Y018886D01*
X013520Y018991D01*
X013520Y019093D01*
X013571Y019093D01*
X013676Y018988D01*
X013754Y018988D01*
X013754Y018883D01*
X011436Y016565D01*
X011436Y015348D01*
X011413Y015338D01*
X011292Y015217D01*
X011226Y015059D01*
X011226Y014911D01*
X010766Y014451D01*
X010727Y014356D01*
X010727Y014163D01*
X010679Y014115D01*
X010673Y014122D01*
X010051Y014122D01*
X009974Y014044D01*
X009500Y014044D01*
X009423Y014122D01*
X008801Y014122D01*
X008724Y014044D01*
X008414Y014044D01*
X008319Y014005D01*
X008246Y013932D01*
X007629Y013315D01*
X006504Y013315D01*
X006541Y013352D01*
X006596Y013484D01*
X006596Y013626D01*
X006541Y013758D01*
X006440Y013859D01*
X006308Y013914D01*
X006166Y013914D01*
X006046Y013864D01*
X006096Y013984D01*
X006096Y014126D01*
X006041Y014258D01*
X005940Y014359D01*
X005808Y014414D01*
X005746Y014414D01*
X005329Y014831D01*
X005233Y014870D01*
X004523Y014870D01*
X004523Y015256D01*
X004418Y015361D01*
X003678Y015361D01*
X003573Y015256D01*
X003573Y014831D01*
X003577Y014827D01*
X003573Y014822D01*
X003573Y014474D01*
X003533Y014464D01*
X003497Y014443D01*
X003467Y014413D01*
X003446Y014377D01*
X003435Y014336D01*
X003435Y014177D01*
X003435Y014018D01*
X003446Y013977D01*
X003467Y013941D01*
X003497Y013911D01*
X003533Y013890D01*
X003573Y013880D01*
X003573Y013629D01*
X003521Y013629D01*
X003415Y013523D01*
X003415Y013099D01*
X003521Y012993D01*
X003573Y012993D01*
X003573Y012665D01*
X003678Y012560D01*
X003730Y012560D01*
X003730Y012329D01*
X003678Y012329D01*
X003573Y012224D01*
X003573Y011799D01*
X003678Y011694D01*
X004418Y011694D01*
X004523Y011799D01*
X004523Y012127D01*
X004547Y012127D01*
X005016Y011658D01*
X005090Y011585D01*
X005185Y011545D01*
X005470Y011545D01*
X005433Y011508D01*
X005378Y011376D01*
X005378Y011234D01*
X005433Y011102D01*
X005534Y011001D01*
X005666Y010946D01*
X005808Y010946D01*
X005940Y011001D01*
X005984Y011045D01*
X009129Y011045D01*
X010477Y009697D01*
X010477Y008881D01*
X010392Y009143D01*
X010392Y009143D01*
X010153Y009471D01*
X009825Y009710D01*
X009440Y009835D01*
X003059Y009835D01*
X003075Y009863D01*
X003086Y009904D01*
X003086Y010143D01*
X002610Y010143D01*
X002610Y010258D01*
X003086Y010258D01*
X003086Y010497D01*
X003075Y010538D01*
X003054Y010575D01*
X003024Y010604D01*
X002988Y010625D01*
X002947Y010636D01*
X002610Y010636D01*
X002610Y010258D01*
X002494Y010258D01*
X002494Y010143D01*
X002018Y010143D01*
X002018Y010017D01*
X001978Y010046D01*
X001845Y010228D01*
X001776Y010442D01*
X001767Y010555D01*
X001767Y023055D01*
X001776Y023168D01*
X001845Y023382D01*
X001978Y023564D01*
X002160Y023697D01*
X002374Y023766D01*
X002487Y023775D01*
X019987Y023775D01*
X020100Y023766D01*
X020314Y023697D01*
X020496Y023564D01*
X020628Y023382D01*
X020698Y023168D01*
X020707Y023055D01*
X020707Y015157D01*
X020682Y015217D01*
X020561Y015338D01*
X020403Y015403D01*
X020232Y015403D01*
X020074Y015338D01*
X019953Y015217D01*
X019888Y015059D01*
X019888Y014888D01*
X019953Y014730D01*
X020074Y014609D01*
X020144Y014580D01*
X020074Y014550D01*
X019953Y014429D01*
X019888Y014271D01*
X019888Y014100D01*
X019953Y013942D01*
X020074Y013821D01*
X020144Y013792D01*
X020074Y013763D01*
X019953Y013642D01*
X019888Y013484D01*
X019888Y013313D01*
X019953Y013155D01*
X020074Y013034D01*
X020144Y013005D01*
X020074Y012976D01*
X019953Y012855D01*
X019888Y012697D01*
X019888Y012526D01*
X019953Y012368D01*
X020074Y012247D01*
X020144Y012217D01*
X020074Y012188D01*
X019953Y012067D01*
X019888Y011909D01*
X019888Y011834D01*
X018518Y013204D01*
X018518Y018167D01*
X018595Y018244D01*
X018595Y018866D01*
X018490Y018971D01*
X018026Y018971D01*
X017920Y018866D01*
X017920Y018244D01*
X017998Y018167D01*
X017998Y013045D01*
X018037Y012949D01*
X019888Y011099D01*
X019888Y010951D01*
X019953Y010793D01*
X020074Y010672D01*
X020144Y010643D01*
X020074Y010613D01*
X019953Y010492D01*
X019888Y010334D01*
X019888Y010163D01*
X019953Y010005D01*
X020074Y009884D01*
X020144Y009855D01*
X020074Y009826D01*
X019953Y009705D01*
X019888Y009547D01*
X019888Y009376D01*
X019953Y009218D01*
X020074Y009097D01*
X020144Y009068D01*
X020074Y009039D01*
X019953Y008918D01*
X019888Y008760D01*
X019888Y008589D01*
X019953Y008431D01*
X020074Y008310D01*
X020144Y008280D01*
X020074Y008251D01*
X019953Y008130D01*
X019888Y007972D01*
X019888Y007801D01*
X019953Y007643D01*
X020074Y007522D01*
X020232Y007457D01*
X020403Y007457D01*
X020561Y007522D01*
X020682Y007643D01*
X020707Y007703D01*
X020707Y001555D01*
X020698Y001442D01*
X020628Y001228D01*
X020496Y001046D01*
X020600Y001189D02*
X018163Y001189D01*
X018212Y001238D02*
X018054Y001080D01*
X017848Y000995D01*
X017625Y000995D01*
X017420Y001080D01*
X017262Y001238D01*
X017237Y001299D01*
X017212Y001238D01*
X017054Y001080D01*
X016848Y000995D01*
X016625Y000995D01*
X016420Y001080D01*
X016262Y001238D01*
X016237Y001299D01*
X016212Y001238D01*
X016054Y001080D01*
X015848Y000995D01*
X015625Y000995D01*
X015420Y001080D01*
X015262Y001238D01*
X015237Y001299D01*
X015212Y001238D01*
X015054Y001080D01*
X014848Y000995D01*
X014625Y000995D01*
X014420Y001080D01*
X014262Y001238D01*
X014237Y001299D01*
X014212Y001238D01*
X014054Y001080D01*
X013848Y000995D01*
X013625Y000995D01*
X013420Y001080D01*
X013262Y001238D01*
X013226Y001325D01*
X013199Y001272D01*
X013149Y001203D01*
X013089Y001143D01*
X013020Y001093D01*
X012944Y001055D01*
X012863Y001028D01*
X012779Y001015D01*
X012755Y001015D01*
X012755Y001537D01*
X012718Y001537D01*
X012197Y001537D01*
X012197Y001513D01*
X012210Y001429D01*
X012236Y001348D01*
X012275Y001272D01*
X012325Y001203D01*
X012385Y001143D01*
X012454Y001093D01*
X012530Y001055D01*
X012610Y001028D01*
X012694Y001015D01*
X012718Y001015D01*
X012718Y001537D01*
X012718Y001573D01*
X012197Y001573D01*
X012197Y001597D01*
X012210Y001681D01*
X012236Y001762D01*
X012268Y001825D01*
X012142Y001825D01*
X011892Y002075D01*
X011538Y002075D01*
X011257Y002356D01*
X011257Y002754D01*
X011538Y003035D01*
X011936Y003035D01*
X012217Y002754D01*
X012217Y002400D01*
X012257Y002360D01*
X012257Y002754D01*
X012538Y003035D01*
X012936Y003035D01*
X013007Y002964D01*
X013007Y003174D01*
X012927Y003095D01*
X012757Y003095D01*
X012757Y003535D01*
X012717Y003535D01*
X012717Y003095D01*
X012546Y003095D01*
X012277Y003364D01*
X012277Y003535D01*
X012717Y003535D01*
X012717Y003575D01*
X012717Y004015D01*
X012546Y004015D01*
X012277Y003746D01*
X012277Y003575D01*
X012717Y003575D01*
X012757Y003575D01*
X012757Y004015D01*
X012927Y004015D01*
X013004Y003939D01*
X012977Y004003D01*
X012977Y005558D01*
X012933Y005602D01*
X012878Y005734D01*
X012878Y005876D01*
X012933Y006008D01*
X013034Y006109D01*
X013166Y006164D01*
X013308Y006164D01*
X013440Y006109D01*
X013541Y006008D01*
X013596Y005876D01*
X013596Y005734D01*
X013541Y005602D01*
X013497Y005558D01*
X013497Y004003D01*
X013470Y003939D01*
X013546Y004015D01*
X013717Y004015D01*
X013717Y003575D01*
X013757Y003575D01*
X013757Y004015D01*
X013927Y004015D01*
X014007Y003936D01*
X014007Y004306D01*
X013977Y004378D01*
X013977Y004482D01*
X014016Y004577D01*
X014316Y004876D01*
X014316Y004939D01*
X014370Y005071D01*
X014471Y005172D01*
X014603Y005226D01*
X014746Y005226D01*
X014878Y005172D01*
X014956Y005094D01*
X015034Y005172D01*
X015166Y005226D01*
X015308Y005226D01*
X015440Y005172D01*
X015477Y005135D01*
X015477Y005482D01*
X015516Y005577D01*
X015590Y005650D01*
X015628Y005689D01*
X015628Y005751D01*
X015683Y005883D01*
X015784Y005984D01*
X015916Y006039D01*
X016058Y006039D01*
X016190Y005984D01*
X016291Y005883D01*
X016346Y005751D01*
X016346Y005609D01*
X016291Y005477D01*
X016190Y005376D01*
X016058Y005321D01*
X015997Y005321D01*
X015997Y003974D01*
X016217Y003754D01*
X016217Y003356D01*
X015936Y003075D01*
X015542Y003075D01*
X015582Y003035D01*
X015936Y003035D01*
X016217Y002754D01*
X016217Y002356D01*
X016136Y002275D01*
X016366Y002275D01*
X016277Y002364D01*
X016277Y002535D01*
X016717Y002535D01*
X016717Y002575D01*
X016717Y003015D01*
X016546Y003015D01*
X016277Y002746D01*
X016277Y002575D01*
X016717Y002575D01*
X016757Y002575D01*
X017197Y002575D01*
X017197Y002746D01*
X016927Y003015D01*
X016757Y003015D01*
X016757Y002575D01*
X016757Y002535D01*
X017197Y002535D01*
X017197Y002364D01*
X017107Y002275D01*
X017338Y002275D01*
X017257Y002356D01*
X017257Y002754D01*
X017538Y003035D01*
X017642Y003035D01*
X017682Y003075D01*
X017538Y003075D01*
X017257Y003356D01*
X017257Y003754D01*
X017538Y004035D01*
X017936Y004035D01*
X018007Y003964D01*
X018007Y004028D01*
X017933Y004102D01*
X017878Y004234D01*
X017878Y004376D01*
X017933Y004508D01*
X017977Y004552D01*
X017977Y004863D01*
X017926Y004863D01*
X017849Y004941D01*
X017625Y004941D01*
X017548Y004863D01*
X016926Y004863D01*
X016821Y004969D01*
X016821Y005433D01*
X016926Y005538D01*
X017548Y005538D01*
X017625Y005461D01*
X017849Y005461D01*
X017926Y005538D01*
X018548Y005538D01*
X018653Y005433D01*
X018653Y004969D01*
X018548Y004863D01*
X018497Y004863D01*
X018497Y004552D01*
X018541Y004508D01*
X018596Y004376D01*
X018596Y004234D01*
X018541Y004102D01*
X018467Y004028D01*
X018467Y003964D01*
X018538Y004035D01*
X018936Y004035D01*
X019102Y003869D01*
X019102Y005322D01*
X018775Y005649D01*
X018625Y005649D01*
X018548Y005572D01*
X017926Y005572D01*
X017821Y005677D01*
X017821Y006141D01*
X017926Y006247D01*
X018548Y006247D01*
X018625Y006169D01*
X018934Y006169D01*
X019030Y006130D01*
X019582Y005577D01*
X019622Y005482D01*
X019622Y002128D01*
X019582Y002033D01*
X019096Y001546D01*
X019096Y001484D01*
X019041Y001352D01*
X018940Y001251D01*
X018808Y001196D01*
X018666Y001196D01*
X018534Y001251D01*
X018433Y001352D01*
X018378Y001484D01*
X018378Y001626D01*
X018433Y001758D01*
X018534Y001859D01*
X018666Y001914D01*
X018728Y001914D01*
X018889Y002075D01*
X018538Y002075D01*
X018435Y002178D01*
X018332Y002075D01*
X018170Y001913D01*
X018212Y001872D01*
X018297Y001666D01*
X018297Y001444D01*
X018212Y001238D01*
X018257Y001348D02*
X018437Y001348D01*
X018378Y001506D02*
X018297Y001506D01*
X018297Y001665D02*
X018394Y001665D01*
X018498Y001823D02*
X018232Y001823D01*
X018239Y001982D02*
X018796Y001982D01*
X018473Y002140D02*
X018397Y002140D01*
X018737Y001555D02*
X019362Y002180D01*
X019362Y005430D01*
X018883Y005909D01*
X018237Y005909D01*
X017821Y005944D02*
X017633Y005944D01*
X017633Y005909D02*
X017633Y006088D01*
X017622Y006129D01*
X017601Y006165D01*
X017571Y006195D01*
X017535Y006216D01*
X017494Y006227D01*
X017237Y006227D01*
X017237Y005909D01*
X017237Y005592D01*
X017494Y005592D01*
X017535Y005603D01*
X017571Y005624D01*
X017601Y005654D01*
X017622Y005690D01*
X017633Y005731D01*
X017633Y005909D01*
X017237Y005909D01*
X017237Y005909D01*
X017237Y005909D01*
X017237Y005592D01*
X016980Y005592D01*
X016939Y005603D01*
X016902Y005624D01*
X016873Y005654D01*
X016852Y005690D01*
X016841Y005731D01*
X016841Y005909D01*
X017237Y005909D01*
X017237Y005909D01*
X017633Y005909D01*
X017633Y005786D02*
X017821Y005786D01*
X017871Y005627D02*
X017575Y005627D01*
X017617Y005469D02*
X017856Y005469D01*
X018237Y005201D02*
X017237Y005201D01*
X017237Y005627D02*
X017237Y005627D01*
X017237Y005786D02*
X017237Y005786D01*
X017237Y005909D02*
X016841Y005909D01*
X016841Y006088D01*
X016852Y006129D01*
X016873Y006165D01*
X016902Y006195D01*
X016939Y006216D01*
X016980Y006227D01*
X017237Y006227D01*
X017237Y005909D01*
X017237Y005909D01*
X017237Y005944D02*
X017237Y005944D01*
X017237Y006103D02*
X017237Y006103D01*
X017629Y006103D02*
X017821Y006103D01*
X018603Y005627D02*
X018797Y005627D01*
X018956Y005469D02*
X018617Y005469D01*
X018653Y005310D02*
X019102Y005310D01*
X019102Y005152D02*
X018653Y005152D01*
X018653Y004993D02*
X019102Y004993D01*
X019102Y004835D02*
X018497Y004835D01*
X018497Y004676D02*
X019102Y004676D01*
X019102Y004518D02*
X018532Y004518D01*
X018596Y004359D02*
X019102Y004359D01*
X019102Y004201D02*
X018582Y004201D01*
X018481Y004042D02*
X019102Y004042D01*
X019087Y003884D02*
X019102Y003884D01*
X019622Y003884D02*
X020707Y003884D01*
X020707Y004042D02*
X019622Y004042D01*
X019622Y004201D02*
X020707Y004201D01*
X020707Y004359D02*
X019622Y004359D01*
X019622Y004518D02*
X020707Y004518D01*
X020707Y004676D02*
X019622Y004676D01*
X019622Y004835D02*
X020707Y004835D01*
X020707Y004993D02*
X019622Y004993D01*
X019622Y005152D02*
X020707Y005152D01*
X020707Y005310D02*
X019622Y005310D01*
X019622Y005469D02*
X020707Y005469D01*
X020707Y005627D02*
X019533Y005627D01*
X019374Y005786D02*
X020707Y005786D01*
X020707Y005944D02*
X019216Y005944D01*
X019057Y006103D02*
X020707Y006103D01*
X020707Y006261D02*
X014700Y006261D01*
X014819Y006420D02*
X020707Y006420D01*
X020707Y006578D02*
X014846Y006578D01*
X014800Y006737D02*
X020707Y006737D01*
X020707Y006895D02*
X014603Y006895D01*
X014356Y007054D02*
X020707Y007054D01*
X020707Y007212D02*
X014198Y007212D01*
X013987Y007055D02*
X014487Y006555D01*
X014155Y006420D02*
X011740Y006420D01*
X011582Y006578D02*
X014096Y006578D01*
X013938Y006737D02*
X011423Y006737D01*
X011237Y007055D02*
X013987Y007055D01*
X014274Y006261D02*
X011899Y006261D01*
X011997Y006103D02*
X013027Y006103D01*
X012906Y005944D02*
X011997Y005944D01*
X011997Y005786D02*
X012878Y005786D01*
X012922Y005627D02*
X011997Y005627D01*
X011997Y005469D02*
X012977Y005469D01*
X012977Y005310D02*
X011997Y005310D01*
X011997Y005152D02*
X012977Y005152D01*
X012977Y004993D02*
X011997Y004993D01*
X011997Y004835D02*
X012977Y004835D01*
X012977Y004676D02*
X011997Y004676D01*
X011997Y004518D02*
X012977Y004518D01*
X012977Y004359D02*
X011997Y004359D01*
X011997Y004201D02*
X012977Y004201D01*
X012977Y004042D02*
X011997Y004042D01*
X012087Y003884D02*
X012415Y003884D01*
X012277Y003725D02*
X012217Y003725D01*
X012217Y003567D02*
X012717Y003567D01*
X012717Y003725D02*
X012757Y003725D01*
X012757Y003884D02*
X012717Y003884D01*
X012717Y003408D02*
X012757Y003408D01*
X012757Y003250D02*
X012717Y003250D01*
X012392Y003250D02*
X012110Y003250D01*
X012217Y003408D02*
X012277Y003408D01*
X011952Y003091D02*
X013007Y003091D01*
X013467Y003150D02*
X013467Y003174D01*
X013546Y003095D01*
X013717Y003095D01*
X013717Y003535D01*
X013757Y003535D01*
X013757Y003095D01*
X013927Y003095D01*
X014007Y003174D01*
X014007Y002964D01*
X013936Y003035D01*
X013582Y003035D01*
X013467Y003150D01*
X013526Y003091D02*
X014007Y003091D01*
X013757Y003250D02*
X013717Y003250D01*
X013717Y003408D02*
X013757Y003408D01*
X013757Y003725D02*
X013717Y003725D01*
X013717Y003884D02*
X013757Y003884D01*
X014007Y004042D02*
X013497Y004042D01*
X013497Y004201D02*
X014007Y004201D01*
X013985Y004359D02*
X013497Y004359D01*
X013497Y004518D02*
X013992Y004518D01*
X014115Y004676D02*
X013497Y004676D01*
X013497Y004835D02*
X014274Y004835D01*
X014338Y004993D02*
X013497Y004993D01*
X013497Y005152D02*
X014451Y005152D01*
X014674Y004868D02*
X014237Y004430D01*
X014898Y005152D02*
X015014Y005152D01*
X015237Y004868D02*
X015237Y003055D01*
X015737Y003555D02*
X015737Y005430D01*
X015987Y005680D01*
X016230Y005944D02*
X016841Y005944D01*
X016841Y005786D02*
X016331Y005786D01*
X016346Y005627D02*
X016899Y005627D01*
X016856Y005469D02*
X016283Y005469D01*
X015997Y005310D02*
X016821Y005310D01*
X016821Y005152D02*
X015997Y005152D01*
X015997Y004993D02*
X016821Y004993D01*
X015997Y004835D02*
X017977Y004835D01*
X017977Y004676D02*
X015997Y004676D01*
X015997Y004518D02*
X017942Y004518D01*
X017878Y004359D02*
X015997Y004359D01*
X015997Y004201D02*
X017892Y004201D01*
X017993Y004042D02*
X015997Y004042D01*
X016087Y003884D02*
X016415Y003884D01*
X016546Y004015D02*
X016277Y003746D01*
X016277Y003575D01*
X016717Y003575D01*
X016717Y004015D01*
X016546Y004015D01*
X016757Y004015D02*
X016927Y004015D01*
X017197Y003746D01*
X017197Y003575D01*
X016757Y003575D01*
X016757Y003535D01*
X017197Y003535D01*
X017197Y003364D01*
X016927Y003095D01*
X016757Y003095D01*
X016757Y003535D01*
X016717Y003535D01*
X016717Y003095D01*
X016546Y003095D01*
X016277Y003364D01*
X016277Y003535D01*
X016717Y003535D01*
X016717Y003575D01*
X016757Y003575D01*
X016757Y004015D01*
X016757Y003884D02*
X016717Y003884D01*
X016717Y003725D02*
X016757Y003725D01*
X016757Y003567D02*
X017257Y003567D01*
X017257Y003725D02*
X017197Y003725D01*
X017059Y003884D02*
X017387Y003884D01*
X017257Y003408D02*
X017197Y003408D01*
X017082Y003250D02*
X017364Y003250D01*
X017522Y003091D02*
X015952Y003091D01*
X016038Y002933D02*
X016464Y002933D01*
X016305Y002774D02*
X016197Y002774D01*
X016217Y002616D02*
X016277Y002616D01*
X016277Y002457D02*
X016217Y002457D01*
X016159Y002299D02*
X016343Y002299D01*
X016717Y002616D02*
X016757Y002616D01*
X016757Y002774D02*
X016717Y002774D01*
X016717Y002933D02*
X016757Y002933D01*
X017010Y002933D02*
X017436Y002933D01*
X017277Y002774D02*
X017168Y002774D01*
X017197Y002616D02*
X017257Y002616D01*
X017257Y002457D02*
X017197Y002457D01*
X017131Y002299D02*
X017315Y002299D01*
X016757Y003250D02*
X016717Y003250D01*
X016717Y003408D02*
X016757Y003408D01*
X016717Y003567D02*
X016217Y003567D01*
X016217Y003725D02*
X016277Y003725D01*
X016277Y003408D02*
X016217Y003408D01*
X016110Y003250D02*
X016392Y003250D01*
X015477Y005152D02*
X015460Y005152D01*
X015477Y005310D02*
X013497Y005310D01*
X013497Y005469D02*
X015477Y005469D01*
X015566Y005627D02*
X013551Y005627D01*
X013596Y005786D02*
X015642Y005786D01*
X015744Y005944D02*
X013568Y005944D01*
X013447Y006103D02*
X016845Y006103D01*
X018237Y005201D02*
X018237Y004305D01*
X019622Y003725D02*
X020707Y003725D01*
X020707Y003567D02*
X019622Y003567D01*
X019622Y003408D02*
X020707Y003408D01*
X020707Y003250D02*
X019622Y003250D01*
X019622Y003091D02*
X020707Y003091D01*
X020707Y002933D02*
X019622Y002933D01*
X019622Y002774D02*
X020707Y002774D01*
X020707Y002616D02*
X019622Y002616D01*
X019622Y002457D02*
X020707Y002457D01*
X020707Y002299D02*
X019622Y002299D01*
X019622Y002140D02*
X020707Y002140D01*
X020707Y001982D02*
X019531Y001982D01*
X019373Y001823D02*
X020707Y001823D01*
X020707Y001665D02*
X019214Y001665D01*
X019096Y001506D02*
X020703Y001506D01*
X020667Y001348D02*
X019037Y001348D01*
X020186Y000872D02*
X011038Y000872D01*
X010749Y001031D02*
X012604Y001031D01*
X012718Y001031D02*
X012755Y001031D01*
X012870Y001031D02*
X013540Y001031D01*
X013311Y001189D02*
X013135Y001189D01*
X012755Y001189D02*
X012718Y001189D01*
X012718Y001348D02*
X012755Y001348D01*
X012755Y001506D02*
X012718Y001506D01*
X012339Y001189D02*
X010624Y001189D01*
X010557Y001348D02*
X012237Y001348D01*
X012198Y001506D02*
X010521Y001506D01*
X010517Y001665D02*
X012207Y001665D01*
X012267Y001823D02*
X010517Y001823D01*
X010517Y001982D02*
X011985Y001982D01*
X012217Y002457D02*
X012257Y002457D01*
X012257Y002616D02*
X012217Y002616D01*
X012197Y002774D02*
X012277Y002774D01*
X012436Y002933D02*
X012038Y002933D01*
X011522Y003091D02*
X010517Y003091D01*
X010517Y002933D02*
X011436Y002933D01*
X011277Y002774D02*
X010517Y002774D01*
X010517Y002616D02*
X011257Y002616D01*
X011257Y002457D02*
X010517Y002457D01*
X010517Y002299D02*
X011315Y002299D01*
X011473Y002140D02*
X010517Y002140D01*
X010517Y003250D02*
X011364Y003250D01*
X011257Y003408D02*
X010517Y003408D01*
X010517Y003567D02*
X011257Y003567D01*
X011257Y003725D02*
X010517Y003725D01*
X010517Y003884D02*
X011387Y003884D01*
X011477Y004042D02*
X010517Y004042D01*
X010517Y004201D02*
X011477Y004201D01*
X011477Y004359D02*
X010517Y004359D01*
X010517Y004518D02*
X011477Y004518D01*
X011477Y004676D02*
X010517Y004676D01*
X010517Y004835D02*
X011477Y004835D01*
X011477Y004993D02*
X010517Y004993D01*
X010517Y005152D02*
X011477Y005152D01*
X011477Y005310D02*
X010517Y005310D01*
X010517Y005469D02*
X011477Y005469D01*
X011477Y005627D02*
X010517Y005627D01*
X010517Y005786D02*
X011477Y005786D01*
X011477Y005944D02*
X010517Y005944D01*
X010517Y006103D02*
X011322Y006103D01*
X011163Y006261D02*
X010517Y006261D01*
X010517Y006420D02*
X011005Y006420D01*
X010846Y006578D02*
X010517Y006578D01*
X010517Y006737D02*
X010688Y006737D01*
X010529Y006895D02*
X010517Y006895D01*
X010737Y007055D02*
X010737Y009805D01*
X009237Y011305D01*
X005737Y011305D01*
X005955Y011016D02*
X009158Y011016D01*
X009317Y010858D02*
X001767Y010858D01*
X001767Y011016D02*
X005519Y011016D01*
X005403Y011175D02*
X001767Y011175D01*
X001767Y011333D02*
X005378Y011333D01*
X005426Y011492D02*
X001767Y011492D01*
X001767Y011650D02*
X005024Y011650D01*
X004866Y011809D02*
X004523Y011809D01*
X004523Y011967D02*
X004707Y011967D01*
X004549Y012126D02*
X004523Y012126D01*
X004597Y012445D02*
X004205Y012445D01*
X004597Y012445D02*
X005237Y011805D01*
X009237Y011805D01*
X009237Y012680D01*
X009112Y012805D01*
X009112Y013076D01*
X009528Y013077D02*
X009966Y013077D01*
X009966Y013076D02*
X010362Y013076D01*
X010362Y013076D01*
X010362Y013393D01*
X010619Y013393D01*
X010660Y013382D01*
X010696Y013361D01*
X010726Y013331D01*
X010747Y013295D01*
X010758Y013254D01*
X010758Y013076D01*
X010362Y013076D01*
X010362Y013076D01*
X010362Y013393D01*
X010105Y013393D01*
X010064Y013382D01*
X010027Y013361D01*
X009998Y013331D01*
X009977Y013295D01*
X009966Y013254D01*
X009966Y013076D01*
X009966Y012897D01*
X009977Y012856D01*
X009998Y012820D01*
X010027Y012790D01*
X010064Y012769D01*
X010105Y012758D01*
X010362Y012758D01*
X010619Y012758D01*
X010660Y012769D01*
X010696Y012790D01*
X010726Y012820D01*
X010747Y012856D01*
X010758Y012897D01*
X010758Y013076D01*
X010362Y013076D01*
X010362Y013076D01*
X010362Y012758D01*
X010362Y013076D01*
X010362Y013076D01*
X009966Y013076D01*
X009966Y012918D02*
X009528Y012918D01*
X009528Y012844D02*
X009528Y013308D01*
X009423Y013413D01*
X008801Y013413D01*
X008696Y013308D01*
X008696Y012844D01*
X008801Y012738D01*
X008858Y012738D01*
X008891Y012658D01*
X008965Y012585D01*
X008977Y012572D01*
X008977Y012065D01*
X008519Y012065D01*
X008519Y012834D01*
X008414Y012940D01*
X007989Y012940D01*
X008574Y013524D01*
X008724Y013524D01*
X008801Y013447D01*
X009423Y013447D01*
X009500Y013524D01*
X009974Y013524D01*
X010051Y013447D01*
X010673Y013447D01*
X010750Y013524D01*
X010768Y013524D01*
X010863Y013564D01*
X011134Y013835D01*
X011207Y013908D01*
X011247Y014003D01*
X011247Y014050D01*
X011292Y013942D01*
X011413Y013821D01*
X011483Y013792D01*
X011413Y013763D01*
X011292Y013642D01*
X011226Y013484D01*
X011226Y013313D01*
X011292Y013155D01*
X011413Y013034D01*
X011483Y013005D01*
X011413Y012976D01*
X011292Y012855D01*
X011226Y012697D01*
X011226Y012526D01*
X011292Y012368D01*
X011413Y012247D01*
X011483Y012217D01*
X011413Y012188D01*
X011292Y012067D01*
X011226Y011909D01*
X011226Y011738D01*
X011292Y011580D01*
X011413Y011459D01*
X011483Y011430D01*
X011413Y011401D01*
X011292Y011280D01*
X011226Y011122D01*
X011226Y010951D01*
X011292Y010793D01*
X011413Y010672D01*
X011483Y010643D01*
X011413Y010613D01*
X011292Y010492D01*
X011226Y010334D01*
X011226Y010163D01*
X011292Y010005D01*
X011413Y009884D01*
X011483Y009855D01*
X011413Y009826D01*
X011292Y009705D01*
X011247Y009597D01*
X011247Y010107D01*
X011207Y010202D01*
X011134Y010275D01*
X009497Y011913D01*
X009497Y012732D01*
X009473Y012789D01*
X009528Y012844D01*
X009485Y012760D02*
X010100Y012760D01*
X010362Y012760D02*
X010362Y012760D01*
X010362Y012918D02*
X010362Y012918D01*
X010362Y013077D02*
X010362Y013077D01*
X010362Y013235D02*
X010362Y013235D01*
X010758Y013235D02*
X011258Y013235D01*
X011226Y013394D02*
X009442Y013394D01*
X009528Y013235D02*
X009966Y013235D01*
X009497Y012601D02*
X011226Y012601D01*
X011252Y012760D02*
X010624Y012760D01*
X010758Y012918D02*
X011355Y012918D01*
X011370Y013077D02*
X010758Y013077D01*
X010835Y013552D02*
X011254Y013552D01*
X011360Y013711D02*
X011010Y013711D01*
X011134Y013835D02*
X011134Y013835D01*
X011169Y013869D02*
X011365Y013869D01*
X011256Y014028D02*
X011247Y014028D01*
X010987Y014055D02*
X010987Y014304D01*
X011656Y014973D01*
X011226Y014979D02*
X010704Y014979D01*
X010696Y014986D02*
X010660Y015007D01*
X010619Y015018D01*
X010362Y015018D01*
X010362Y014701D01*
X010362Y014701D01*
X010758Y014701D01*
X010758Y014879D01*
X010747Y014920D01*
X010726Y014956D01*
X010696Y014986D01*
X010673Y015072D02*
X010778Y015177D01*
X010778Y015641D01*
X010673Y015747D01*
X010622Y015747D01*
X010622Y016322D01*
X010685Y016385D01*
X010820Y016385D01*
X010975Y016449D01*
X011093Y016567D01*
X011157Y016721D01*
X011157Y016889D01*
X011093Y017043D01*
X010975Y017161D01*
X010957Y017168D01*
X010957Y017464D01*
X011268Y017775D01*
X011268Y018022D01*
X012550Y018022D01*
X012656Y018127D01*
X012656Y018727D01*
X012550Y018832D01*
X010923Y018832D01*
X010818Y018727D01*
X010818Y018127D01*
X010828Y018117D01*
X010828Y017957D01*
X010646Y017775D01*
X010517Y017646D01*
X010517Y017168D01*
X010499Y017161D01*
X010381Y017043D01*
X010317Y016889D01*
X010317Y016753D01*
X010141Y016577D01*
X010102Y016482D01*
X010102Y015747D01*
X010051Y015747D01*
X009946Y015641D01*
X009946Y015177D01*
X010051Y015072D01*
X010673Y015072D01*
X010738Y015137D02*
X011259Y015137D01*
X011370Y015296D02*
X010778Y015296D01*
X010778Y015454D02*
X011436Y015454D01*
X011436Y015613D02*
X010778Y015613D01*
X010622Y015771D02*
X011436Y015771D01*
X011436Y015930D02*
X010622Y015930D01*
X010622Y016088D02*
X011436Y016088D01*
X011436Y016247D02*
X010622Y016247D01*
X010869Y016405D02*
X011436Y016405D01*
X011436Y016564D02*
X011089Y016564D01*
X011157Y016722D02*
X011593Y016722D01*
X011751Y016881D02*
X011157Y016881D01*
X011095Y017039D02*
X011910Y017039D01*
X012068Y017198D02*
X010957Y017198D01*
X010957Y017356D02*
X012227Y017356D01*
X012385Y017515D02*
X011008Y017515D01*
X011166Y017673D02*
X012544Y017673D01*
X012702Y017832D02*
X011268Y017832D01*
X011268Y017990D02*
X012861Y017990D01*
X013019Y018149D02*
X012656Y018149D01*
X012656Y018307D02*
X013178Y018307D01*
X013336Y018466D02*
X012656Y018466D01*
X012656Y018624D02*
X013495Y018624D01*
X013653Y018783D02*
X012600Y018783D01*
X012760Y018941D02*
X010713Y018941D01*
X010579Y018783D02*
X010874Y018783D01*
X010818Y018624D02*
X010579Y018624D01*
X010579Y018466D02*
X010818Y018466D01*
X010818Y018307D02*
X010550Y018307D01*
X010392Y018149D02*
X010818Y018149D01*
X010828Y017990D02*
X010233Y017990D01*
X010075Y017832D02*
X010702Y017832D01*
X010544Y017673D02*
X009916Y017673D01*
X009758Y017515D02*
X010517Y017515D01*
X010517Y017356D02*
X009599Y017356D01*
X009441Y017198D02*
X010517Y017198D01*
X010379Y017039D02*
X009282Y017039D01*
X009157Y016881D02*
X010317Y016881D01*
X010286Y016722D02*
X009188Y016722D01*
X009338Y016564D02*
X010136Y016564D01*
X010102Y016405D02*
X009372Y016405D01*
X009372Y016247D02*
X010102Y016247D01*
X010102Y016088D02*
X009372Y016088D01*
X009372Y015930D02*
X010102Y015930D01*
X010102Y015771D02*
X009372Y015771D01*
X009528Y015613D02*
X009946Y015613D01*
X009946Y015454D02*
X009528Y015454D01*
X009528Y015296D02*
X009946Y015296D01*
X009986Y015137D02*
X009488Y015137D01*
X009410Y015007D02*
X009369Y015018D01*
X009112Y015018D01*
X009112Y014701D01*
X009112Y014701D01*
X009508Y014701D01*
X009508Y014879D01*
X009497Y014920D01*
X009476Y014956D01*
X009446Y014986D01*
X009410Y015007D01*
X009454Y014979D02*
X010020Y014979D01*
X010027Y014986D02*
X009998Y014956D01*
X009977Y014920D01*
X009966Y014879D01*
X009966Y014701D01*
X010362Y014701D01*
X010362Y014701D01*
X010362Y015018D01*
X010105Y015018D01*
X010064Y015007D01*
X010027Y014986D01*
X009966Y014820D02*
X009508Y014820D01*
X009508Y014701D02*
X009112Y014701D01*
X009112Y014701D01*
X009112Y015018D01*
X008855Y015018D01*
X008814Y015007D01*
X008777Y014986D01*
X008748Y014956D01*
X008727Y014920D01*
X008716Y014879D01*
X008716Y014701D01*
X009112Y014701D01*
X009112Y014701D01*
X009112Y014383D01*
X009369Y014383D01*
X009410Y014394D01*
X009446Y014415D01*
X009476Y014445D01*
X009497Y014481D01*
X009508Y014522D01*
X009508Y014701D01*
X009508Y014662D02*
X009966Y014662D01*
X009966Y014701D02*
X009966Y014522D01*
X009977Y014481D01*
X009998Y014445D01*
X010027Y014415D01*
X010064Y014394D01*
X010105Y014383D01*
X010362Y014383D01*
X010619Y014383D01*
X010660Y014394D01*
X010696Y014415D01*
X010726Y014445D01*
X010747Y014481D01*
X010758Y014522D01*
X010758Y014701D01*
X010362Y014701D01*
X010362Y014701D01*
X010362Y014383D01*
X010362Y014701D01*
X010362Y014701D01*
X009966Y014701D01*
X009971Y014503D02*
X009503Y014503D01*
X009112Y014503D02*
X009112Y014503D01*
X009112Y014383D02*
X009112Y014701D01*
X009112Y014701D01*
X008716Y014701D01*
X008716Y014522D01*
X008727Y014481D01*
X008748Y014445D01*
X008777Y014415D01*
X008814Y014394D01*
X008855Y014383D01*
X009112Y014383D01*
X009112Y014662D02*
X009112Y014662D01*
X009112Y014820D02*
X009112Y014820D01*
X009112Y014979D02*
X009112Y014979D01*
X008770Y014979D02*
X008519Y014979D01*
X008519Y015137D02*
X008736Y015137D01*
X008696Y015296D02*
X008420Y015296D01*
X008414Y015302D02*
X007713Y015302D01*
X007608Y015196D01*
X007608Y014339D01*
X007713Y014233D01*
X008414Y014233D01*
X008519Y014339D01*
X008519Y015196D01*
X008414Y015302D01*
X008696Y015454D02*
X002964Y015454D01*
X002964Y015455D02*
X003440Y015455D01*
X003440Y015694D01*
X003429Y015735D01*
X003408Y015771D01*
X008852Y015771D01*
X008852Y015930D02*
X001767Y015930D01*
X001767Y016088D02*
X002955Y016088D01*
X002959Y016082D02*
X002989Y016052D01*
X003025Y016031D01*
X003066Y016020D01*
X003292Y016020D01*
X003292Y016385D01*
X003382Y016385D01*
X003382Y016020D01*
X003608Y016020D01*
X003649Y016031D01*
X003685Y016052D01*
X003715Y016082D01*
X003721Y016092D01*
X003812Y016000D01*
X004461Y016000D01*
X004567Y016105D01*
X004567Y016170D01*
X004930Y016170D01*
X005025Y016210D01*
X005289Y016473D01*
X005502Y016385D01*
X005834Y016385D01*
X006141Y016512D01*
X006376Y016747D01*
X006503Y017054D01*
X006503Y017386D01*
X006376Y017693D01*
X006141Y017928D01*
X005834Y018055D01*
X005502Y018055D01*
X005195Y017928D01*
X004960Y017693D01*
X004833Y017386D01*
X004833Y017054D01*
X004921Y016841D01*
X004770Y016690D01*
X004567Y016690D01*
X004567Y016755D01*
X004461Y016860D01*
X003812Y016860D01*
X003721Y016768D01*
X003715Y016778D01*
X003685Y016808D01*
X003649Y016829D01*
X003608Y016840D01*
X003382Y016840D01*
X003382Y016475D01*
X003292Y016475D01*
X003292Y016840D01*
X003066Y016840D01*
X003025Y016829D01*
X002989Y016808D01*
X002959Y016778D01*
X002938Y016742D01*
X002927Y016701D01*
X002927Y016475D01*
X003292Y016475D01*
X003292Y016385D01*
X002927Y016385D01*
X002927Y016159D01*
X002938Y016118D01*
X002959Y016082D01*
X002927Y016247D02*
X001767Y016247D01*
X001767Y016405D02*
X003292Y016405D01*
X003292Y016247D02*
X003382Y016247D01*
X003382Y016088D02*
X003292Y016088D01*
X003301Y015833D02*
X002964Y015833D01*
X002964Y015455D01*
X002964Y015340D01*
X003440Y015340D01*
X003440Y015101D01*
X003429Y015060D01*
X003408Y015024D01*
X003378Y014994D01*
X003342Y014973D01*
X003301Y014962D01*
X002964Y014962D01*
X002964Y015340D01*
X002848Y015340D01*
X002372Y015340D01*
X002372Y015101D01*
X002383Y015060D01*
X002404Y015024D01*
X002434Y014994D01*
X002470Y014973D01*
X002511Y014962D01*
X002848Y014962D01*
X002848Y015340D01*
X002848Y015455D01*
X002372Y015455D01*
X002372Y015694D01*
X002383Y015735D01*
X002404Y015771D01*
X001767Y015771D01*
X001767Y015613D02*
X002372Y015613D01*
X002404Y015771D02*
X002434Y015801D01*
X002470Y015822D01*
X002511Y015833D01*
X002848Y015833D01*
X002848Y015455D01*
X002964Y015455D01*
X002848Y015454D02*
X001767Y015454D01*
X001767Y015296D02*
X002372Y015296D01*
X002372Y015137D02*
X001767Y015137D01*
X001767Y014979D02*
X002461Y014979D01*
X002848Y014979D02*
X002964Y014979D01*
X002964Y015137D02*
X002848Y015137D01*
X002848Y015296D02*
X002964Y015296D01*
X002964Y015613D02*
X002848Y015613D01*
X002848Y015771D02*
X002964Y015771D01*
X003301Y015833D02*
X003342Y015822D01*
X003378Y015801D01*
X003408Y015771D01*
X003440Y015613D02*
X008696Y015613D01*
X009112Y015409D02*
X009112Y016430D01*
X008737Y016805D01*
X008587Y017198D02*
X006503Y017198D01*
X006503Y017356D02*
X008977Y017356D01*
X009135Y017515D02*
X006450Y017515D01*
X006384Y017673D02*
X009294Y017673D01*
X009452Y017832D02*
X008075Y017832D01*
X008077Y018466D02*
X008086Y018466D01*
X008077Y018624D02*
X008178Y018624D01*
X008276Y018889D02*
X008740Y018889D01*
X008845Y018994D01*
X008845Y019616D01*
X008740Y019721D01*
X008276Y019721D01*
X008213Y019659D01*
X008182Y019671D01*
X008089Y019671D01*
X007991Y019768D01*
X006661Y019768D01*
X006556Y019663D01*
X006556Y019160D01*
X006661Y019054D01*
X007991Y019054D01*
X008056Y019118D01*
X008090Y019085D01*
X008170Y019051D01*
X008170Y018994D01*
X008276Y018889D01*
X008223Y018941D02*
X006457Y018941D01*
X006457Y018783D02*
X009517Y018783D01*
X009500Y018941D02*
X009517Y018941D01*
X009957Y018941D02*
X010004Y018941D01*
X009957Y018783D02*
X010139Y018783D01*
X010139Y018624D02*
X009957Y018624D01*
X009957Y018466D02*
X010086Y018466D01*
X009928Y018307D02*
X009863Y018307D01*
X009769Y018149D02*
X009704Y018149D01*
X009611Y017990D02*
X009549Y017990D01*
X008887Y018624D02*
X008837Y018624D01*
X008845Y018466D02*
X008879Y018466D01*
X008879Y018307D02*
X008845Y018307D01*
X008845Y018149D02*
X008879Y018149D01*
X008883Y017990D02*
X008841Y017990D01*
X008792Y018941D02*
X008932Y018941D01*
X008879Y019100D02*
X008845Y019100D01*
X008845Y019258D02*
X008879Y019258D01*
X008879Y019417D02*
X008845Y019417D01*
X008845Y019575D02*
X008879Y019575D01*
X008981Y019892D02*
X008743Y019892D01*
X008845Y020051D02*
X008879Y020051D01*
X008879Y020209D02*
X008845Y020209D01*
X008845Y020368D02*
X008879Y020368D01*
X008879Y020526D02*
X008845Y020526D01*
X008508Y020305D02*
X008237Y020305D01*
X008131Y020199D01*
X007326Y020199D01*
X006556Y020209D02*
X006457Y020209D01*
X006457Y020051D02*
X006556Y020051D01*
X006611Y019892D02*
X006457Y019892D01*
X006457Y019734D02*
X006626Y019734D01*
X006556Y019575D02*
X006457Y019575D01*
X006457Y019417D02*
X006556Y019417D01*
X006556Y019258D02*
X006457Y019258D01*
X006457Y019100D02*
X006616Y019100D01*
X006576Y018624D02*
X006457Y018624D01*
X006457Y018466D02*
X006576Y018466D01*
X006576Y018307D02*
X006546Y018307D01*
X006241Y017990D02*
X005991Y017990D01*
X006082Y018149D02*
X001767Y018149D01*
X001767Y018307D02*
X006017Y018307D01*
X006017Y018466D02*
X001767Y018466D01*
X001767Y018624D02*
X006017Y018624D01*
X006017Y018783D02*
X001767Y018783D01*
X001767Y018941D02*
X006017Y018941D01*
X006017Y019100D02*
X001767Y019100D01*
X001767Y019258D02*
X006017Y019258D01*
X006017Y019417D02*
X001767Y019417D01*
X001767Y019575D02*
X006017Y019575D01*
X006017Y019734D02*
X001767Y019734D01*
X001767Y019892D02*
X006017Y019892D01*
X006017Y020051D02*
X001767Y020051D01*
X001767Y020209D02*
X006017Y020209D01*
X006017Y020368D02*
X001767Y020368D01*
X001767Y020526D02*
X006147Y020526D01*
X006305Y020685D02*
X001767Y020685D01*
X001767Y020843D02*
X006464Y020843D01*
X006392Y020771D02*
X006392Y020771D01*
X006556Y021002D02*
X001767Y021002D01*
X001767Y021160D02*
X006556Y021160D01*
X006556Y021319D02*
X001767Y021319D01*
X001767Y021477D02*
X006598Y021477D01*
X006253Y021794D02*
X007995Y021794D01*
X008038Y021636D02*
X006028Y021636D01*
X006141Y021682D02*
X006376Y021917D01*
X006503Y022224D01*
X006503Y022556D01*
X006376Y022863D01*
X006141Y023098D01*
X005834Y023225D01*
X005502Y023225D01*
X005195Y023098D01*
X004960Y022863D01*
X004833Y022556D01*
X004833Y022224D01*
X004960Y021917D01*
X005195Y021682D01*
X005502Y021555D01*
X005834Y021555D01*
X006141Y021682D01*
X006391Y021953D02*
X007946Y021953D01*
X007946Y022111D02*
X006456Y022111D01*
X006503Y022270D02*
X007946Y022270D01*
X008064Y022478D02*
X008105Y022467D01*
X008362Y022467D01*
X008619Y022467D01*
X008660Y022478D01*
X008696Y022499D01*
X008726Y022529D01*
X008747Y022565D01*
X008758Y022606D01*
X008758Y022784D01*
X008362Y022784D01*
X008362Y022467D01*
X008362Y022784D01*
X008362Y022784D01*
X008362Y022784D01*
X007966Y022784D01*
X007966Y022606D01*
X007977Y022565D01*
X007998Y022529D01*
X008027Y022499D01*
X008064Y022478D01*
X007971Y022587D02*
X006490Y022587D01*
X006503Y022428D02*
X009040Y022428D01*
X009040Y022270D02*
X008778Y022270D01*
X008778Y022111D02*
X009040Y022111D01*
X009040Y021953D02*
X008778Y021953D01*
X008728Y021794D02*
X009354Y021794D01*
X009834Y021794D02*
X009969Y021794D01*
X009933Y021758D02*
X010005Y021831D01*
X009834Y021831D01*
X009834Y021590D01*
X009798Y021501D01*
X009692Y021396D01*
X009692Y020980D01*
X009657Y020946D01*
X009969Y020634D01*
X010059Y020724D01*
X010658Y020724D01*
X010764Y020619D01*
X010764Y020173D01*
X010744Y020153D01*
X010744Y020100D01*
X010692Y020100D01*
X010692Y020100D01*
X010744Y020100D01*
X010744Y020048D01*
X010764Y020028D01*
X010764Y019533D01*
X012730Y019533D01*
X012730Y019562D01*
X012710Y019582D01*
X012710Y020619D01*
X012815Y020724D01*
X013414Y020724D01*
X013520Y020619D01*
X013520Y019582D01*
X013500Y019562D01*
X013500Y019533D01*
X013571Y019533D01*
X013571Y019558D01*
X013676Y019663D01*
X014298Y019663D01*
X014375Y019586D01*
X014400Y019586D01*
X014477Y019663D01*
X014477Y020357D01*
X014516Y020452D01*
X014766Y020702D01*
X014766Y020702D01*
X014840Y020775D01*
X014935Y020815D01*
X015099Y020815D01*
X015045Y020869D01*
X015045Y020960D01*
X013146Y020960D01*
X013017Y021089D01*
X012656Y021450D01*
X012656Y020883D01*
X012550Y020778D01*
X011858Y020778D01*
X011858Y020745D01*
X012189Y020414D01*
X012308Y020414D01*
X012440Y020359D01*
X012541Y020258D01*
X012596Y020126D01*
X012596Y019984D01*
X012541Y019852D01*
X012440Y019751D01*
X012308Y019696D01*
X012166Y019696D01*
X012034Y019751D01*
X011987Y019798D01*
X011940Y019751D01*
X011808Y019696D01*
X011666Y019696D01*
X011534Y019751D01*
X011433Y019852D01*
X011381Y019976D01*
X011308Y019946D01*
X011166Y019946D01*
X011034Y020001D01*
X010933Y020102D01*
X010878Y020234D01*
X010878Y020353D01*
X010828Y020403D01*
X010828Y020873D01*
X010818Y020883D01*
X010818Y021450D01*
X010703Y021335D01*
X010524Y021335D01*
X010440Y021251D01*
X010308Y021196D01*
X010166Y021196D01*
X010034Y021251D01*
X009933Y021352D01*
X009878Y021484D01*
X009878Y021626D01*
X009933Y021758D01*
X009882Y021636D02*
X009834Y021636D01*
X009881Y021477D02*
X009773Y021477D01*
X009692Y021319D02*
X009966Y021319D01*
X009692Y021160D02*
X010818Y021160D01*
X010818Y021002D02*
X009692Y021002D01*
X009760Y020843D02*
X010828Y020843D01*
X010828Y020685D02*
X010698Y020685D01*
X010764Y020526D02*
X010828Y020526D01*
X010863Y020368D02*
X010764Y020368D01*
X010764Y020209D02*
X010888Y020209D01*
X010984Y020051D02*
X010744Y020051D01*
X010692Y020100D02*
X010692Y020100D01*
X010764Y019892D02*
X011416Y019892D01*
X011576Y019734D02*
X010764Y019734D01*
X010764Y019575D02*
X012717Y019575D01*
X012710Y019734D02*
X012398Y019734D01*
X012558Y019892D02*
X012710Y019892D01*
X012710Y020051D02*
X012596Y020051D01*
X012561Y020209D02*
X012710Y020209D01*
X012710Y020368D02*
X012420Y020368D01*
X012710Y020526D02*
X012077Y020526D01*
X011918Y020685D02*
X012776Y020685D01*
X012615Y020843D02*
X015071Y020843D01*
X014987Y020555D02*
X014737Y020305D01*
X014737Y019555D01*
X014508Y019326D01*
X013987Y019326D01*
X013987Y019717D02*
X013730Y019717D01*
X013689Y019728D01*
X013652Y019749D01*
X013623Y019779D01*
X013602Y019815D01*
X013591Y019856D01*
X013591Y020034D01*
X013987Y020034D01*
X013987Y019717D01*
X014244Y019717D01*
X014285Y019728D01*
X014321Y019749D01*
X014351Y019779D01*
X014372Y019815D01*
X014383Y019856D01*
X014383Y020034D01*
X013987Y020034D01*
X013987Y020034D01*
X013987Y020034D01*
X013987Y019717D01*
X013987Y019734D02*
X013987Y019734D01*
X013987Y019892D02*
X013987Y019892D01*
X013987Y020034D02*
X013987Y020034D01*
X014383Y020034D01*
X014383Y020213D01*
X014372Y020254D01*
X014351Y020290D01*
X014321Y020320D01*
X014285Y020341D01*
X014244Y020352D01*
X013987Y020352D01*
X013987Y020034D01*
X013591Y020034D01*
X013591Y020213D01*
X013602Y020254D01*
X013623Y020290D01*
X013652Y020320D01*
X013689Y020341D01*
X013730Y020352D01*
X013987Y020352D01*
X013987Y020034D01*
X013987Y020034D01*
X013987Y020051D02*
X013987Y020051D01*
X013987Y020209D02*
X013987Y020209D01*
X014383Y020209D02*
X014477Y020209D01*
X014477Y020051D02*
X014383Y020051D01*
X014383Y019892D02*
X014477Y019892D01*
X014477Y019734D02*
X014295Y019734D01*
X013679Y019734D02*
X013520Y019734D01*
X013520Y019892D02*
X013591Y019892D01*
X013591Y020051D02*
X013520Y020051D01*
X013520Y020209D02*
X013591Y020209D01*
X013520Y020368D02*
X014481Y020368D01*
X014590Y020526D02*
X013520Y020526D01*
X013454Y020685D02*
X014749Y020685D01*
X014987Y020555D02*
X015987Y020555D01*
X016091Y020451D01*
X016091Y020055D01*
X016429Y020051D02*
X016615Y020051D01*
X016456Y019892D02*
X016429Y019892D01*
X016429Y020209D02*
X017920Y020209D01*
X018258Y019930D02*
X016862Y019930D01*
X012237Y015305D01*
X012237Y011617D01*
X011656Y011036D01*
X011385Y010699D02*
X010711Y010699D01*
X010869Y010541D02*
X011340Y010541D01*
X011246Y010382D02*
X011028Y010382D01*
X011186Y010224D02*
X011226Y010224D01*
X011247Y010065D02*
X011267Y010065D01*
X011247Y009907D02*
X011390Y009907D01*
X011335Y009748D02*
X011247Y009748D01*
X010987Y010055D02*
X010987Y007305D01*
X011237Y007055D01*
X011289Y007371D02*
X020707Y007371D01*
X020707Y007529D02*
X020568Y007529D01*
X020701Y007688D02*
X020707Y007688D01*
X020067Y007529D02*
X011857Y007529D01*
X011871Y007536D02*
X011923Y007574D01*
X011969Y007620D01*
X012007Y007672D01*
X012036Y007729D01*
X012056Y007791D01*
X012066Y007854D01*
X012066Y007887D01*
X011656Y007887D01*
X011656Y007887D01*
X011656Y007887D01*
X011656Y007477D01*
X011688Y007477D01*
X011752Y007487D01*
X011814Y007507D01*
X011871Y007536D01*
X012015Y007688D02*
X019935Y007688D01*
X019888Y007846D02*
X012065Y007846D01*
X012049Y008005D02*
X019901Y008005D01*
X019986Y008163D02*
X011960Y008163D01*
X011912Y008322D02*
X020062Y008322D01*
X019933Y008480D02*
X012041Y008480D01*
X012086Y008639D02*
X019888Y008639D01*
X019903Y008797D02*
X012071Y008797D01*
X011983Y008956D02*
X019991Y008956D01*
X020057Y009114D02*
X011917Y009114D01*
X012043Y009273D02*
X019930Y009273D01*
X019888Y009431D02*
X012086Y009431D01*
X012069Y009590D02*
X019905Y009590D01*
X019996Y009748D02*
X011978Y009748D01*
X011922Y009907D02*
X020052Y009907D01*
X019928Y010065D02*
X012045Y010065D01*
X012086Y010224D02*
X019888Y010224D01*
X019907Y010382D02*
X012066Y010382D01*
X011973Y010541D02*
X020001Y010541D01*
X020047Y010699D02*
X011927Y010699D01*
X012048Y010858D02*
X019926Y010858D01*
X019888Y011016D02*
X012086Y011016D01*
X012162Y011175D02*
X019812Y011175D01*
X019653Y011333D02*
X012321Y011333D01*
X012466Y011492D02*
X019495Y011492D01*
X019336Y011650D02*
X012497Y011650D01*
X012737Y012055D02*
X012737Y014805D01*
X012873Y015137D02*
X017998Y015137D01*
X017998Y014979D02*
X013053Y014979D01*
X013096Y014820D02*
X017998Y014820D01*
X017998Y014662D02*
X013066Y014662D01*
X012997Y014503D02*
X017998Y014503D01*
X017998Y014345D02*
X012997Y014345D01*
X012997Y014186D02*
X017998Y014186D01*
X017998Y014028D02*
X012997Y014028D01*
X012997Y013869D02*
X017998Y013869D01*
X017998Y013711D02*
X012997Y013711D01*
X012997Y013552D02*
X017998Y013552D01*
X017998Y013394D02*
X012997Y013394D01*
X012997Y013235D02*
X017998Y013235D01*
X017998Y013077D02*
X012997Y013077D01*
X012997Y012918D02*
X018068Y012918D01*
X018227Y012760D02*
X012997Y012760D01*
X012997Y012601D02*
X018385Y012601D01*
X018544Y012443D02*
X012997Y012443D01*
X013015Y012284D02*
X018702Y012284D01*
X018861Y012126D02*
X013096Y012126D01*
X013089Y011967D02*
X019019Y011967D01*
X019178Y011809D02*
X012998Y011809D01*
X011380Y011492D02*
X009918Y011492D01*
X009760Y011650D02*
X011263Y011650D01*
X011226Y011809D02*
X009601Y011809D01*
X009497Y011967D02*
X011250Y011967D01*
X011350Y012126D02*
X009497Y012126D01*
X009497Y012284D02*
X011375Y012284D01*
X011261Y012443D02*
X009497Y012443D01*
X008977Y012443D02*
X008519Y012443D01*
X008519Y012601D02*
X008948Y012601D01*
X008780Y012760D02*
X008519Y012760D01*
X008435Y012918D02*
X008696Y012918D01*
X008696Y013077D02*
X008126Y013077D01*
X008285Y013235D02*
X008696Y013235D01*
X008781Y013394D02*
X008443Y013394D01*
X008025Y013711D02*
X006561Y013711D01*
X006596Y013552D02*
X007866Y013552D01*
X007708Y013394D02*
X006558Y013394D01*
X006237Y013555D02*
X005487Y013555D01*
X005298Y013744D01*
X004048Y013744D01*
X003890Y013311D02*
X004981Y013311D01*
X005237Y013055D01*
X007737Y013055D01*
X008466Y013784D01*
X009112Y013784D01*
X010362Y013784D01*
X010716Y013784D01*
X010987Y014055D01*
X010727Y014186D02*
X006071Y014186D01*
X006096Y014028D02*
X008374Y014028D01*
X008183Y013869D02*
X006416Y013869D01*
X006058Y013869D02*
X006048Y013869D01*
X005737Y014055D02*
X005182Y014610D01*
X004048Y014610D01*
X004346Y014292D02*
X004346Y014177D01*
X003890Y014177D01*
X003435Y014177D01*
X003890Y014177D01*
X003890Y014177D01*
X003890Y014177D01*
X004346Y014177D01*
X004346Y014062D01*
X004418Y014062D01*
X004476Y014004D01*
X005350Y014004D01*
X005378Y013992D01*
X005378Y014046D01*
X005074Y014350D01*
X004476Y014350D01*
X004418Y014292D01*
X004346Y014292D01*
X004346Y014186D02*
X005238Y014186D01*
X005378Y014028D02*
X004452Y014028D01*
X004470Y014345D02*
X005080Y014345D01*
X005498Y014662D02*
X007608Y014662D01*
X007608Y014820D02*
X005340Y014820D01*
X005657Y014503D02*
X007608Y014503D01*
X007608Y014345D02*
X005955Y014345D01*
X004914Y012878D02*
X005237Y012555D01*
X004914Y012878D02*
X004048Y012878D01*
X003573Y012918D02*
X001767Y012918D01*
X001767Y012760D02*
X003573Y012760D01*
X003637Y012601D02*
X001767Y012601D01*
X001767Y012443D02*
X003730Y012443D01*
X003633Y012284D02*
X001767Y012284D01*
X001767Y012126D02*
X003573Y012126D01*
X003573Y011967D02*
X001767Y011967D01*
X001767Y011809D02*
X003573Y011809D01*
X003074Y010541D02*
X009634Y010541D01*
X009475Y010699D02*
X001767Y010699D01*
X001768Y010541D02*
X002030Y010541D01*
X002029Y010538D02*
X002018Y010497D01*
X002018Y010258D01*
X002494Y010258D01*
X002494Y010636D01*
X002157Y010636D01*
X002116Y010625D01*
X002080Y010604D01*
X002050Y010575D01*
X002029Y010538D01*
X002018Y010382D02*
X001795Y010382D01*
X001849Y010224D02*
X002494Y010224D01*
X002610Y010224D02*
X009951Y010224D01*
X009792Y010382D02*
X003086Y010382D01*
X003086Y010065D02*
X010109Y010065D01*
X010268Y009907D02*
X003086Y009907D01*
X002610Y010382D02*
X002494Y010382D01*
X002494Y010541D02*
X002610Y010541D01*
X002018Y010065D02*
X001964Y010065D01*
X001767Y013077D02*
X003437Y013077D01*
X003415Y013235D02*
X001767Y013235D01*
X001767Y013394D02*
X003415Y013394D01*
X003444Y013552D02*
X001767Y013552D01*
X001767Y013711D02*
X003573Y013711D01*
X003573Y013869D02*
X001767Y013869D01*
X001767Y014028D02*
X003435Y014028D01*
X003435Y014186D02*
X001767Y014186D01*
X001767Y014345D02*
X003437Y014345D01*
X003573Y014503D02*
X001767Y014503D01*
X001767Y014662D02*
X003573Y014662D01*
X003573Y014820D02*
X001767Y014820D01*
X003352Y014979D02*
X003573Y014979D01*
X003573Y015137D02*
X003440Y015137D01*
X003440Y015296D02*
X003613Y015296D01*
X003719Y016088D02*
X003724Y016088D01*
X004137Y016430D02*
X004878Y016430D01*
X005668Y017220D01*
X006192Y016564D02*
X008384Y016564D01*
X008317Y016722D02*
X006351Y016722D01*
X006431Y016881D02*
X008317Y016881D01*
X008379Y017039D02*
X006497Y017039D01*
X006399Y017832D02*
X006237Y017832D01*
X005345Y017990D02*
X001767Y017990D01*
X001767Y017832D02*
X005099Y017832D01*
X004952Y017673D02*
X001767Y017673D01*
X001767Y017515D02*
X004886Y017515D01*
X004833Y017356D02*
X001767Y017356D01*
X001767Y017198D02*
X004833Y017198D01*
X004839Y017039D02*
X001767Y017039D01*
X001767Y016881D02*
X004905Y016881D01*
X004802Y016722D02*
X004567Y016722D01*
X004549Y016088D02*
X008852Y016088D01*
X008852Y016247D02*
X005062Y016247D01*
X005221Y016405D02*
X005454Y016405D01*
X005882Y016405D02*
X008605Y016405D01*
X007707Y015296D02*
X004483Y015296D01*
X004523Y015137D02*
X007608Y015137D01*
X007608Y014979D02*
X004523Y014979D01*
X003382Y016564D02*
X003292Y016564D01*
X003292Y016722D02*
X003382Y016722D01*
X002932Y016722D02*
X001767Y016722D01*
X001767Y016564D02*
X002927Y016564D01*
X007318Y018466D02*
X007335Y018466D01*
X007318Y018624D02*
X007335Y018624D01*
X007326Y019411D02*
X008131Y019411D01*
X008237Y019305D01*
X008508Y019305D01*
X008075Y019100D02*
X008037Y019100D01*
X008026Y019734D02*
X009729Y019734D01*
X009714Y019892D02*
X009451Y019892D01*
X009554Y020051D02*
X009555Y020051D01*
X009554Y019575D02*
X009571Y019575D01*
X009918Y020685D02*
X010020Y020685D01*
X010508Y021319D02*
X010818Y021319D01*
X011434Y021794D02*
X011790Y021794D01*
X011841Y021953D02*
X011684Y021953D01*
X011684Y022111D02*
X011757Y022111D01*
X011757Y022270D02*
X011684Y022270D01*
X011684Y022428D02*
X011757Y022428D01*
X011684Y022587D02*
X011910Y022587D01*
X012046Y022775D02*
X012217Y022775D01*
X012217Y023215D01*
X012257Y023215D01*
X012257Y023255D01*
X012697Y023255D01*
X012697Y023426D01*
X012427Y023695D01*
X012257Y023695D01*
X012257Y023255D01*
X012217Y023255D01*
X012217Y023695D01*
X012046Y023695D01*
X011777Y023426D01*
X011777Y023255D01*
X012217Y023255D01*
X012217Y023215D01*
X011777Y023215D01*
X011777Y023044D01*
X012046Y022775D01*
X011918Y022904D02*
X011684Y022904D01*
X011684Y023062D02*
X011777Y023062D01*
X011684Y023221D02*
X012217Y023221D01*
X012257Y023221D02*
X013217Y023221D01*
X013217Y023215D02*
X012777Y023215D01*
X012777Y023044D01*
X013046Y022775D01*
X013217Y022775D01*
X013217Y023215D01*
X013257Y023215D01*
X013257Y023255D01*
X013697Y023255D01*
X013697Y023426D01*
X013427Y023695D01*
X013257Y023695D01*
X013257Y023255D01*
X013217Y023255D01*
X013217Y023695D01*
X013046Y023695D01*
X012777Y023426D01*
X012777Y023255D01*
X013217Y023255D01*
X013217Y023215D01*
X013257Y023215D02*
X013257Y022775D01*
X013427Y022775D01*
X013697Y023044D01*
X013697Y023215D01*
X013257Y023215D01*
X013257Y023221D02*
X014217Y023221D01*
X014217Y023215D02*
X013777Y023215D01*
X013777Y023044D01*
X014046Y022775D01*
X014217Y022775D01*
X014217Y023215D01*
X014257Y023215D01*
X014257Y023255D01*
X014697Y023255D01*
X014697Y023426D01*
X014427Y023695D01*
X014257Y023695D01*
X014257Y023255D01*
X014217Y023255D01*
X014217Y023695D01*
X014046Y023695D01*
X013777Y023426D01*
X013777Y023255D01*
X014217Y023255D01*
X014217Y023215D01*
X014257Y023215D02*
X014257Y022775D01*
X014427Y022775D01*
X014697Y023044D01*
X014697Y023215D01*
X014257Y023215D01*
X014257Y023221D02*
X015217Y023221D01*
X015217Y023215D02*
X014777Y023215D01*
X014777Y023044D01*
X015046Y022775D01*
X015217Y022775D01*
X015217Y023215D01*
X015257Y023215D01*
X015257Y023255D01*
X015697Y023255D01*
X015697Y023426D01*
X015427Y023695D01*
X015257Y023695D01*
X015257Y023255D01*
X015217Y023255D01*
X015217Y023695D01*
X015046Y023695D01*
X014777Y023426D01*
X014777Y023255D01*
X015217Y023255D01*
X015217Y023215D01*
X015257Y023215D02*
X015257Y022775D01*
X015427Y022775D01*
X015697Y023044D01*
X015697Y023215D01*
X015257Y023215D01*
X015257Y023221D02*
X016217Y023221D01*
X016217Y023215D02*
X015777Y023215D01*
X015777Y023044D01*
X016046Y022775D01*
X016217Y022775D01*
X016217Y023215D01*
X016257Y023215D01*
X016257Y023255D01*
X016697Y023255D01*
X016697Y023426D01*
X016427Y023695D01*
X016257Y023695D01*
X016257Y023255D01*
X016217Y023255D01*
X016217Y023695D01*
X016046Y023695D01*
X015777Y023426D01*
X015777Y023255D01*
X016217Y023255D01*
X016217Y023215D01*
X016257Y023215D02*
X016257Y022775D01*
X016427Y022775D01*
X016697Y023044D01*
X016697Y023215D01*
X016257Y023215D01*
X016257Y023221D02*
X016757Y023221D01*
X016757Y023379D02*
X016697Y023379D01*
X016757Y023434D02*
X016757Y023036D01*
X017038Y022755D01*
X017436Y022755D01*
X017717Y023036D01*
X017717Y023434D01*
X017436Y023715D01*
X017038Y023715D01*
X016757Y023434D01*
X016861Y023538D02*
X016585Y023538D01*
X016257Y023538D02*
X016217Y023538D01*
X016217Y023379D02*
X016257Y023379D01*
X016257Y023062D02*
X016217Y023062D01*
X016217Y022904D02*
X016257Y022904D01*
X016436Y022715D02*
X016038Y022715D01*
X015757Y022434D01*
X015757Y022036D01*
X016038Y021755D01*
X016436Y021755D01*
X016717Y022036D01*
X016717Y022434D01*
X016436Y022715D01*
X016564Y022587D02*
X016910Y022587D01*
X017038Y022715D02*
X016757Y022434D01*
X016757Y022036D01*
X017038Y021755D01*
X017436Y021755D01*
X017717Y022036D01*
X017717Y022434D01*
X017436Y022715D01*
X017038Y022715D01*
X016890Y022904D02*
X016556Y022904D01*
X016697Y023062D02*
X016757Y023062D01*
X016757Y022428D02*
X016717Y022428D01*
X016717Y022270D02*
X016757Y022270D01*
X016757Y022111D02*
X016717Y022111D01*
X016633Y021953D02*
X016841Y021953D01*
X016999Y021794D02*
X016475Y021794D01*
X016429Y021477D02*
X017277Y021477D01*
X017487Y021180D02*
X016091Y021180D01*
X016112Y021159D02*
X016112Y020680D01*
X015987Y020555D01*
X015780Y020843D02*
X015694Y020843D01*
X015720Y021002D02*
X015754Y021002D01*
X015754Y021160D02*
X015720Y021160D01*
X015720Y021319D02*
X015754Y021319D01*
X015754Y021477D02*
X015720Y021477D01*
X015436Y021755D02*
X015717Y022036D01*
X015717Y022434D01*
X015436Y022715D01*
X015038Y022715D01*
X014757Y022434D01*
X014757Y022036D01*
X015038Y021755D01*
X015436Y021755D01*
X015475Y021794D02*
X015999Y021794D01*
X015841Y021953D02*
X015633Y021953D01*
X015717Y022111D02*
X015757Y022111D01*
X015757Y022270D02*
X015717Y022270D01*
X015717Y022428D02*
X015757Y022428D01*
X015910Y022587D02*
X015564Y022587D01*
X015556Y022904D02*
X015918Y022904D01*
X015777Y023062D02*
X015697Y023062D01*
X015697Y023379D02*
X015777Y023379D01*
X015889Y023538D02*
X015585Y023538D01*
X015257Y023538D02*
X015217Y023538D01*
X015217Y023379D02*
X015257Y023379D01*
X015257Y023062D02*
X015217Y023062D01*
X015217Y022904D02*
X015257Y022904D01*
X014918Y022904D02*
X014556Y022904D01*
X014697Y023062D02*
X014777Y023062D01*
X014777Y023379D02*
X014697Y023379D01*
X014585Y023538D02*
X014889Y023538D01*
X014257Y023538D02*
X014217Y023538D01*
X014217Y023379D02*
X014257Y023379D01*
X014257Y023062D02*
X014217Y023062D01*
X014217Y022904D02*
X014257Y022904D01*
X014436Y022715D02*
X014038Y022715D01*
X013757Y022434D01*
X013757Y022036D01*
X014038Y021755D01*
X014436Y021755D01*
X014717Y022036D01*
X014717Y022434D01*
X014436Y022715D01*
X014564Y022587D02*
X014910Y022587D01*
X014757Y022428D02*
X014717Y022428D01*
X014717Y022270D02*
X014757Y022270D01*
X014757Y022111D02*
X014717Y022111D01*
X014633Y021953D02*
X014841Y021953D01*
X014999Y021794D02*
X014475Y021794D01*
X013999Y021794D02*
X013475Y021794D01*
X013436Y021755D02*
X013717Y022036D01*
X013717Y022434D01*
X013436Y022715D01*
X013038Y022715D01*
X012757Y022434D01*
X012757Y022036D01*
X013038Y021755D01*
X013436Y021755D01*
X013633Y021953D02*
X013841Y021953D01*
X013757Y022111D02*
X013717Y022111D01*
X013717Y022270D02*
X013757Y022270D01*
X013757Y022428D02*
X013717Y022428D01*
X013564Y022587D02*
X013910Y022587D01*
X013918Y022904D02*
X013556Y022904D01*
X013697Y023062D02*
X013777Y023062D01*
X013777Y023379D02*
X013697Y023379D01*
X013585Y023538D02*
X013889Y023538D01*
X013257Y023538D02*
X013217Y023538D01*
X013217Y023379D02*
X013257Y023379D01*
X013257Y023062D02*
X013217Y023062D01*
X013217Y022904D02*
X013257Y022904D01*
X012918Y022904D02*
X012556Y022904D01*
X012427Y022775D02*
X012257Y022775D01*
X012257Y023215D01*
X012697Y023215D01*
X012697Y023044D01*
X012427Y022775D01*
X012257Y022904D02*
X012217Y022904D01*
X012217Y023062D02*
X012257Y023062D01*
X012257Y023379D02*
X012217Y023379D01*
X012217Y023538D02*
X012257Y023538D01*
X012585Y023538D02*
X012889Y023538D01*
X012777Y023379D02*
X012697Y023379D01*
X012697Y023062D02*
X012777Y023062D01*
X012910Y022587D02*
X012564Y022587D01*
X012717Y022428D02*
X012757Y022428D01*
X012757Y022270D02*
X012717Y022270D01*
X012717Y022111D02*
X012757Y022111D01*
X012841Y021953D02*
X012633Y021953D01*
X012934Y021794D02*
X012999Y021794D01*
X013092Y021636D02*
X020707Y021636D01*
X020597Y021544D02*
X020560Y021565D01*
X020520Y021576D01*
X020341Y021576D01*
X020163Y021576D01*
X020122Y021565D01*
X020085Y021544D01*
X020056Y021514D01*
X020035Y021478D01*
X020024Y021437D01*
X020024Y021180D01*
X020024Y020923D01*
X020035Y020882D01*
X020056Y020846D01*
X020085Y020816D01*
X020122Y020795D01*
X020163Y020784D01*
X020341Y020784D01*
X020341Y021180D01*
X020024Y021180D01*
X020341Y021180D01*
X020341Y021180D01*
X020341Y021180D01*
X020341Y021576D01*
X020341Y021180D01*
X020341Y021180D01*
X020341Y020784D01*
X020520Y020784D01*
X020560Y020795D01*
X020597Y020816D01*
X020627Y020846D01*
X020648Y020882D01*
X020659Y020923D01*
X020659Y021180D01*
X020659Y021437D01*
X020648Y021478D01*
X020627Y021514D01*
X020597Y021544D01*
X020648Y021477D02*
X020707Y021477D01*
X020707Y021319D02*
X020659Y021319D01*
X020659Y021180D02*
X020341Y021180D01*
X020341Y021180D01*
X020659Y021180D01*
X020659Y021160D02*
X020707Y021160D01*
X020707Y021002D02*
X020659Y021002D01*
X020624Y020843D02*
X020707Y020843D01*
X020707Y020685D02*
X016372Y020685D01*
X016402Y020843D02*
X017363Y020843D01*
X017611Y020843D02*
X017946Y020843D01*
X018258Y021180D02*
X017487Y021180D01*
X017697Y021477D02*
X017920Y021477D01*
X018046Y021775D02*
X018217Y021775D01*
X018217Y022215D01*
X018257Y022215D01*
X018257Y022255D01*
X018697Y022255D01*
X018697Y022426D01*
X018427Y022695D01*
X018257Y022695D01*
X018257Y022255D01*
X018217Y022255D01*
X018217Y022695D01*
X018046Y022695D01*
X017777Y022426D01*
X017777Y022255D01*
X018217Y022255D01*
X018217Y022215D01*
X017777Y022215D01*
X017777Y022044D01*
X018046Y021775D01*
X018027Y021794D02*
X017475Y021794D01*
X017633Y021953D02*
X017869Y021953D01*
X017777Y022111D02*
X017717Y022111D01*
X017717Y022270D02*
X017777Y022270D01*
X017779Y022428D02*
X017717Y022428D01*
X017564Y022587D02*
X017938Y022587D01*
X018046Y022775D02*
X018217Y022775D01*
X018217Y023215D01*
X018257Y023215D01*
X018257Y023255D01*
X018697Y023255D01*
X018697Y023426D01*
X018427Y023695D01*
X018257Y023695D01*
X018257Y023255D01*
X018217Y023255D01*
X018217Y023695D01*
X018046Y023695D01*
X017777Y023426D01*
X017777Y023255D01*
X018217Y023255D01*
X018217Y023215D01*
X017777Y023215D01*
X017777Y023044D01*
X018046Y022775D01*
X017918Y022904D02*
X017584Y022904D01*
X017717Y023062D02*
X017777Y023062D01*
X017717Y023221D02*
X018217Y023221D01*
X018257Y023221D02*
X020681Y023221D01*
X020706Y023062D02*
X018697Y023062D01*
X018697Y023044D02*
X018697Y023215D01*
X018257Y023215D01*
X018257Y022775D01*
X018427Y022775D01*
X018697Y023044D01*
X018556Y022904D02*
X020707Y022904D01*
X020707Y022745D02*
X011684Y022745D01*
X011130Y022680D02*
X010362Y022680D01*
X010148Y023062D02*
X010576Y023062D01*
X010576Y023221D02*
X010148Y023221D01*
X010148Y023379D02*
X010576Y023379D01*
X011684Y023379D02*
X011777Y023379D01*
X011889Y023538D02*
X001958Y023538D01*
X001844Y023379D02*
X009040Y023379D01*
X009040Y023221D02*
X005845Y023221D01*
X005491Y023221D02*
X001793Y023221D01*
X001767Y023062D02*
X005159Y023062D01*
X005001Y022904D02*
X001767Y022904D01*
X001767Y022745D02*
X004911Y022745D01*
X004846Y022587D02*
X001767Y022587D01*
X001767Y022428D02*
X004833Y022428D01*
X004833Y022270D02*
X001767Y022270D01*
X001767Y022111D02*
X004880Y022111D01*
X004945Y021953D02*
X001767Y021953D01*
X001767Y021794D02*
X005083Y021794D01*
X005307Y021636D02*
X001767Y021636D01*
X002159Y023696D02*
X017019Y023696D01*
X017455Y023696D02*
X020314Y023696D01*
X020515Y023538D02*
X018585Y023538D01*
X018697Y023379D02*
X020629Y023379D01*
X020707Y022587D02*
X018536Y022587D01*
X018694Y022428D02*
X020707Y022428D01*
X020707Y022270D02*
X018697Y022270D01*
X018697Y022215D02*
X018257Y022215D01*
X018257Y021775D01*
X018427Y021775D01*
X018697Y022044D01*
X018697Y022215D01*
X018697Y022111D02*
X020707Y022111D01*
X020707Y021953D02*
X018605Y021953D01*
X018446Y021794D02*
X020707Y021794D01*
X020341Y021477D02*
X020341Y021477D01*
X020341Y021319D02*
X020341Y021319D01*
X020341Y021160D02*
X020341Y021160D01*
X020341Y021002D02*
X020341Y021002D01*
X020341Y020843D02*
X020341Y020843D01*
X020058Y020843D02*
X019944Y020843D01*
X019970Y020869D02*
X019970Y021491D01*
X019865Y021596D01*
X019401Y021596D01*
X019299Y021495D01*
X019198Y021596D01*
X018734Y021596D01*
X018629Y021491D01*
X018629Y020869D01*
X018734Y020764D01*
X019198Y020764D01*
X019299Y020865D01*
X019401Y020764D01*
X019865Y020764D01*
X019970Y020869D01*
X019970Y021002D02*
X020024Y021002D01*
X020024Y021160D02*
X019970Y021160D01*
X019970Y021319D02*
X020024Y021319D01*
X020034Y021477D02*
X019970Y021477D01*
X019633Y021180D02*
X018966Y021180D01*
X018629Y021160D02*
X018595Y021160D01*
X018595Y021002D02*
X018629Y021002D01*
X018655Y020843D02*
X018569Y020843D01*
X018595Y021319D02*
X018629Y021319D01*
X018629Y021477D02*
X018595Y021477D01*
X018257Y021794D02*
X018217Y021794D01*
X018217Y021953D02*
X018257Y021953D01*
X018257Y022111D02*
X018217Y022111D01*
X018217Y022270D02*
X018257Y022270D01*
X018257Y022428D02*
X018217Y022428D01*
X018217Y022587D02*
X018257Y022587D01*
X018257Y022904D02*
X018217Y022904D01*
X018217Y023062D02*
X018257Y023062D01*
X018257Y023379D02*
X018217Y023379D01*
X018217Y023538D02*
X018257Y023538D01*
X017889Y023538D02*
X017613Y023538D01*
X017717Y023379D02*
X017777Y023379D01*
X019277Y020843D02*
X019321Y020843D01*
X019401Y020346D02*
X019299Y020245D01*
X019198Y020346D01*
X018734Y020346D01*
X018629Y020241D01*
X018629Y019619D01*
X018734Y019514D01*
X019198Y019514D01*
X019299Y019615D01*
X019401Y019514D01*
X019865Y019514D01*
X019970Y019619D01*
X019970Y020241D01*
X019865Y020346D01*
X019401Y020346D01*
X019633Y019930D02*
X018966Y019930D01*
X018673Y019575D02*
X018551Y019575D01*
X018595Y019734D02*
X018629Y019734D01*
X018629Y019892D02*
X018595Y019892D01*
X018595Y020051D02*
X018629Y020051D01*
X018629Y020209D02*
X018595Y020209D01*
X017964Y019575D02*
X016875Y019575D01*
X016716Y019417D02*
X020707Y019417D01*
X020707Y019575D02*
X020606Y019575D01*
X020597Y019566D02*
X020627Y019596D01*
X020648Y019632D01*
X020659Y019673D01*
X020659Y019930D01*
X020659Y020187D01*
X020648Y020228D01*
X020627Y020264D01*
X020597Y020294D01*
X020560Y020315D01*
X020520Y020326D01*
X020341Y020326D01*
X020163Y020326D01*
X020122Y020315D01*
X020085Y020294D01*
X020056Y020264D01*
X020035Y020228D01*
X020024Y020187D01*
X020024Y019930D01*
X020024Y019673D01*
X020035Y019632D01*
X020056Y019596D01*
X020085Y019566D01*
X020122Y019545D01*
X020163Y019534D01*
X020341Y019534D01*
X020341Y019930D01*
X020024Y019930D01*
X020341Y019930D01*
X020341Y019930D01*
X020341Y019930D01*
X020341Y020326D01*
X020341Y019930D01*
X020341Y019930D01*
X020341Y019534D01*
X020520Y019534D01*
X020560Y019545D01*
X020597Y019566D01*
X020659Y019734D02*
X020707Y019734D01*
X020707Y019892D02*
X020659Y019892D01*
X020659Y019930D02*
X020341Y019930D01*
X020659Y019930D01*
X020659Y020051D02*
X020707Y020051D01*
X020707Y020209D02*
X020653Y020209D01*
X020707Y020368D02*
X016427Y020368D01*
X016341Y020526D02*
X020707Y020526D01*
X020341Y020209D02*
X020341Y020209D01*
X020341Y020051D02*
X020341Y020051D01*
X020341Y019930D02*
X020341Y019930D01*
X020341Y019892D02*
X020341Y019892D01*
X020341Y019734D02*
X020341Y019734D01*
X020341Y019575D02*
X020341Y019575D01*
X020076Y019575D02*
X019926Y019575D01*
X019970Y019734D02*
X020024Y019734D01*
X020024Y019892D02*
X019970Y019892D01*
X019970Y020051D02*
X020024Y020051D01*
X020030Y020209D02*
X019970Y020209D01*
X019339Y019575D02*
X019259Y019575D01*
X019198Y018971D02*
X018734Y018971D01*
X018629Y018866D01*
X018629Y018244D01*
X018734Y018139D01*
X019198Y018139D01*
X019299Y018240D01*
X019401Y018139D01*
X019865Y018139D01*
X019970Y018244D01*
X019970Y018866D01*
X019865Y018971D01*
X019401Y018971D01*
X019299Y018870D01*
X019198Y018971D01*
X019228Y018941D02*
X019370Y018941D01*
X019633Y018555D02*
X018966Y018555D01*
X018704Y018941D02*
X018520Y018941D01*
X018595Y018783D02*
X018629Y018783D01*
X018629Y018624D02*
X018595Y018624D01*
X018595Y018466D02*
X018629Y018466D01*
X018629Y018307D02*
X018595Y018307D01*
X018518Y018149D02*
X018724Y018149D01*
X018518Y017990D02*
X020707Y017990D01*
X020707Y017832D02*
X018518Y017832D01*
X018518Y017673D02*
X020707Y017673D01*
X020707Y017515D02*
X018518Y017515D01*
X018518Y017356D02*
X020707Y017356D01*
X020707Y017198D02*
X018518Y017198D01*
X018518Y017039D02*
X020707Y017039D01*
X020707Y016881D02*
X018518Y016881D01*
X018518Y016722D02*
X020707Y016722D01*
X020707Y016564D02*
X018518Y016564D01*
X018518Y016405D02*
X020707Y016405D01*
X020707Y016247D02*
X018518Y016247D01*
X018518Y016088D02*
X020707Y016088D01*
X020707Y015930D02*
X018518Y015930D01*
X018518Y015771D02*
X020707Y015771D01*
X020707Y015613D02*
X018518Y015613D01*
X018518Y015454D02*
X020707Y015454D01*
X020707Y015296D02*
X020603Y015296D01*
X020032Y015296D02*
X018518Y015296D01*
X018518Y015137D02*
X019920Y015137D01*
X019888Y014979D02*
X018518Y014979D01*
X018518Y014820D02*
X019916Y014820D01*
X020021Y014662D02*
X018518Y014662D01*
X018518Y014503D02*
X020027Y014503D01*
X019918Y014345D02*
X018518Y014345D01*
X018518Y014186D02*
X019888Y014186D01*
X019918Y014028D02*
X018518Y014028D01*
X018518Y013869D02*
X020026Y013869D01*
X020021Y013711D02*
X018518Y013711D01*
X018518Y013552D02*
X019916Y013552D01*
X019888Y013394D02*
X018518Y013394D01*
X018518Y013235D02*
X019920Y013235D01*
X020031Y013077D02*
X018645Y013077D01*
X018804Y012918D02*
X020016Y012918D01*
X019914Y012760D02*
X018962Y012760D01*
X019121Y012601D02*
X019888Y012601D01*
X019922Y012443D02*
X019279Y012443D01*
X019438Y012284D02*
X020037Y012284D01*
X020011Y012126D02*
X019596Y012126D01*
X019755Y011967D02*
X019912Y011967D01*
X020318Y011036D02*
X018258Y013096D01*
X018258Y018555D01*
X017995Y018941D02*
X016241Y018941D01*
X016399Y019100D02*
X020707Y019100D01*
X020707Y019258D02*
X016558Y019258D01*
X016082Y018783D02*
X017920Y018783D01*
X017920Y018624D02*
X015924Y018624D01*
X015765Y018466D02*
X017920Y018466D01*
X017920Y018307D02*
X015607Y018307D01*
X015448Y018149D02*
X017998Y018149D01*
X017998Y017990D02*
X015290Y017990D01*
X015131Y017832D02*
X017998Y017832D01*
X017998Y017673D02*
X014973Y017673D01*
X014814Y017515D02*
X017998Y017515D01*
X017998Y017356D02*
X014656Y017356D01*
X014497Y017198D02*
X017998Y017198D01*
X017998Y017039D02*
X014339Y017039D01*
X014180Y016881D02*
X017998Y016881D01*
X017998Y016722D02*
X014022Y016722D01*
X013863Y016564D02*
X017998Y016564D01*
X017998Y016405D02*
X013705Y016405D01*
X013546Y016247D02*
X017998Y016247D01*
X017998Y016088D02*
X013388Y016088D01*
X013229Y015930D02*
X017998Y015930D01*
X017998Y015771D02*
X013071Y015771D01*
X012912Y015613D02*
X017998Y015613D01*
X017998Y015454D02*
X012754Y015454D01*
X012595Y015296D02*
X017998Y015296D01*
X019208Y018149D02*
X019391Y018149D01*
X019874Y018149D02*
X020707Y018149D01*
X020627Y018221D02*
X020597Y018191D01*
X020560Y018170D01*
X020520Y018159D01*
X020341Y018159D01*
X020341Y018555D01*
X020024Y018555D01*
X020024Y018298D01*
X020035Y018257D01*
X020056Y018221D01*
X020085Y018191D01*
X020122Y018170D01*
X020163Y018159D01*
X020341Y018159D01*
X020341Y018555D01*
X020341Y018555D01*
X020024Y018555D01*
X020024Y018812D01*
X020035Y018853D01*
X020056Y018889D01*
X020085Y018919D01*
X020122Y018940D01*
X020163Y018951D01*
X020341Y018951D01*
X020341Y018555D01*
X020341Y018555D01*
X020341Y018555D01*
X020341Y018951D01*
X020520Y018951D01*
X020560Y018940D01*
X020597Y018919D01*
X020627Y018889D01*
X020648Y018853D01*
X020659Y018812D01*
X020659Y018555D01*
X020341Y018555D01*
X020341Y018555D01*
X020659Y018555D01*
X020659Y018298D01*
X020648Y018257D01*
X020627Y018221D01*
X020659Y018307D02*
X020707Y018307D01*
X020707Y018466D02*
X020659Y018466D01*
X020659Y018624D02*
X020707Y018624D01*
X020707Y018783D02*
X020659Y018783D01*
X020707Y018941D02*
X020558Y018941D01*
X020341Y018941D02*
X020341Y018941D01*
X020341Y018783D02*
X020341Y018783D01*
X020341Y018624D02*
X020341Y018624D01*
X020341Y018466D02*
X020341Y018466D01*
X020341Y018307D02*
X020341Y018307D01*
X020024Y018307D02*
X019970Y018307D01*
X019970Y018466D02*
X020024Y018466D01*
X020024Y018624D02*
X019970Y018624D01*
X019970Y018783D02*
X020024Y018783D01*
X020125Y018941D02*
X019895Y018941D01*
X015383Y019701D02*
X015383Y020055D01*
X015383Y019701D02*
X012737Y017055D01*
X013469Y018941D02*
X013754Y018941D01*
X013588Y019575D02*
X013513Y019575D01*
X013104Y021002D02*
X012656Y021002D01*
X012656Y021160D02*
X012946Y021160D01*
X012787Y021319D02*
X012656Y021319D01*
X013251Y021477D02*
X015045Y021477D01*
X012076Y019734D02*
X011898Y019734D01*
X011631Y021636D02*
X011592Y021636D01*
X009040Y022587D02*
X008753Y022587D01*
X008758Y022745D02*
X009040Y022745D01*
X009040Y022904D02*
X008758Y022904D01*
X008758Y022963D02*
X008747Y023004D01*
X008726Y023040D01*
X008696Y023070D01*
X008660Y023091D01*
X008619Y023102D01*
X008362Y023102D01*
X008362Y022784D01*
X008362Y022784D01*
X008758Y022784D01*
X008758Y022963D01*
X008704Y023062D02*
X009040Y023062D01*
X008362Y023062D02*
X008362Y023062D01*
X008362Y023102D02*
X008105Y023102D01*
X008064Y023091D01*
X008027Y023070D01*
X007998Y023040D01*
X007977Y023004D01*
X007966Y022963D01*
X007966Y022784D01*
X008362Y022784D01*
X008362Y022784D01*
X008362Y023102D01*
X008362Y022904D02*
X008362Y022904D01*
X008362Y022745D02*
X008362Y022745D01*
X008362Y022587D02*
X008362Y022587D01*
X007966Y022745D02*
X006425Y022745D01*
X006335Y022904D02*
X007966Y022904D01*
X008020Y023062D02*
X006177Y023062D01*
X007326Y021183D02*
X007990Y021183D01*
X008112Y021305D01*
X008462Y021305D01*
X008487Y021330D02*
X008487Y021680D01*
X008362Y021805D01*
X008362Y022076D01*
X008272Y019892D02*
X008042Y019892D01*
X010737Y016805D02*
X010362Y016430D01*
X010362Y015409D01*
X010362Y014979D02*
X010362Y014979D01*
X010362Y014820D02*
X010362Y014820D01*
X010362Y014662D02*
X010362Y014662D01*
X010362Y014503D02*
X010362Y014503D01*
X010753Y014503D02*
X010818Y014503D01*
X010758Y014662D02*
X010977Y014662D01*
X011135Y014820D02*
X010758Y014820D01*
X010727Y014345D02*
X008519Y014345D01*
X008519Y014503D02*
X008721Y014503D01*
X008716Y014662D02*
X008519Y014662D01*
X008519Y014820D02*
X008716Y014820D01*
X008519Y012284D02*
X008977Y012284D01*
X008977Y012126D02*
X008519Y012126D01*
X009237Y011805D02*
X010987Y010055D01*
X010426Y009748D02*
X009707Y009748D01*
X009825Y009710D02*
X009825Y009710D01*
X009991Y009590D02*
X010477Y009590D01*
X010477Y009431D02*
X010183Y009431D01*
X010153Y009471D02*
X010153Y009471D01*
X010153Y009471D01*
X010298Y009273D02*
X010477Y009273D01*
X010477Y009114D02*
X010401Y009114D01*
X010453Y008956D02*
X010477Y008956D01*
X011247Y007846D02*
X011247Y007846D01*
X011247Y007688D02*
X011297Y007688D01*
X011247Y007529D02*
X011455Y007529D01*
X011656Y007529D02*
X011656Y007529D01*
X011656Y007688D02*
X011656Y007688D01*
X011656Y007846D02*
X011656Y007846D01*
X011656Y008005D02*
X011656Y008005D01*
X011656Y008163D02*
X011656Y008163D01*
X010737Y007055D02*
X011737Y006055D01*
X011737Y003555D01*
X013237Y004055D02*
X013237Y005805D01*
X014163Y001189D02*
X014311Y001189D01*
X014540Y001031D02*
X013934Y001031D01*
X014934Y001031D02*
X015540Y001031D01*
X015311Y001189D02*
X015163Y001189D01*
X015934Y001031D02*
X016540Y001031D01*
X016311Y001189D02*
X016163Y001189D01*
X016934Y001031D02*
X017540Y001031D01*
X017311Y001189D02*
X017163Y001189D01*
X011265Y010858D02*
X010552Y010858D01*
X010394Y011016D02*
X011226Y011016D01*
X011248Y011175D02*
X010235Y011175D01*
X010077Y011333D02*
X011345Y011333D01*
X012497Y015137D02*
X012601Y015137D01*
D27*
X011656Y014973D02*
X011656Y016474D01*
X013974Y018792D01*
X013974Y019313D01*
X013987Y019326D01*
X013974Y019313D02*
X013115Y019313D01*
X010359Y019313D01*
X009995Y019313D01*
X009737Y019055D01*
X009737Y018493D01*
X009549Y018305D01*
X009216Y018305D01*
X008508Y018305D02*
X008237Y018305D01*
X007862Y017930D01*
X006612Y017930D01*
X006237Y018305D01*
X006237Y020305D01*
X006612Y020680D01*
X008112Y020680D01*
X008237Y020805D01*
X009487Y020805D01*
X009995Y020297D01*
X010359Y020297D01*
X010359Y020100D02*
X010692Y020100D01*
X011237Y019555D01*
X011737Y019555D02*
X011782Y019510D01*
X013115Y019510D01*
X012237Y020055D02*
X011638Y020653D01*
X011638Y021183D01*
X011442Y021183D02*
X011442Y021475D01*
X011237Y021680D01*
X010737Y021680D01*
X010612Y021555D01*
X010237Y021555D01*
X011048Y021183D02*
X011048Y020494D01*
X011237Y020305D01*
X011245Y020797D02*
X011737Y020305D01*
X011737Y020055D01*
X011245Y020797D02*
X011245Y021183D01*
X011835Y021183D02*
X011835Y021528D01*
X011987Y021680D01*
X012737Y021680D01*
X013237Y021180D01*
X015383Y021180D01*
X016091Y021180D02*
X016112Y021159D01*
X011048Y018427D02*
X011048Y017866D01*
X010737Y017555D01*
X010737Y016805D01*
X010359Y018427D02*
X008737Y016805D01*
X010359Y018427D02*
X010359Y019116D01*
X010359Y019707D02*
X010013Y019707D01*
X009612Y019305D01*
X009216Y019305D01*
X010013Y019903D02*
X009612Y020305D01*
X009216Y020305D01*
X010013Y019903D02*
X010359Y019903D01*
X008487Y021330D02*
X008462Y021305D01*
X012237Y002055D02*
X017987Y002055D01*
D28*
X018737Y001555D03*
X018237Y004305D03*
X015987Y005680D03*
X015237Y004868D03*
X014674Y004868D03*
X013237Y005805D03*
X014487Y006555D03*
X012737Y012055D03*
X010362Y012055D03*
X012737Y014805D03*
X012737Y017055D03*
X012237Y020055D03*
X011737Y020055D03*
X011237Y020305D03*
X010237Y021555D03*
X010362Y022680D03*
X013987Y020680D03*
X017487Y021180D03*
X006237Y013555D03*
X005737Y014055D03*
X005237Y012555D03*
X005737Y011305D03*
D29*
X013237Y004055D02*
X013237Y003055D01*
X013737Y002555D01*
X014237Y003055D02*
X014237Y004430D01*
X014237Y003055D02*
X014737Y002555D01*
X015237Y003055D02*
X015737Y002555D01*
X017737Y002555D02*
X017737Y002805D01*
X018237Y003305D01*
X018237Y004305D01*
X018737Y003555D02*
X018737Y003305D01*
X018237Y002805D01*
X018237Y002305D01*
X017987Y002055D01*
X012237Y002055D02*
X011737Y002555D01*
D30*
X009262Y021305D02*
X009594Y021637D01*
X009594Y022680D01*
M02*
