G75*
G70*
%OFA0B0*%
%FSLAX24Y24*%
%IPPOS*%
%LPD*%
%AMOC8*
5,1,8,0,0,1.08239X$1,22.5*
%
%ADD10C,0.1370*%
%ADD11C,0.0540*%
%ADD12OC8,0.0660*%
%ADD13C,0.0560*%
%ADD14C,0.0820*%
D10*
X005668Y017220D03*
X005668Y022390D03*
D11*
X008737Y016805D03*
X010737Y016805D03*
D12*
X012237Y022235D03*
X012237Y023235D03*
X013237Y023235D03*
X014237Y023235D03*
X014237Y022235D03*
X013237Y022235D03*
X015237Y022235D03*
X016237Y022235D03*
X016237Y023235D03*
X015237Y023235D03*
X017237Y023235D03*
X017237Y022235D03*
X018237Y022235D03*
X018237Y023235D03*
X018737Y003555D03*
X018737Y002555D03*
X017737Y002555D03*
X017737Y003555D03*
X016737Y003555D03*
X016737Y002555D03*
X015737Y002555D03*
X015737Y003555D03*
X014737Y003555D03*
X014737Y002555D03*
X013737Y002555D03*
X013737Y003555D03*
X012737Y003555D03*
X012737Y002555D03*
X011737Y002555D03*
X011737Y003555D03*
D13*
X011656Y007887D03*
X011656Y008674D03*
X011656Y009461D03*
X011656Y010249D03*
X011656Y011036D03*
X011656Y011824D03*
X011656Y012611D03*
X011656Y013399D03*
X011656Y014186D03*
X011656Y014973D03*
X020318Y014973D03*
X020318Y014186D03*
X020318Y013399D03*
X020318Y012611D03*
X020318Y011824D03*
X020318Y011036D03*
X020318Y010249D03*
X020318Y009461D03*
X020318Y008674D03*
X020318Y007887D03*
D14*
X017737Y001555D03*
X016737Y001555D03*
X015737Y001555D03*
X014737Y001555D03*
X013737Y001555D03*
X012737Y001555D03*
M02*
