G75*
G70*
%OFA0B0*%
%FSLAX24Y24*%
%IPPOS*%
%LPD*%
%AMOC8*
5,1,8,0,0,1.08239X$1,22.5*
%
%ADD10R,0.0450X0.0100*%
%ADD11R,0.0100X0.0450*%
%ADD12R,0.1181X0.0354*%
%ADD13R,0.0500X0.0500*%
%ADD14R,0.0472X0.0315*%
%ADD15R,0.0315X0.0472*%
%ADD16R,0.0748X0.1339*%
%ADD17R,0.0748X0.0551*%
%ADD18R,0.0551X0.0709*%
%ADD19R,0.0591X0.0276*%
D10*
X010359Y019116D03*
X010359Y019313D03*
X010359Y019510D03*
X010359Y019707D03*
X010359Y019903D03*
X010359Y020100D03*
X010359Y020297D03*
X010359Y020494D03*
X013115Y020494D03*
X013115Y020297D03*
X013115Y020100D03*
X013115Y019903D03*
X013115Y019707D03*
X013115Y019510D03*
X013115Y019313D03*
X013115Y019116D03*
D11*
X012426Y018427D03*
X012229Y018427D03*
X012032Y018427D03*
X011835Y018427D03*
X011638Y018427D03*
X011442Y018427D03*
X011245Y018427D03*
X011048Y018427D03*
X011048Y021183D03*
X011245Y021183D03*
X011442Y021183D03*
X011638Y021183D03*
X011835Y021183D03*
X012032Y021183D03*
X012229Y021183D03*
X012426Y021183D03*
D12*
X007326Y021183D03*
X007326Y020199D03*
X007326Y019411D03*
X007326Y018427D03*
D13*
X008462Y021305D03*
X009262Y021305D03*
X004137Y016430D03*
X003337Y016430D03*
D14*
X008362Y022076D03*
X008362Y022784D03*
X013987Y020034D03*
X013987Y019326D03*
X010362Y015409D03*
X010362Y014701D03*
X010362Y013784D03*
X010362Y013076D03*
X009112Y013076D03*
X009112Y013784D03*
X009112Y014701D03*
X009112Y015409D03*
X017237Y005909D03*
X017237Y005201D03*
X018237Y005201D03*
X018237Y005909D03*
D15*
X009216Y018305D03*
X008508Y018305D03*
X008508Y019305D03*
X009216Y019305D03*
X009216Y020305D03*
X008508Y020305D03*
X015383Y020055D03*
X016091Y020055D03*
X016091Y021180D03*
X015383Y021180D03*
X018258Y021180D03*
X018966Y021180D03*
X019633Y021180D03*
X020341Y021180D03*
X020341Y019930D03*
X019633Y019930D03*
X018966Y019930D03*
X018258Y019930D03*
X018258Y018555D03*
X018966Y018555D03*
X019633Y018555D03*
X020341Y018555D03*
D16*
X011130Y022680D03*
X009594Y022680D03*
D17*
X002552Y010201D03*
X002906Y015398D03*
D18*
X008064Y014768D03*
X008064Y012405D03*
D19*
X004205Y012445D03*
X004048Y012878D03*
X003890Y013311D03*
X004048Y013744D03*
X003890Y014177D03*
X004048Y014610D03*
X004048Y015043D03*
X004048Y012012D03*
M02*
